<?xml version="1.0" standalone="no"?>
<!DOCTYPE svg PUBLIC "-//W3C//DTD SVG 1.1//EN" "http://www.w3.org/Graphics/SVG/1.1/DTD/svg11.dtd" >
<svg>
<metadata>
Created by FontForge 20090914 at Wed Aug  4 14:32:21 2021
 By www-data
Copyright (C) 1996 Emigre Graphics, Designed by Zuzana Licko
</metadata>
<defs>
<font id="MrsEavesItalic" horiz-adv-x="0" >
  <font-face 
    font-family="MrsEaves"
    font-weight="500"
    font-style="italic"
    font-stretch="normal"
    units-per-em="1000"
    panose-1="2 0 6 6 6 0 0 2 0 4"
    ascent="708"
    descent="-292"
    x-height="346.002"
    cap-height="600"
    bbox="-264.409 -267 1075.15 839"
    underline-thickness="25"
    underline-position="-62"
    slope="-12"
    unicode-range="U+0020-U+FB02"
  />
<missing-glyph horiz-adv-x="500" 
 />
    <glyph glyph-name=".notdef" horiz-adv-x="500" 
 />
    <glyph glyph-name="space" unicode=" " horiz-adv-x="175" 
 />
    <glyph glyph-name="exclam" unicode="!" horiz-adv-x="300" 
d="M163 40c-2 -12.667 -8.49902 -23.8301 -19.499 -33.4971s-23.167 -14.5 -36.5 -14.5c-12.667 0 -22.834 4.66699 -30.501 14s-10.5 20.666 -8.5 33.999c2.66699 13.333 9.5 24.666 20.5 33.999s22.833 14 35.5 14c13.333 0 23.833 -4.83301 31.5 -14.5
s10.167 -20.834 7.5 -33.501zM162.001 568.004c2.66699 13.333 9.33301 24.833 20 34.5s22.334 14.5 35.001 14.5c13.333 0 24 -5 32 -15s10.667 -21.333 8 -34c-2 -14 -7.66699 -35.333 -17 -64s-22 -72.667 -38 -132s-32.333 -130 -49 -212h-33
c16 111.333 26.667 205.5 32 282.5s8.66602 118.833 9.99902 125.5z" />
    <glyph glyph-name="quotedbl" unicode="&#x22;" horiz-adv-x="362" 
d="M125 568c2.66699 13.333 9.33203 24.832 19.999 34.499s22.334 14.5 35.001 14.5c13.333 0 24 -5 32 -15s10.667 -21.333 8 -34c-0.666992 -4.66699 -10 -24.667 -28 -60s-32.333 -73.666 -43 -114.999h-16c4 42 3.5 80.667 -1.5 116s-7.16699 55 -6.5 59z
M291.998 567.999c2.66699 13.333 9.33203 24.832 19.999 34.499s22.334 14.5 35.001 14.5c13.333 0 24 -5 32 -15s10.667 -21.333 8 -34c-0.666992 -4.66699 -10 -24.667 -28 -60s-32.333 -73.666 -43 -114.999h-17c4 42 3.66699 80.833 -1 116.5s-6.66699 55.167 -6 58.5z
" />
    <glyph glyph-name="numbersign" unicode="#" horiz-adv-x="435" 
d="M331 314h78l-18 -52h-78l-42 -123h-40l42 123h-106l-42 -123h-40l43 123h-79l19 52h77l39 111h-77l18 53h78l42 122h40l-42 -122h105l43 122h40l-43 -122h79l-19 -53h-78zM185 314h106l39 111h-106z" />
    <glyph glyph-name="dollar" unicode="$" horiz-adv-x="498" 
d="M329 582c36.667 -4 65.8369 -14.498 87.5039 -31.498s31.5 -33.5 29.5 -49.5c-1.33301 -6.66699 -5 -12.667 -11 -18s-12 -8 -18 -8s-11.833 3 -17.5 9s-10.834 12.833 -15.501 20.5s-12.334 15.167 -23.001 22.5s-23.334 12.333 -38.001 15l-36 -202l64 -37
c24.667 -14 43.834 -32.333 57.501 -55s18.5 -45.667 14.5 -69c-8 -46.667 -30.833 -85.167 -68.5 -115.5s-79.5 -46.166 -125.5 -47.499l-17 -99h-36l18 101c-44.667 4 -80.334 16.333 -107.001 37s-38.334 40.667 -35.001 60c0.666992 6.66699 4 12.667 10 18
s12.333 8 19 8c5.33301 0 11.333 -3.83301 18 -11.5s13 -16.334 19 -26.001s16.333 -19.334 31 -29.001s32 -15.834 52 -18.501l41 233l-43 26c-28 16.667 -49 35.5 -63 56.5s-18.333 46.5 -13 76.5c6 36.667 25.333 68.167 58 94.5s70 39.833 112 40.5l19 100h36z
M236.003 54.002c30.667 1.33301 57.833 11.333 81.5 30s38.167 43 43.5 73c3.33301 20.667 -2.66699 41 -18 61s-38.333 37.667 -69 53zM287.002 543.002c-24.667 -2 -47.333 -10.668 -68 -26.001s-33 -35 -37 -59c-4 -19.333 -0.5 -36.166 10.5 -50.499
s31.5 -30.833 61.5 -49.5z" />
    <glyph glyph-name="ampersand" unicode="&#x26;" horiz-adv-x="567" 
d="M328 75c-58 91.333 -97.334 160.667 -118.001 208c-46 -41.333 -73.667 -88.333 -83 -141c-5.33301 -30 0.833984 -57.5 18.501 -82.5s45.167 -37.5 82.5 -37.5c36.667 0 70 17.667 100 53zM361.999 129.001c5.33301 10.667 22.332 48.667 50.999 114
c20.667 42.667 50 64 88 64c26 0 44.833 -7.33301 56.5 -22s16.167 -29.334 13.5 -44.001c-4 -22 -15 -33 -33 -33c-9.33301 0 -16.166 3.5 -20.499 10.5s-6.5 14.667 -6.5 23s-1.83301 16 -5.5 23s-9.83398 10.5 -18.501 10.5c-12 0 -22.667 -5.5 -32 -16.5
s-20.666 -31.167 -33.999 -60.5l-18.999 -44s-17 -39 -23 -51c1.33301 -2 3.16602 -5 5.49902 -9s3.83301 -7 4.5 -9c26 -41.333 52.333 -62 79 -62c16.667 0 37 11.667 61 35l12 -17c-30 -38.667 -62.667 -58 -98 -58c-34.667 0 -68 22.667 -100 68
c-39.333 -45.333 -86 -68 -140 -68c-46.667 0 -84 15 -112 45s-37.333 73.333 -28 130c6.66699 33.333 21.167 62.5 43.5 87.5s51.833 49.833 88.5 74.5c-20.667 62 -27.667 113 -21 153c7.33301 42.667 27.833 77.334 61.5 104.001s68.834 40 105.501 40
c39.333 0 68.666 -11.833 87.999 -35.5s26 -52.5 20 -86.5c-6.66699 -37.333 -26.667 -68.333 -60 -93l-17 31c14.667 19.333 23.667 39.333 27 60c4.66699 24 1 43.5 -11 58.5s-28.667 22.5 -50 22.5c-25.333 0 -46.666 -8.5 -63.999 -25.5s-28 -36.833 -32 -59.5
c-8.66699 -50.667 -3.83398 -101.167 14.499 -151.5s53.5 -119.833 105.5 -208.5z" />
    <glyph glyph-name="quotesingle" unicode="'" horiz-adv-x="195" 
d="M125 568c2.66699 13.333 9.33203 24.832 19.999 34.499s22.334 14.5 35.001 14.5c13.333 0 24 -5 32 -15s10.667 -21.333 8 -34c-0.666992 -4.66699 -10 -24.667 -28 -60s-32.333 -73.666 -43 -114.999h-16c4 42 3.5 80.667 -1.5 116s-7.16699 55 -6.5 59z" />
    <glyph glyph-name="parenleft" unicode="(" horiz-adv-x="358" 
d="M289 -90l-26 -20.9971c-128 123.333 -179 258.666 -153 405.999s124.333 282.666 295 405.999l20 -21c-26 -24 -47.5 -44.833 -64.5 -62.5s-39.833 -44 -68.5 -79s-52.667 -73.167 -72 -114.5s-33 -84.333 -41 -129c-4 -22.667 -6.33301 -45.334 -7 -68.001
s0.666016 -44.167 3.99902 -64.5s7 -39 11 -56s10 -34.5 18 -52.5l20.5 -45c5.66699 -12 13.334 -25.333 23.001 -40l21 -32c4.33301 -6.66699 10.833 -15.667 19.5 -27z" />
    <glyph glyph-name="parenright" unicode=")" horiz-adv-x="358" 
d="M302 295c-26 -148.667 -124.334 -284.001 -295.001 -406.001l-20 21c26 24 47.5 44.833 64.5 62.5s39.833 44 68.5 79s52.667 73.167 72 114.5s33 84.333 41 129c4 22.667 6.33301 45.334 7 68.001s-0.666016 44.167 -3.99902 64.5s-6.83301 39 -10.5 56
s-9.66699 34.5 -18 52.5l-20.5 44.5c-5.33301 11.667 -13 25.167 -23 40.5s-17.167 26 -21.5 32l-19.5 27l27 21c127.333 -122.667 178 -258 152 -406z" />
    <glyph glyph-name="asterisk" unicode="*" horiz-adv-x="407" 
d="M243 430c-22 12.667 -48.334 22.332 -79.001 28.999s-47.667 11 -51 13c-7.33301 5.33301 -11.5 12.833 -12.5 22.5s1.83301 19.167 8.5 28.5s15.5 15.5 26.5 18.5s20.5 1.83301 28.5 -3.5c1.33301 -1.33301 10.833 -14 28.5 -38s36.834 -43 57.501 -57
c3.33301 26 2.83301 54 -1.5 84s-6.16602 47 -5.49902 51c2 10 7.33301 19 16 27s18 12 28 12c10.667 0 19.167 -4 25.5 -12s8.16602 -17 5.49902 -27c-0.666992 -4 -8.5 -21 -23.5 -51s-25.5 -58 -31.5 -84c25.333 13.333 50.833 31.833 76.5 55.5s40.167 36.5 43.5 38.5
c8.66699 5.33301 18 6.66602 28 3.99902s17.333 -8.66699 22 -18c3.33301 -9.33301 2.5 -19.166 -2.5 -29.499s-12.167 -17.833 -21.5 -22.5c-4 -2 -22.333 -6.16699 -55 -12.5s-62 -15.833 -88 -28.5c21.333 -12 47.166 -21.333 77.499 -28s47.166 -11 50.499 -13
c8 -5.33301 12.5 -13 13.5 -23s-1.83301 -19.667 -8.5 -29c-7.33301 -9.33301 -16.5 -15.333 -27.5 -18s-20.167 -1.33398 -27.5 3.99902c-2 1.33301 -11.667 14 -29 38s-36.333 43 -57 57c-3.33301 -26.667 -2.5 -55.167 2.5 -85.5s7.16699 -47.166 6.5 -50.499
c-2 -10 -7.5 -19 -16.5 -27s-18.833 -12 -29.5 -12c-10 0 -18 4 -24 12s-8 17 -6 27c0.666992 4 8.5 21 23.5 51s25.167 58.333 30.5 85c-24.667 -14 -49.667 -32.833 -75 -56.5s-40 -36.5 -44 -38.5c-9.33301 -5.33301 -19.166 -6.66602 -29.499 -3.99902
s-17.166 8.66699 -20.499 18c-4 8.66699 -3.66699 18 1 28s11.667 17.667 21 23c4 2 22.5 6.5 55.5 13.5s62.833 16.5 89.5 28.5z" />
    <glyph glyph-name="plus" unicode="+" horiz-adv-x="458" 
d="M270 252h158l-8 -44h-157l-28 -158h-44l27 158h-156l7 44h157l27 156h45z" />
    <glyph glyph-name="comma" unicode="," horiz-adv-x="250" 
d="M90 -8l-7.99902 0.00390625c-12.667 0 -22.834 4.66699 -30.501 14s-10.5 20.666 -8.5 33.999c2.66699 13.333 9.5 24.666 20.5 33.999s22.833 14 35.5 14c14.667 0 26.5 -5.33301 35.5 -16s11.5 -26.334 7.5 -47.001c-4.66699 -24.667 -17.5 -51.5 -38.5 -80.5
s-47.833 -52.5 -80.5 -70.5l-9 12c40 35.333 65.333 70.666 76 105.999z" />
    <glyph glyph-name="hyphen" unicode="-" horiz-adv-x="458" 
d="M383 191h-291l7 44h292z" />
    <glyph glyph-name="period" unicode="." horiz-adv-x="250" 
d="M138 40c-2 -12.667 -8.49902 -23.8301 -19.499 -33.4971s-23.167 -14.5 -36.5 -14.5c-12.667 0 -22.834 4.66699 -30.501 14s-10.5 20.666 -8.5 33.999c2.66699 13.333 9.5 24.666 20.5 33.999s22.833 14 35.5 14c13.333 0 23.833 -4.83301 31.5 -14.5
s10.167 -20.834 7.5 -33.501z" />
    <glyph glyph-name="slash" unicode="/" horiz-adv-x="348" 
d="M414 600l-392 -618l-33 18l393 618z" />
    <glyph glyph-name="zero" unicode="0" horiz-adv-x="528" 
d="M479 217c-10.667 -64.667 -40.0029 -119.834 -88.0029 -165.501s-99.667 -68.5 -155 -68.5s-98.666 22.833 -129.999 68.5s-41.333 100.834 -30 165.501c10.667 64 39.834 118.833 87.501 164.5s99.167 68.5 154.5 68.5s98.833 -22.833 130.5 -68.5
s41.834 -100.5 30.501 -164.5zM411.997 217c10 57.333 6.66699 104.333 -10 141s-46.667 55 -90 55c-44 0 -80.5 -18.167 -109.5 -54.5s-48.833 -83.5 -59.5 -141.5c-10 -58 -6.83301 -105.167 9.5 -141.5s46.5 -54.5 90.5 -54.5c43.333 0 79.833 18.333 109.5 55
s49.5 83.667 59.5 141z" />
    <glyph glyph-name="one" unicode="1" horiz-adv-x="354" 
d="M263 0l-220.999 -0.000976562l3 21c34 0 57 7 69 21s22.333 46 31 96l28 153c8 48 6.66699 78.333 -4 91s-35.334 18.334 -74.001 17.001l4 21l164 33l-55 -315c-8.66699 -50 -9.5 -82 -2.5 -96s27.167 -21 60.5 -21z" />
    <glyph glyph-name="two" unicode="2" horiz-adv-x="477" 
d="M47 0l4.00098 23.998l216 164c50.667 38.667 79.334 77.334 86.001 116.001c6 34 -0.5 59.833 -19.5 77.5s-43.167 26.5 -72.5 26.5c-24 0 -46.833 -8.33301 -68.5 -25s-34.834 -37.667 -39.501 -63c-3.33301 -21.333 0 -42 10 -62l-33 -31
c-32.667 25.333 -45.334 56.333 -38.001 93c6 34.667 25.833 65 59.5 91s75.167 39 124.5 39c46 0 83.667 -12.333 113 -37s40.666 -57 33.999 -97c-4.66699 -24 -16 -47.667 -34 -71s-35 -40.666 -51 -51.999l-23 -17l-159 -118h233l-49 -137h-21
c6 33.333 2.83301 54.833 -9.5 64.5s-43.166 14.5 -92.499 14.5h-170z" />
    <glyph glyph-name="three" unicode="3" horiz-adv-x="470" 
d="M232 115c-4.66699 -4 -10.4932 -10.3301 -17.4932 -18.9971s-13.5 -15.5 -19.5 -20.5s-12 -7.5 -18 -7.5s-11 2.16699 -15 6.5s-5.33301 9.5 -4 15.5c2 12 10 23 24 33l85 65c50 38.667 78.667 77.334 86 116.001c5.33301 33.333 -0.5 59 -17.5 77s-39.167 27 -66.5 27
c-28 0 -53.167 -8.83301 -75.5 -26.5s-35.833 -38.834 -40.5 -63.501c-4 -18 -0.666992 -38 10 -60l-33 -31c-32.667 25.333 -45.334 56.333 -38.001 93c6 34.667 25.833 65 59.5 91s75.167 39 124.5 39c46 0 83.667 -12.333 113 -37s40.666 -57 33.999 -97
c-2.66699 -14.667 -8.33398 -29.667 -17.001 -45s-18 -28.333 -28 -39s-19.833 -20.5 -29.5 -29.5s-17.834 -15.833 -24.501 -20.5l-10 -6l-46 -35c41.333 -10 72 -29.667 92 -59s26.333 -63.333 19 -102c-8 -45.333 -32.833 -84.5 -74.5 -117.5
s-85.834 -49.5 -132.501 -49.5c-48 0 -85.5 12.667 -112.5 38s-38.833 49.666 -35.5 72.999c3.33301 16.667 12.666 25 27.999 25c7.33301 0 13.166 -5.16699 17.499 -15.5s8.33301 -21.5 12 -33.5s13.334 -23.167 29.001 -33.5s37.5 -15.5 65.5 -15.5
c30 0 57.667 11.167 83 33.5s41.666 54.166 48.999 95.499c6 35.333 2.66699 65.166 -10 89.499s-34.667 39.5 -66 45.5z" />
    <glyph glyph-name="four" unicode="4" horiz-adv-x="506" 
d="M240 78l48 275l-208 -275h160zM303 78h30.001c32 0 54 5.33301 66 16s23.333 30.667 34 60l7 20h16l-30 -132h-130l-13 -75c-9.33301 -50 -10.833 -81.833 -4.5 -95.5s24.833 -20.5 55.5 -20.5l-3 -21h-208l3 21c31.333 0 52.666 7 63.999 21s21.333 45.667 30 95l13 75
h-210l4 19l326 431h22z" />
    <glyph glyph-name="five" unicode="5" horiz-adv-x="460" 
d="M128 186c12 13.333 28.501 23.999 49.501 31.999s41.167 12 60.5 12c51.333 0 89.333 -20 114 -60s32 -89.333 22 -148c-10.667 -57.333 -38.334 -106.5 -83.001 -147.5s-92.334 -61.5 -143.001 -61.5c-43.333 0 -77.333 13.167 -102 39.5s-35 51.5 -31 75.5
c2 14 10.667 21 26 21c8 0 14.333 -5.16699 19 -15.5s8.5 -21.5 11.5 -33.5s11.5 -23.167 25.5 -33.5s33 -15.5 57 -15.5c37.333 0 69.333 16 96 48s44.334 73 53.001 123c18.667 111.333 -8 167 -80 167c-24.667 0 -48.5 -8.16699 -71.5 -24.5
s-39.167 -41.166 -48.5 -74.499h-33l89 343h155c38.667 0 65 5.16699 79 15.5s27.333 30.5 40 60.5h16l-46 -138h-228z" />
    <glyph glyph-name="six" unicode="6" horiz-adv-x="488" 
d="M153 244c-7.33301 -38.667 -9.82812 -71.332 -7.49512 -97.999s5.66602 -48.167 9.99902 -64.5s11.166 -28.833 20.499 -37.5s17.666 -14.334 24.999 -17.001s15 -4 23 -4c37.333 0 67.666 14.5 90.999 43.5s38.666 64.167 45.999 105.5
c7.33301 40 4.33301 74.333 -9 103s-38.666 43 -75.999 43c-26.667 0 -51.834 -7.16699 -75.501 -21.5s-39.5 -31.833 -47.5 -52.5zM163.005 299.002c32 39.333 71.999 59.002 119.999 59.002c50 0 89.5 -18.333 118.5 -55s39.167 -80.667 30.5 -132
c-9.33301 -51.333 -35 -95.5 -77 -132.5s-88 -55.5 -138 -55.5c-15.333 0 -30.166 2.33301 -44.499 7s-29 13.167 -44 25.5s-26.667 29.166 -35 50.499s-14.333 48.5 -18 81.5s-0.833984 72.5 8.49902 118.5c10.667 59.333 28 115.166 52 167.499s55.333 96.5 94 132.5
s80 54 124 54c35.333 0 64.833 -8.33301 88.5 -25s33.834 -34 30.501 -52c-3.33301 -16.667 -13.333 -25 -30 -25c-6 0 -11.667 3.66699 -17 11s-10.333 15.333 -15 24s-12.5 16.667 -23.5 24s-23.833 11 -38.5 11c-82.667 0 -144.667 -96.333 -186 -289z" />
    <glyph glyph-name="seven" unicode="7" horiz-adv-x="433" 
d="M433 442l-3.99902 -28l-296 -552c-10 -18.667 -19 -32.167 -27 -40.5s-17.667 -10.5 -29 -6.5c-8 2.66699 -13 8.66699 -15 18s1.66699 23.333 11 42l306 504h-151c-38.667 0 -64.834 -5.16699 -78.501 -15.5s-26.5 -30.5 -38.5 -60.5l-8 -20h-19l79 238h19
c-6 -33.333 -3.5 -54.833 7.5 -64.5s38.833 -14.5 83.5 -14.5h160z" />
    <glyph glyph-name="eight" unicode="8" horiz-adv-x="488" 
d="M291 358c25.333 14.667 47.501 33.167 66.501 55.5s30.833 46.166 35.5 71.499c4 24.667 -0.166992 46.334 -12.5 65.001s-32.166 28 -59.499 28c-26.667 0 -49.334 -9.33301 -68.001 -28s-30.334 -39 -35.001 -61c-4.66699 -30 -0.5 -54.833 12.5 -74.5
s33.167 -38.5 60.5 -56.5zM253.001 310c-34 -20 -61.666 -42.166 -82.999 -66.499s-35.333 -56.833 -42 -97.5c-6 -32.667 -1 -61.5 15 -86.5s42.667 -37.5 80 -37.5c36.667 0 67.667 12.5 93 37.5s41 52.5 47 82.5c2.66699 16 2.16699 31.167 -1.5 45.5s-8 26.333 -13 36
s-14.333 20.667 -28 33s-23.834 21.166 -30.501 26.499s-19 14.333 -37 27zM315.002 342.001c40.667 -25.333 71.5 -52.1699 92.5 -80.5029s27.833 -63.5 20.5 -105.5c-8.66699 -50 -33.5 -91.333 -74.5 -124s-86.833 -49 -137.5 -49c-50 0 -89.833 16.333 -119.5 49
s-40.167 74 -31.5 124c8 42.667 26.333 77.334 55 104.001s64.667 49.334 108 68.001c-60 46 -85 96 -75 150c7.33301 41.333 27.666 74.833 60.999 100.5s71.333 38.5 114 38.5c42 0 75.333 -12.833 100 -38.5s33.334 -59.167 26.001 -100.5
c-8.66699 -51.333 -55 -96.666 -139 -135.999z" />
    <glyph glyph-name="nine" unicode="9" horiz-adv-x="488" 
d="M431 168c-10.667 -59.333 -27.8262 -115.333 -51.4932 -168s-54.834 -97 -93.501 -133s-80 -54 -124 -54c-35.333 0 -64.833 8.33301 -88.5 25s-33.834 34 -30.501 52c2 17.333 11.667 26 29 26c6 0 11.667 -3.66699 17 -11s10.333 -15.333 15 -24s12.5 -16.667 23.5 -24
s23.833 -11 38.5 -11c83.333 0 145.666 96 186.999 288c-33.333 -39.333 -73.333 -59 -120 -59c-50 0 -89.5 18.333 -118.5 55s-39.167 81 -30.5 133c9.33301 51.333 34.833 95.333 76.5 132s87.5 55 137.5 55c15.333 0 30.166 -2.33301 44.499 -7
s29.166 -13.167 44.499 -25.5s27.166 -29 35.499 -50s14.166 -48 17.499 -81s0.333008 -72.5 -9 -118.5zM363.008 189c7.33301 38.667 9.83008 71.3311 7.49707 97.998s-5.83301 48.167 -10.5 64.5s-11.667 28.833 -21 37.5s-17.5 14.334 -24.5 17.001s-14.5 4 -22.5 4
c-37.333 0 -67.666 -14.333 -90.999 -43s-39 -63.667 -47 -105c-6.66699 -41.333 -3.5 -76.166 9.5 -104.499s38.167 -42.5 75.5 -42.5c26.667 0 51.834 7.16699 75.501 21.5s39.834 31.833 48.501 52.5z" />
    <glyph glyph-name="colon" unicode=":" horiz-adv-x="250" 
d="M147 40c-2 -12.667 -8.66797 -23.8301 -20.001 -33.4971s-23.666 -14.5 -36.999 -14.5c-12.667 0 -22.667 4.66699 -30 14s-10 20.666 -8 33.999c2.66699 13.333 9.5 24.666 20.5 33.999s22.833 14 35.5 14s23 -4.83301 31 -14.5s10.667 -20.834 8 -33.501z
M180.999 230.004c-2.66699 -12.667 -9.66895 -23.834 -21.002 -33.501s-23.666 -14.5 -36.999 -14.5c-12.667 0 -22.667 4.83301 -30 14.5s-9.66602 20.834 -6.99902 33.501c2 13.333 8.5 24.666 19.5 33.999s22.833 14 35.5 14s23 -4.66699 31 -14s11 -20.666 9 -33.999z
" />
    <glyph glyph-name="semicolon" unicode=";" horiz-adv-x="250" 
d="M181 230c-2.66699 -12.667 -9.66895 -23.834 -21.002 -33.501s-23.666 -14.5 -36.999 -14.5c-12.667 0 -22.667 4.83301 -30 14.5s-9.66602 20.834 -6.99902 33.501c2 13.333 8.5 24.666 19.5 33.999s22.833 14 35.5 14s23 -4.66699 31 -14s11 -20.666 9 -33.999z
M97.998 -8l-8 0.00292969c-12.667 0 -22.667 4.66699 -30 14s-10 20.666 -8 33.999c2.66699 13.333 9.5 24.666 20.5 33.999s22.833 14 35.5 14c14 0 25.5 -5.33301 34.5 -16s11.5 -26.334 7.5 -47.001c-4 -24 -16.667 -50.667 -38 -80s-48 -53 -80 -71l-9 12
c38.667 34.667 63.667 70 75 106z" />
    <glyph glyph-name="less" unicode="&#x3c;" horiz-adv-x="500" 
d="M414 68l-17 -18l-291 218l367 217l12 -17l-267 -200z" />
    <glyph glyph-name="equal" unicode="=" horiz-adv-x="458" 
d="M397 266h-292l8 44h292zM375 141h-292l8 44h292z" />
    <glyph glyph-name="greater" unicode="&#x3e;" horiz-adv-x="500" 
d="M439 268l-367 -218l-13 18l269 200l-198 200l18 17z" />
    <glyph glyph-name="question" unicode="?" horiz-adv-x="492" 
d="M409 486c4 23.333 -1.99805 43.833 -17.998 61.5s-40.333 26.5 -73 26.5c-25.333 0 -48.666 -7.83301 -69.999 -23.5s-33.666 -34.167 -36.999 -55.5c-3.33301 -16 -1 -32.333 7 -49l-44 -20c-17.333 21.333 -23.333 46 -18 74
c5.33301 31.333 24.166 58.666 56.499 81.999s71.833 35 118.5 35c42 0 77.333 -12.5 106 -37.5s39.334 -57.167 32.001 -96.5c-4.66699 -27.333 -15.834 -51.166 -33.501 -71.499s-37.5 -36.333 -59.5 -48s-43.833 -22.5 -65.5 -32.5s-40.5 -21.5 -56.5 -34.5
s-25.333 -27.5 -28 -43.5c-2.66699 -15.333 0.666016 -27.5 9.99902 -36.5s22.333 -13.5 39 -13.5c19.333 0 41.666 7.33301 66.999 22v-26c-26.667 -17.333 -54 -26 -82 -26c-22 0 -40.833 7.33301 -56.5 22s-20.834 36.334 -15.501 65.001
c4.66699 24.667 18.167 47 40.5 67s45.833 35.667 70.5 47s48.167 26.666 70.5 45.999s35.5 41.333 39.5 66zM268.002 40c-2.66699 -13.333 -9.66797 -24.6641 -21.001 -33.9971s-23.333 -14 -36 -14s-22.834 4.66699 -30.501 14s-10.167 20.666 -7.5 33.999
s9.33398 24.666 20.001 33.999s22.334 14 35.001 14c13.333 0 24 -4.83301 32 -14.5s10.667 -20.834 8 -33.501z" />
    <glyph glyph-name="at" unicode="@" horiz-adv-x="708" 
d="M423 246l46 176.999c-12 16.667 -31.667 25 -59 25c-28 0 -53.5 -14.5 -76.5 -43.5s-40.5 -64.833 -52.5 -107.5c-11.333 -40 -13.5 -74 -6.5 -102s24.167 -42 51.5 -42c19.333 0 38.5 8.83301 57.5 26.5s32.167 39.834 39.5 66.501zM497 152.999
c27.333 0 57.502 21.4971 90.502 64.4971s52.167 90.833 57.5 143.5c6 69.333 -11.833 124.333 -53.5 165s-94.5 61 -158.5 61c-83.333 0 -157 -30.833 -221 -92.5s-99.667 -133.834 -107 -216.501c-6.66699 -83.333 12.333 -150 57 -200s106 -75 184 -75
c72.667 0 145 21.667 217 65l10 -19c-79.333 -53.333 -158.666 -80 -237.999 -80c-90 0 -163.667 29.333 -221 88s-82.333 131.334 -75 218.001c8.66699 96.667 50.5 179.334 125.5 248.001s160.833 103 257.5 103c80 0 144.333 -24.333 193 -73s69.667 -112 63 -190
c-6 -63.333 -31.167 -120.166 -75.5 -170.499s-88.5 -75.5 -132.5 -75.5c-18 0 -32.333 5 -43 15s-17 22 -19 36c-12 -14.667 -28.333 -27.5 -49 -38.5s-38.667 -16.5 -54 -16.5c-40.667 0 -68.834 17.667 -84.501 53s-16.834 79 -3.50098 131
c13.333 50.667 39.666 93.834 78.999 129.501s80 53.5 122 53.5c22 0 43 -5.66699 63 -17h56l-67 -250c-10 -40 -1 -60 27 -60z" />
    <glyph glyph-name="A" unicode="A" horiz-adv-x="483" 
d="M151 208l-56 -111c-14 -27.333 -17.667 -46.833 -11 -58.5s25.667 -17.5 57 -17.5l-3 -21h-185l4 21c26.667 0 46.167 5.16699 58.5 15.5s27.833 34.166 46.5 71.499l254 509h19l76 -509c6 -37.333 13 -61.166 21 -71.499s25.333 -15.5 52 -15.5l-3 -21h-213l4 21
c30.667 0 51.5 5.83301 62.5 17.5s14.167 31.167 9.5 58.5l-16 111h-177zM323 245l-35 236l-118 -236h153z" />
    <glyph glyph-name="B" unicode="B" horiz-adv-x="482" 
d="M239 37c32 0 60.832 12.667 86.499 38s41.834 56.333 48.501 93c6.66699 37.333 1.66699 68.833 -15 94.5s-41 38.5 -73 38.5h-87l-26 -148c-9.33301 -50 -10.833 -81.833 -4.5 -95.5s24.833 -20.5 55.5 -20.5h15zM244.999 563l-40 -225h62c28 0 53.5 10.833 76.5 32.5
s37.167 48.167 42.5 79.5s0.5 58 -14.5 80s-36.5 33 -64.5 33h-62zM368.999 326c28 -12.667 49.334 -33.333 64.001 -62s18.667 -60.667 12 -96c-8.66699 -47.333 -31.5 -87.166 -68.5 -119.499s-80.5 -48.5 -130.5 -48.5h-238l4 21c31.333 0 52.666 7 63.999 21
s21.333 46 30 96l57 325c8.66699 50 10 81.833 4 95.5s-24.667 20.5 -56 20.5l3 21h217c45.333 0 79.5 -14.333 102.5 -43s30.833 -64.334 23.5 -107.001c-8.66699 -48.667 -38 -90 -88 -124z" />
    <glyph glyph-name="C" unicode="C" horiz-adv-x="540" 
d="M451 11h-21.001c0 31.333 -3.33301 50.333 -10 57c-50 -56.667 -101.667 -85 -155 -85c-62.667 0 -111.167 31 -145.5 93s-43.833 136.667 -28.5 224s51.166 162 107.499 224s115.833 93 178.5 93c52.667 0 94.334 -28.333 125.001 -85c8 6.66699 18.333 25.667 31 57h20
l-39 -220h-21c2.66699 65.333 -6.66602 116.5 -27.999 153.5s-52.333 55.5 -93 55.5c-34 0 -65.833 -15 -95.5 -45s-53.167 -65.333 -70.5 -106s-30 -83 -38 -127c-6 -43.333 -8 -85.5 -6 -126.5s12.833 -76.333 32.5 -106s46.167 -44.5 79.5 -44.5
c40.667 0 78.167 18.5 112.5 55.5s61.833 87.833 82.5 152.5h21z" />
    <glyph glyph-name="D" unicode="D" horiz-adv-x="556" 
d="M8 0l4 21c31.333 0 52.666 7 63.999 21s21.333 46 30 96l57 325c8.66699 50 10 81.833 4 95.5s-24.667 20.5 -56 20.5l3 21h209c83.333 0 140.833 -28 172.5 -84s39.834 -128 24.501 -216c-14.667 -88 -48 -160 -100 -216s-119.333 -84 -202 -84h-210zM245 563
l-72.001 -410c-9.33301 -50 -11.166 -81.833 -5.49902 -95.5s23.5 -20.5 53.5 -20.5h2c118 0 192 87.667 222 263c31.333 175.333 -11.667 263 -129 263h-71z" />
    <glyph glyph-name="E" unicode="E" horiz-adv-x="448" 
d="M8 0l4.00098 21.002c31.333 0 52.666 7 63.999 21s21.333 46 30 96l57 325c8.66699 50 10 81.833 4 95.5s-24.667 20.5 -56 20.5l3 21h348l-17 -132h-16v20c-0.666992 29.333 -5.16699 49.166 -13.5 59.499s-28.5 15.5 -60.5 15.5h-110l-40 -227h37
c38 0 63.167 5.5 75.5 16.5s21.833 37.5 28.5 79.5h16l-40 -229h-16c7.33301 41.333 6.83301 67.666 -1.5 78.999s-31.5 17 -69.5 17h-37l-25 -146c-9.33301 -50 -10.833 -81.833 -4.5 -95.5s24.833 -20.5 55.5 -20.5h64c32 0 54 5.33301 66 16s23.333 30.667 34 60l7 20h16
l-30 -133h-373z" />
    <glyph glyph-name="F" unicode="F" horiz-adv-x="412" 
d="M245 563l-39.999 -226.998h37c38 0 63.167 5.5 75.5 16.5s21.833 37.5 28.5 79.5h16l-40 -229h-16c7.33301 41.333 6.83301 67.666 -1.5 78.999s-31.5 17 -69.5 17h-37l-28 -161c-8.66699 -50 -10 -82 -4 -96s24.667 -21 56 -21l-4 -21h-210l4 21
c31.333 0 52.666 7 63.999 21s21.333 46 30 96l57 325c8.66699 50 10 81.833 4 95.5s-24.667 20.5 -56 20.5l3 21h360l-16 -132h-16v20c-0.666992 29.333 -5.16699 49.166 -13.5 59.499s-28.5 15.5 -60.5 15.5h-123z" />
    <glyph glyph-name="G" unicode="G" horiz-adv-x="565" 
d="M265 -17c-62.667 0 -111.167 31 -145.5 93s-43.833 136.667 -28.5 224s51.166 162 107.499 224s115.833 93 178.5 93c52.667 0 94.334 -28.333 125.001 -85c8 6.66699 18.333 25.667 31 57h20l-39 -220h-21c2.66699 65.333 -6.66602 116.5 -27.999 153.5
s-52.333 55.5 -93 55.5c-34 0 -66 -14.833 -96 -44.5s-53.833 -65 -71.5 -106s-30.5 -83.5 -38.5 -127.5c-6 -43.333 -7.83301 -85.5 -5.5 -126.5s14.166 -76.333 35.499 -106s50.333 -44.5 87 -44.5c38 0 70.5 11.833 97.5 35.5s44.167 56.834 51.5 99.501
c4 23.333 1.66699 40.833 -7 52.5s-26.667 17.5 -54 17.5l4 20h205l-4 -20c-31.333 0 -52.333 -6.83301 -63 -20.5s-20.667 -45.834 -30 -96.501l-14 -76c-20.667 0 -50.167 -8.66699 -88.5 -26s-76.833 -26 -115.5 -26z" />
    <glyph glyph-name="H" unicode="H" horiz-adv-x="595" 
d="M198 300l-28 -162c-8.66699 -50 -10 -82 -4 -96s24.667 -21 56 -21l-4 -21h-210l4 21c31.333 0 52.666 7 63.999 21s21.333 46 30 96l57 325c8.66699 50 10 81.833 4 95.5s-24.667 20.5 -56 20.5l3 21h210l-3 -21c-31.333 0 -52.5 -6.83301 -63.5 -20.5
s-20.833 -45.5 -29.5 -95.5l-23 -126h253l23 126c8.66699 50 9.83398 81.833 3.50098 95.5s-25.166 20.5 -56.499 20.5l4 21h210l-4 -21c-31.333 0 -52.5 -6.83301 -63.5 -20.5s-20.833 -45.5 -29.5 -95.5l-57 -325c-9.33301 -50 -10.833 -82 -4.5 -96s24.833 -21 55.5 -21
l-3 -21h-210l3 21c31.333 0 52.666 7 63.999 21s21.333 46 30 96l29 162h-254z" />
    <glyph glyph-name="I" unicode="I" horiz-adv-x="277" 
d="M218 0h-209.999l4 21c31.333 0 52.666 7 63.999 21s21.333 46 30 96l57 325c8.66699 50 10 81.833 4 95.5s-24.667 20.5 -56 20.5l3 21h210l-3 -21c-31.333 0 -52.5 -6.83301 -63.5 -20.5s-20.833 -45.5 -29.5 -95.5l-58 -325c-8.66699 -50 -10 -82 -4 -96
s24.667 -21 56 -21z" />
    <glyph glyph-name="J" unicode="J" horiz-adv-x="276" 
d="M163 463c8.66699 50 10.0029 81.833 4.00293 95.5s-24.667 20.5 -56 20.5l3 21h210l-3 -21c-31.333 0 -52.5 -6.83301 -63.5 -20.5s-20.833 -45.5 -29.5 -95.5l-91 -517c-10 -56 -29 -98.167 -57 -126.5s-60 -42.5 -96 -42.5c-30.667 0 -54.167 8.16699 -70.5 24.5
s-23.166 32.833 -20.499 49.5c4.66699 17.333 15.667 26 33 26c10 0 17.167 -3.66699 21.5 -11s6.66602 -15.333 6.99902 -24s3.66602 -16.667 9.99902 -24s16.166 -11 29.499 -11c18.667 0 34.167 9.83301 46.5 29.5s23.166 56.167 32.499 109.5z" />
    <glyph glyph-name="K" unicode="K" horiz-adv-x="525" 
d="M255 330c13.333 4 25.6699 6 37.0029 6c12.667 0 23.834 -1.83301 33.501 -5.5s18.167 -10.667 25.5 -21s13.333 -19.333 18 -27s9.16699 -20.5 13.5 -38.5s7.33301 -31.5 9 -40.5l8.5 -47.5c2 -10 3.33301 -17.667 4 -23l13 -69c4 -27.333 11.667 -41 23 -41
c12 0 25.333 7.33301 40 22v-23c-23.333 -23.333 -45.333 -35 -66 -35c-17.333 0 -32.5 6.66699 -45.5 20s-20.167 30 -21.5 50l-6 68c-2.66699 29.333 -5.16699 52.333 -7.5 69s-6 34.334 -11 53.001s-12 32.167 -21 40.5s-20.167 12.5 -33.5 12.5
c-30.667 0 -57.334 -20.667 -80.001 -62l-18 -100c-8.66699 -50 -10 -82 -4 -96s24.667 -21 56 -21l-4 -21h-210l4 21c31.333 0 52.666 7 63.999 21s21.333 46 30 96l57 325c8.66699 50 10 81.833 4 95.5s-24.667 20.5 -56 20.5l3 21h210l-3 -21
c-31.333 0 -52.5 -6.83301 -63.5 -20.5s-20.833 -45.5 -29.5 -95.5l-29 -162l87 114c56 73.333 99.5 122.166 130.5 146.499s61.5 36.5 91.5 36.5c20 0 35.667 -6.83301 47 -20.5s15.666 -28.167 12.999 -43.5c-5.33301 -20.667 -15.666 -31 -30.999 -31
c-12.667 0 -20.834 8.16699 -24.501 24.5s-11.834 24.5 -24.501 24.5c-20 0 -43.833 -12.333 -71.5 -37s-64.167 -65 -109.5 -121z" />
    <glyph glyph-name="L" unicode="L" horiz-adv-x="440" 
d="M8 0l4.00098 21c31.333 0 52.666 7 63.999 21s21.333 46 30 96l57 325c8.66699 50 10 81.833 4 95.5s-24.667 20.5 -56 20.5l3 21h210l-3 -21c-31.333 0 -52.5 -6.83301 -63.5 -20.5s-20.833 -45.5 -29.5 -95.5l-55 -310c-9.33301 -50 -10.833 -81.833 -4.5 -95.5
s24.833 -20.5 55.5 -20.5h89c32 0 54 5.33301 66 16s23.333 30.667 34 60l7 20h16l-30 -133h-398z" />
    <glyph glyph-name="M" unicode="M" horiz-adv-x="690" 
d="M636 0l-208.995 0.000976562l3 21c30.667 0 53 9.33301 67 28s22.667 48.334 26 89.001l37 342l-250 -497h-10l-74 513l-88 -358c-10.667 -40.667 -12.334 -70.334 -5.00098 -89.001s26 -28 56 -28l-3 -21h-183l4 21c28.667 0 48.667 8.16699 60 24.5
s22.666 47.166 33.999 92.499l82 325c11.333 43.333 13.166 73.5 5.49902 90.5s-26.834 25.5 -57.501 25.5l3 21h142l70 -476l238 476h133l-4 -21c-30.667 0 -52.834 -8.66699 -66.501 -26s-22.5 -47.333 -26.5 -90l-32 -325c-6.66699 -40 -7 -69.5 -1 -88.5
s23.333 -28.5 52 -28.5z" />
    <glyph glyph-name="N" unicode="N" horiz-adv-x="612" 
d="M498 426c12.667 74 28.667 124.334 48 151.001s44.333 40 75 40c20 0 35.167 -6.33301 45.5 -19s14.166 -26.334 11.499 -41.001c-3.33301 -19.333 -13.333 -29 -30 -29c-12 0 -19.333 8.16699 -22 24.5s-10.334 24.5 -23.001 24.5c-16.667 0 -30 -13.333 -40 -40
s-19.333 -63 -28 -109l-79 -445h-18l-215 507l-55 -316c-13.333 -73.333 -29.833 -123.5 -49.5 -150.5s-44.834 -40.5 -75.501 -40.5c-20 0 -35 6.5 -45 19.5s-13.667 26.5 -11 40.5c3.33301 19.333 13.333 29 30 29c8 0 13.667 -2.5 17 -7.5s5 -10.667 5 -17
s1.83301 -12 5.5 -17s9.83398 -7.5 18.501 -7.5c28 0 50.333 49.667 67 149l52 291c8.66699 50 9.83398 81.833 3.50098 95.5s-25.166 20.5 -56.499 20.5l4 21h119l196 -460z" />
    <glyph glyph-name="O" unicode="O" horiz-adv-x="628" 
d="M591 300c-15.333 -87.333 -53 -162 -113 -224s-124.333 -93 -193 -93s-122 31 -160 93s-49.333 136.667 -34 224s53 162 113 224s124.333 93 193 93s122 -31.167 160 -93.5s49.333 -136.833 34 -223.5zM513 300c7.33301 30.667 9.99902 62.5 7.99902 95.5
s-6.83301 63 -14.5 90s-21.667 49.167 -42 66.5s-45.166 26 -74.499 26c-38.667 0 -74.167 -15 -106.5 -45s-57.666 -65.167 -75.999 -105.5s-31.5 -82.833 -39.5 -127.5c-6.66699 -30.667 -9 -62.5 -7 -95.5s7 -62.833 15 -89.5s22.167 -48.667 42.5 -66
s45.166 -26 74.499 -26c38.667 0 74.167 14.833 106.5 44.5s57.5 64.667 75.5 105s30.667 82.833 38 127.5z" />
    <glyph glyph-name="P" unicode="P" horiz-adv-x="426" 
d="M310 600c50.667 0 88.6699 -16.167 114.003 -48.5s33.666 -72.5 24.999 -120.5c-8 -48 -30.333 -88 -67 -120s-80.334 -48 -131.001 -48h-58l-23 -125c-8.66699 -50 -10 -82 -4 -96s24.667 -21 56 -21l-4 -21h-210l4 21c31.333 0 52.666 7 63.999 21s21.333 46 30 96
l57 325c8.66699 50 10 81.833 4 95.5s-24.667 20.5 -56 20.5l3 21h196zM243.003 299c32 0 61 12.8311 87 38.498s42 56.834 48 93.501c6.66699 36.667 1.66699 67.834 -15 93.501s-41 38.5 -73 38.5h-45l-47 -264h45z" />
    <glyph glyph-name="Q" unicode="Q" horiz-adv-x="628" 
d="M307 -16c-51.333 -6.66699 -99.668 -25.666 -145.001 -56.999c42.667 10.667 77.334 14.334 104.001 11.001s52.167 -11.333 76.5 -24s45 -26 62 -40s37 -26.5 60 -37.5s46.167 -16.5 69.5 -16.5c77.333 0 138.666 34.333 183.999 103l14 -6
c-20.667 -40.667 -50.834 -77 -90.501 -109s-85.167 -48 -136.5 -48c-27.333 0 -55 7.66699 -83 23s-51.833 32.166 -71.5 50.499s-41.5 35.166 -65.5 50.499s-46.333 23 -67 23s-38.5 -3.16699 -53.5 -9.5s-25.5 -13.333 -31.5 -21s-12.5 -15 -19.5 -22
s-14.167 -10.833 -21.5 -11.5c-9.33301 -1.33301 -16.666 1 -21.999 7s-7.33301 14 -6 24c3.33301 16.667 21.333 37.167 54 61.5s71 42.833 115 55.5c-54.667 17.333 -95.167 54.5 -121.5 111.5s-33.166 122.833 -20.499 197.5c15.333 87.333 53 162 113 224
s124.333 93 193 93s122 -31.167 160 -93.5s49.333 -136.833 34 -223.5c-14.667 -84 -49.5 -155.667 -104.5 -215s-114.833 -93 -179.5 -101zM513.998 300.001c7.33301 30.667 9.99805 62.5 7.99805 95.5s-7 63 -15 90s-22.167 49.167 -42.5 66.5s-45.166 26 -74.499 26
c-38.667 0 -74.167 -15 -106.5 -45s-57.666 -65.167 -75.999 -105.5s-31.5 -82.833 -39.5 -127.5c-6.66699 -30.667 -9 -62.5 -7 -95.5s7 -62.833 15 -89.5s22.167 -48.667 42.5 -66s45.166 -26 74.499 -26c38.667 0 74.334 14.833 107.001 44.5s58 64.667 76 105
s30.667 82.833 38 127.5z" />
    <glyph glyph-name="R" unicode="R" horiz-adv-x="472" 
d="M243 299c32 0 61 12.8311 87 38.498s42 56.834 48 93.501c6.66699 36.667 1.66699 67.834 -15 93.501s-41 38.5 -73 38.5h-45l-47 -264h45zM227 262.998h-33.999l-23 -125c-8.66699 -50 -10 -82 -4 -96s24.667 -21 56 -21l-4 -21h-210l4 21c31.333 0 52.666 7 63.999 21
s21.333 46 30 96l57 325c8.66699 50 10 81.833 4 95.5s-24.667 20.5 -56 20.5l3 21h196c50.667 0 88.667 -16.167 114 -48.5s33.666 -72.5 24.999 -120.5c-6.66699 -39.333 -23.5 -74 -50.5 -104s-59.167 -49.667 -96.5 -59c28.667 -20.667 47.334 -55 56.001 -103l17 -101
c4.66699 -27.333 12.334 -41 23.001 -41c12 0 25.333 7.33301 40 22v-23c-8.66699 -9.33301 -20.667 -17.5 -36 -24.5s-28.666 -10.5 -39.999 -10.5c-18.667 0 -33.834 5.66699 -45.501 17s-17.834 29 -18.501 53l-5 101c-6 70 -28 105 -66 105z" />
    <glyph glyph-name="S" unicode="S" horiz-adv-x="417" 
d="M79 35c-17.333 -15.333 -29.332 -32.665 -35.999 -51.998h-20l39 220h21c-6 -52 1.16699 -95 21.5 -129s54.5 -51 102.5 -51c23.333 0 46 9.16699 68 27.5s36 43.833 42 76.5c4 25.333 0 48.5 -12 69.5s-35 44.5 -69 70.5l-57 42c-51.333 39.333 -71.333 92 -60 158
c7.33301 42 26 77.5 56 106.5s64.333 43.5 103 43.5c36 0 66.333 -13.667 91 -41c14 12.667 24.333 28 31 46h20l-39 -220h-21c13.333 116.667 -14.667 175 -84 175c-23.333 0 -44.833 -8.66699 -64.5 -26s-31.834 -38.333 -36.501 -63
c-7.33301 -44.667 13.667 -84.667 63 -120l62 -44c62 -45.333 86.667 -101 74 -167c-9.33301 -52.667 -31.5 -94.834 -66.5 -126.501s-73.833 -47.5 -116.5 -47.5c-8.66699 0 -16.834 0.666992 -24.501 2s-15 3.33301 -22 6s-12.833 5.16699 -17.5 7.5
s-10 5.66602 -16 9.99902l-12.5 9c-2.33301 1.66699 -6.16602 5.16699 -11.499 10.5z" />
    <glyph glyph-name="T" unicode="T" horiz-adv-x="453" 
d="M209 562c-42.667 0 -71.667 -5.16699 -87 -15.5s-29.333 -30.5 -42 -60.5h-22l40 114h303c43.333 0 72.666 5.16699 87.999 15.5s29 30.5 41 60.5h23l-40 -114h-181l-75 -424c-9.33301 -50 -10.833 -82 -4.5 -96s24.833 -21 55.5 -21l-3 -21h-210l3 21
c31.333 0 52.833 7 64.5 21s21.834 46 30.501 96l75 424h-59z" />
    <glyph glyph-name="U" unicode="U" horiz-adv-x="583" 
d="M628 579c-31.333 0 -52.6689 -6.83301 -64.002 -20.5s-21.333 -45.5 -30 -95.5l-42 -240c-13.333 -75.333 -41.666 -134.166 -84.999 -176.499s-91.333 -63.5 -144 -63.5s-92.834 21.167 -120.501 63.5s-34.834 101.166 -21.501 176.499l42 240
c9.33301 50 10.833 81.833 4.5 95.5s-24.833 20.5 -55.5 20.5l3 21h209l-3 -21c-31.333 0 -52.5 -6.83301 -63.5 -20.5s-20.833 -45.5 -29.5 -95.5l-44 -245c-10.667 -62.667 -6.66699 -110 12 -142s48.667 -48 90 -48c38.667 0 72.834 16 102.501 48
s49.834 79.333 60.501 142l44 245c8.66699 50 9.83398 81.833 3.50098 95.5s-24.833 20.5 -55.5 20.5l3 21h187z" />
    <glyph glyph-name="V" unicode="V" horiz-adv-x="483" 
d="M583 579c-27.333 0 -47.167 -5.16699 -59.5 -15.5s-27.5 -34.166 -45.5 -71.499l-255 -509h-20l-75 509c-5.33301 37.333 -12 61.166 -20 71.499s-25.667 15.5 -53 15.5l3 21h213l-3 -21c-31.333 0 -52.333 -5.83301 -63 -17.5s-14.334 -31.167 -11.001 -58.5l58 -384
l191 384c14 27.333 17.833 46.833 11.5 58.5s-25.166 17.5 -56.499 17.5l4 21h184z" />
    <glyph glyph-name="W" unicode="W" horiz-adv-x="671" 
d="M454 600l45.999 -462l164 365c13.333 28.667 16.833 48.5 10.5 59.5s-24.833 16.5 -55.5 16.5l4 21h184l-4 -21c-27.333 0 -47.5 -5.33301 -60.5 -16s-27.833 -34.334 -44.5 -71.001l-230 -509h-19l-45 459l-206 -459h-20l-50 509
c-3.33301 36.667 -9.33301 60.334 -18 71.001s-27 16 -55 16l3 21h214l-4 -21c-30.667 0 -51.167 -5.83301 -61.5 -17.5s-14.166 -31.167 -11.499 -58.5l36 -363l206 460h17z" />
    <glyph glyph-name="X" unicode="X" horiz-adv-x="482" 
d="M253 260l-124.998 -162.999c-17.333 -19.333 -24.5 -36.833 -21.5 -52.5s18.833 -23.5 47.5 -23.5l-3 -21h-184l4 21c24 0 45.5 7.66699 64.5 23s38.833 36.666 59.5 63.999l145 190l-65 194c-10 28.667 -21.833 50.334 -35.5 65.001s-32.5 22 -56.5 22l3 21h212l-3 -21
c-29.333 0 -48 -6.5 -56 -19.5s-7.33301 -31.833 2 -56.5l48 -140l108 140c39.333 50.667 30.666 76 -26.001 76l3 21h184l-4 -21c-26 0 -46.833 -6 -62.5 -18s-33.834 -31.667 -54.501 -59c-2.66699 -4.66699 -5 -8 -7 -10l-127 -168l72 -216
c11.333 -30.667 23.5 -52.834 36.5 -66.501s31.833 -20.5 56.5 -20.5l-4 -21h-213l3 21c30 0 49 6.5 57 19.5s7 31.833 -3 56.5z" />
    <glyph glyph-name="Y" unicode="Y" horiz-adv-x="467" 
d="M267 192l-10 -54c-9.33301 -50 -10.833 -82 -4.5 -96s24.833 -21 55.5 -21l-3 -21h-212l4 21c31.333 0 52.666 7 63.999 21s21.333 46 30 96l9 50c17.333 94 23.5 169.667 18.5 227s-14.667 98.333 -29 123s-31.833 37 -52.5 37c-15.333 0 -31.666 -7.66699 -48.999 -23
v23c22.667 23.333 48.334 35 77.001 35c39.333 0 67.666 -22.333 84.999 -67s24.333 -120.667 21 -228c34 94.667 67.833 167.334 101.5 218.001s69.834 76 108.501 76c20 0 35.167 -6.33301 45.5 -19s14.166 -26.334 11.499 -41.001c-4 -18.667 -14 -28 -30 -28
c-8 0 -14 2.5 -18 7.5s-6.33301 10.5 -7 16.5s-3 11.5 -7 16.5s-10 7.5 -18 7.5c-28.667 0 -64.5 -44.333 -107.5 -133s-70.833 -170 -83.5 -244z" />
    <glyph glyph-name="Z" unicode="Z" horiz-adv-x="432" 
d="M577 -35c-57.333 -84.667 -115.329 -127 -173.996 -127c-22.667 0 -43.334 8.33301 -62.001 25s-34.167 37 -46.5 61l-35.5 71.5c-11.333 23.667 -24.333 43.834 -39 60.501s-30.334 25 -47.001 25c-22 0 -41 -4.66699 -57 -14s-27.667 -19.833 -35 -31.5
s-15 -22.834 -23 -33.501s-15.333 -16.667 -22 -18c-8 -1.33301 -14.167 1.83398 -18.5 9.50098s-5.5 17.5 -3.5 29.5c6.66699 36 58.167 109.667 154.5 221s178.166 196.666 245.499 255.999c-24 -8.66699 -45.333 -13 -64 -13c-24 0 -51 10.333 -81 31s-56 31 -78 31
c-4 0 -8.16699 -0.5 -12.5 -1.5s-9 -2.83301 -14 -5.5s-9.16699 -5.16699 -12.5 -7.5s-7.5 -5.83301 -12.5 -10.5s-8.66699 -8 -11 -10s-6.33301 -5.66699 -12 -11l-10.5 -10l-9 5c14.667 31.333 32.334 57.666 53.001 78.999s42.334 32 65.001 32s44.667 -7.16699 66 -21.5
s41 -28.5 59 -42.5s34.667 -21 50 -21c18 0 33.167 7 45.5 21s22.166 28.167 29.499 42.5s13.666 21.5 18.999 21.5c14 0 19 -9.66699 15 -29c-4 -22 -30 -58.333 -78 -109c-55.333 -55.333 -110.5 -116.833 -165.5 -184.5s-96.5 -125.5 -124.5 -173.5
c14 3.33301 29.667 5 47 5c29.333 0 54.666 -7.16699 75.999 -21.5s38 -31.666 50 -51.999s23.333 -40.833 34 -61.5s24 -38.167 40 -52.5s35 -21.5 57 -21.5c35.333 0 78.333 22.333 129 67z" />
    <glyph glyph-name="bracketleft" unicode="[" horiz-adv-x="358" 
d="M278 -88h-202l135 766h202l-5 -32h-137l-124 -702h137z" />
    <glyph glyph-name="backslash" unicode="\" horiz-adv-x="348" 
d="M358 0l-40 -18l-274 618l39 18z" />
    <glyph glyph-name="bracketright" unicode="]" horiz-adv-x="358" 
d="M201 -88h-203l6 32h138l124 702h-138l5 32h203z" />
    <glyph glyph-name="asciicircum" unicode="^" horiz-adv-x="485" 
d="M326 617l152 -279l-21 -15l-150 182l-216 -182l-15 15z" />
    <glyph glyph-name="underscore" unicode="_" horiz-adv-x="358" 
d="M327 -44h-360l7 44h360z" />
    <glyph glyph-name="grave" unicode="`" horiz-adv-x="404" 
d="M247 489l-6 -6l-128 58c-14 8 -19.667 18 -17 30c1.33301 6.66699 5 13.167 11 19.5s13.333 9.5 22 9.5c12.667 0 26 -7.66699 40 -23z" />
    <glyph glyph-name="a" unicode="a" horiz-adv-x="380" 
d="M249 116l31.001 176.999c-16.667 16.667 -37.334 25 -62.001 25c-28 0 -52.333 -14.5 -73 -43.5s-34.667 -64.833 -42 -107.5c-8 -42 -7.33301 -76.5 2 -103.5s27.666 -40.5 54.999 -40.5c19.333 0 37.833 8.83301 55.5 26.5s28.834 39.834 33.501 66.501z
M237.001 32.999c-12.667 -14.667 -27.833 -26.668 -45.5 -36.001s-34.167 -14 -49.5 -14c-40.667 0 -70.334 17.667 -89.001 53s-23.667 79 -15 131c9.33301 50.667 32 93.834 68 129.501s75 53.5 117 53.5c22.667 0 44.334 -5.66699 65.001 -17h55l-47 -269
c-4.66699 -27.333 -1 -41 11 -41c10 0 23.333 7.33301 40 22v-23c-23.333 -23.333 -45.333 -35 -66 -35c-27.333 0 -42 15.333 -44 46z" />
    <glyph glyph-name="b" unicode="b" horiz-adv-x="368" 
d="M274 167c7.33301 42.667 6.50098 77.167 -2.49902 103.5s-26.833 39.5 -53.5 39.5c-19.333 0 -38 -8.83301 -56 -26.5s-29.333 -39.5 -34 -65.5l-17 -102c-5.33301 -30.667 -2.5 -54.334 8.5 -71.001s25.5 -25 43.5 -25c28 0 51.667 13.833 71 41.5
s32.666 62.834 39.999 105.501zM144.001 305c30 30 60.334 44.999 91.001 44.999c41.333 0 71.333 -17.5 90 -52.5s23 -78.5 13 -130.5c-8.66699 -50.667 -31 -94 -67 -130s-75.333 -54 -118 -54c-26.667 0 -48.334 7.83301 -65.001 23.5s-27.334 32.834 -32.001 51.501
s-5.33398 37 -2.00098 55l60 341c8.66699 50 10.834 82 6.50098 96s-19.166 21 -44.499 21l3 21l119 25z" />
    <glyph glyph-name="c" unicode="c" horiz-adv-x="292" 
d="M263 49c-38.667 -44 -80.3311 -66.002 -124.998 -66.002c-40 0 -69.167 16.333 -87.5 49s-22.833 74.667 -13.5 126c10 56 32 102 66 138s67.333 54 100 54c29.333 0 50.5 -7.16699 63.5 -21.5s18.167 -29.166 15.5 -44.499c-4 -22 -15 -33 -33 -33
c-9.33301 0 -16 3.5 -20 10.5s-6 14.667 -6 23s-2 16 -6 23s-10.333 10.5 -19 10.5c-18.667 0 -38.334 -14.167 -59.001 -42.5s-35.334 -67.5 -44.001 -117.5c-7.33301 -41.333 -5 -74.166 7 -98.499s33 -36.5 63 -36.5c28.667 0 58 15.333 88 46z" />
    <glyph glyph-name="d" unicode="d" horiz-adv-x="380" 
d="M249 116l31.001 176.999c-16.667 16.667 -37.334 25 -62.001 25c-28 0 -52.333 -14.5 -73 -43.5s-34.667 -64.833 -42 -107.5c-8 -42 -7.33301 -76.5 2 -103.5s27.666 -40.5 54.999 -40.5c19.333 0 37.833 8.83301 55.5 26.5s28.834 39.834 33.501 66.501z
M308.001 453.999c8.66699 50 10.833 81.999 6.5 95.999s-19.166 21 -44.499 21l3 21l120 25l-97 -553c-4.66699 -27.333 -1 -41 11 -41c10 0 23.333 7.33301 40 22v-23c-23.333 -23.333 -45.333 -35 -66 -35c-27.333 0 -42 15.333 -44 46
c-12.667 -14.667 -27.834 -26.667 -45.501 -36s-34.167 -14 -49.5 -14c-40.667 0 -70.334 17.667 -89.001 53s-23.667 79 -15 131c9.33301 50.667 32 93.834 68 129.501s75 53.5 117 53.5c22.667 0 44.334 -5.66699 65.001 -17z" />
    <glyph glyph-name="e" unicode="e" horiz-adv-x="313" 
d="M94 150c40.667 10 72.832 25.667 96.499 47s37.834 43.333 42.501 66c2 14 0.5 25.333 -4.5 34s-13.5 13 -25.5 13c-23.333 0 -44.833 -13 -64.5 -39s-33.5 -61 -41.5 -105c-0.666992 -4 -1.66699 -9.33301 -3 -16zM91.998 123
c-0.666992 -31.333 5.66797 -55.834 19.001 -73.501s33.333 -26.5 60 -26.5c28.667 0 59 15.333 91 46l9 -20c-17.333 -19.333 -37.5 -35.166 -60.5 -47.499s-44.833 -18.5 -65.5 -18.5c-40.667 0 -70.834 17.833 -90.501 53.5s-25.167 79.167 -16.5 130.5
c10 51.333 32.167 94.666 66.5 129.999s69.5 53 105.5 53c26 0 45.833 -8.33301 59.5 -25s18.167 -37 13.5 -61c-5.33301 -29.333 -24 -57.166 -56 -83.499s-77 -45.5 -135 -57.5z" />
    <glyph glyph-name="f" unicode="f" horiz-adv-x="224" 
d="M108 298h-64.999l7 35h65l17 99c10 56 30.833 100.833 62.5 134.5s64.167 50.5 97.5 50.5c28.667 0 50.667 -8 66 -24s21.666 -32.667 18.999 -50c-3.33301 -16.667 -13.666 -25 -30.999 -25c-9.33301 0 -16 3.66699 -20 11s-6.16699 15.333 -6.5 24
s-3.33301 16.667 -9 24s-14.834 11 -27.501 11c-18 0 -36 -13 -54 -39s-31.667 -65 -41 -117l-17 -99h80l-7 -35h-80l-71 -405c-18.667 -106.667 -62.334 -160 -131.001 -160c-27.333 0 -48 7.66699 -62 23s-19.333 31.333 -16 48c3.33301 18.667 14.333 28 33 28
c9.33301 0 15.666 -3.66699 18.999 -11s4.83301 -15.333 4.5 -24s1.83398 -16.667 6.50098 -24s13 -11 25 -11c15.333 0 27.833 9.83301 37.5 29.5s18.834 53.5 27.501 101.5z" />
    <glyph glyph-name="g" unicode="g" horiz-adv-x="313" 
d="M212 214c6 30.667 5.66992 55.667 -0.99707 75s-19.334 29 -38.001 29c-19.333 0 -35.5 -9.5 -48.5 -28.5s-22.5 -44.167 -28.5 -75.5c-5.33301 -30.667 -4.83301 -55.667 1.5 -75s19.166 -29 38.499 -29c18.667 0 34.667 9.66699 48 29s22.666 44.333 27.999 75z
M239.003 323c22.667 18 44.6641 26.998 65.9971 26.998c16 0 27.833 -4.66699 35.5 -14s10.5 -19.666 8.5 -30.999c-1.33301 -7.33301 -4.83301 -14.166 -10.5 -20.499s-12.167 -9.5 -19.5 -9.5c-8.66699 0 -14.834 2.16699 -18.501 6.5s-5.33398 8.83301 -5.00098 13.5
s-1.16699 9.16699 -4.5 13.5s-9 6.5 -17 6.5c-6.66699 0 -14 -2.66699 -22 -8c16 -26 20.667 -57 14 -93s-23.167 -67.667 -49.5 -95s-54.833 -41 -85.5 -41c-18.667 0 -37.5 -4.83301 -56.5 -14.5s-29.833 -20.834 -32.5 -33.501c-2 -12.667 5.33301 -22.167 22 -28.5
s35.667 -10.166 57 -11.499c58.667 -5.33301 99.667 -20 123 -44s32.333 -52 27 -84c-6.66699 -38.667 -28.167 -69.667 -64.5 -93s-78.166 -35 -125.499 -35c-50 0 -88.667 10 -116 30s-38.333 43.667 -33 71c6 32 31.667 58.667 77 80l16 -11
c-27.333 -24 -42.666 -45.667 -45.999 -65c-4 -22 5.5 -39.5 28.5 -52.5s49.5 -19.5 79.5 -19.5c30.667 0 59.167 7.16699 85.5 21.5s41.5 32.833 45.5 55.5c4 24 -3.5 42 -22.5 54s-49.5 20.333 -91.5 25c-41.333 4.66699 -72.666 14.5 -93.999 29.5
s-29.666 35.833 -24.999 62.5c3.33301 18 13.666 34.333 30.999 49s38 25.334 62 32.001c-33.333 25.333 -45.333 64.666 -36 117.999c6.66699 37.333 23.334 69.333 50.001 96s55.334 40 86.001 40c24.667 0 45 -9 61 -27z" />
    <glyph glyph-name="h" unicode="h" horiz-adv-x="385" 
d="M114 454c8.66699 50 10.834 82 6.50098 96s-19.166 21 -44.499 21l3 21l119 25l-60 -349c32.667 54.667 71 82 115 82c32.667 0 54.667 -13.667 66 -41s13 -63.333 5 -108l-23 -137c-4.66699 -27.333 -1 -41 11 -41c10 0 23.333 7.33301 40 22v-23
c-23.333 -23.333 -45.333 -35 -66 -35c-16.667 0 -28.834 6.5 -36.501 19.5s-9.83398 29.833 -6.50098 50.5l25 139c6.66699 32.667 6.83398 58.667 0.500977 78s-20.833 29 -43.5 29c-18.667 0 -39.334 -13.833 -62.001 -41.5s-38 -65.167 -46 -112.5l-27 -149h-56z" />
    <glyph glyph-name="i" unicode="i" horiz-adv-x="206" 
d="M118 64c-6 -27.333 -2.66699 -40.999 10 -40.999c12 0 25.333 7.33301 40 22v-23c-23.333 -23.333 -45 -35 -65 -35c-17.333 0 -29.666 6.5 -36.999 19.5s-9.33301 29.833 -6 50.5l38 212c4.66699 28 1 42 -11 42c-5.33301 0 -12.333 -2.66699 -21 -8
s-15 -10.333 -19 -15v24c21.333 22.667 43 34 65 34c17.333 0 29.666 -6.33301 36.999 -19s9.33301 -29.334 6 -50.001zM200 493.001c-1.33301 -10 -6.16602 -18.333 -14.499 -25s-17.5 -10 -27.5 -10c-9.33301 0 -16.833 3.33301 -22.5 10s-7.83398 15 -6.50098 25
c2 9.33301 7.16699 17.5 15.5 24.5s17.166 10.5 26.499 10.5s16.833 -3.5 22.5 -10.5s7.83398 -15.167 6.50098 -24.5z" />
    <glyph glyph-name="j" unicode="j" horiz-adv-x="195" 
d="M88 -98c-9.33301 -56.667 -26.668 -98.999 -52.001 -126.999s-54.666 -42 -87.999 -42c-28.667 0 -50.667 8 -66 24s-21.666 32.667 -18.999 50c3.33301 16.667 13.666 25 30.999 25c9.33301 0 16 -3.66699 20 -11s6.16699 -15.333 6.5 -24s3.33301 -16.667 9 -24
s14.834 -11 27.501 -11c17.333 0 32 10 44 30s22.667 56.667 32 110l65 367c4.66699 28 1 42 -11 42c-5.33301 0 -12.333 -2.66699 -21 -8s-15 -10.333 -19 -15v24c21.333 22.667 43 34 65 34c17.333 0 29.666 -6.33301 36.999 -19s9.33301 -29.334 6 -50.001z
M199.998 493.001c-1.33301 -10 -6.16602 -18.333 -14.499 -25s-17.5 -10 -27.5 -10c-9.33301 0 -16.833 3.33301 -22.5 10s-7.83398 15 -6.50098 25c2 9.33301 7.16699 17.5 15.5 24.5s17.166 10.5 26.499 10.5s16.833 -3.5 22.5 -10.5s7.83398 -15.167 6.50098 -24.5z" />
    <glyph glyph-name="k" unicode="k" horiz-adv-x="352" 
d="M121 174l-31.001 -173.999h-56l80 454c8.66699 50 10.834 82 6.50098 96s-19.166 21 -44.499 21l3 21l119 25l-70 -402c35.333 46.667 64.166 80.167 86.499 100.5s46.166 30.5 71.499 30.5c20.667 0 36 -6.5 46 -19.5s13.667 -26.833 11 -41.5
c-3.33301 -18 -13.333 -27 -30 -27c-8 0 -14 2.5 -18 7.5s-6.16699 10.5 -6.5 16.5s-2.5 11.5 -6.5 16.5s-10.333 7.5 -19 7.5c-12.667 0 -27 -6.5 -43 -19.5s-38.333 -36.5 -67 -70.5c10.667 2.66699 18.334 4 23.001 4c21.333 0 36.5 -4.16699 45.5 -12.5
s14.833 -23.833 17.5 -46.5l16 -97c3.33301 -27.333 11 -41 23 -41s25.333 7.33301 40 22v-23c-23.333 -23.333 -45.666 -35 -66.999 -35c-35.333 0 -54 23.333 -56 70l-4 96c-0.666992 15.333 -2.66699 26.166 -6 32.499s-10 9.5 -20 9.5c-12.667 0 -27.334 -7 -44.001 -21
z" />
    <glyph glyph-name="l" unicode="l" horiz-adv-x="202" 
d="M114 454c8.66699 50 10.834 82 6.50098 96s-19.166 21 -44.499 21l3 21l119 25l-96 -553c-4.66699 -27.333 -1 -41 11 -41c10 0 23.333 7.33301 40 22v-23c-23.333 -23.333 -45.333 -35 -66 -35c-16.667 0 -28.834 6.5 -36.501 19.5s-9.83398 29.833 -6.50098 50.5z" />
    <glyph glyph-name="m" unicode="m" horiz-adv-x="577" 
d="M335 258c12.667 27.333 29.999 49.501 51.999 66.501s44 25.5 66 25.5c59.333 0 80.333 -49.667 63 -149l-23 -137c-6 -27.333 -2.66699 -41 10 -41c12 0 25.333 7.33301 40 22v-23c-23.333 -23.333 -45 -35 -65 -35c-17.333 0 -29.666 6.5 -36.999 19.5
s-9.33301 29.833 -6 50.5l24 139c8 37.333 9.5 64.5 4.5 81.5s-17.833 25.5 -38.5 25.5c-19.333 0 -39.666 -13.333 -60.999 -40s-36 -64.667 -44 -114l-27 -149h-55l34 196c7.33301 37.333 8.66602 64.5 3.99902 81.5s-17.334 25.5 -38.001 25.5
c-19.333 0 -39.666 -13.333 -60.999 -40s-36 -64.667 -44 -114l-27 -149h-56l48 269c4.66699 28 1 42 -11 42c-5.33301 0 -12.333 -2.66699 -21 -8s-15 -10.333 -19 -15v24c21.333 22.667 43 34 65 34c17.333 0 29.666 -6.33301 36.999 -19s9.33301 -29.334 6 -50.001l-2 -9
c12.667 24 29.334 43.667 50.001 59s41.667 23 63 23c47.333 0 70.333 -30.667 69 -92z" />
    <glyph glyph-name="n" unicode="n" horiz-adv-x="401" 
d="M106 0l-55.9961 0.000976562l48 269c4.66699 28 1 42 -11 42c-5.33301 0 -12.333 -2.66699 -21 -8s-15 -10.333 -19 -15v24c21.333 22.667 43 34 65 34c17.333 0 29.666 -6.33301 36.999 -19s9.33301 -29.334 6 -50.001l-2 -9c15.333 25.333 33.166 45.333 53.499 60
s41.166 22 62.499 22c32.667 0 54.667 -13.667 66 -41s13 -63.333 5 -108l-23 -137c-4.66699 -27.333 -1 -41 11 -41c10 0 23.333 7.33301 40 22v-23c-23.333 -23.333 -45.333 -35 -66 -35c-16.667 0 -28.834 6.5 -36.501 19.5s-9.83398 29.833 -6.50098 50.5l24 139
c13.333 71.333 -0.666992 107 -42 107c-19.333 0 -40.166 -13.833 -62.499 -41.5s-37.5 -65.167 -45.5 -112.5z" />
    <glyph glyph-name="o" unicode="o" horiz-adv-x="379" 
d="M341 167c-9.33301 -50.667 -31.834 -94 -67.501 -130s-74.167 -54 -115.5 -54c-42 0 -74.667 18 -98 54s-30.666 79.333 -21.999 130c9.33301 50.667 32 93.834 68 129.501s75 53.5 117 53.5c41.333 0 73.5 -17.833 96.5 -53.5s30.167 -78.834 21.5 -129.501z
M276.999 167c8 44.667 7.16504 81.167 -2.50195 109.5s-28.5 42.5 -56.5 42.5c-28.667 0 -53 -14.167 -73 -42.5s-34 -64.833 -42 -109.5s-7.16699 -81.334 2.5 -110.001s28.834 -43 57.501 -43s52.834 14.333 72.501 43s33.5 65.334 41.5 110.001z" />
    <glyph glyph-name="p" unicode="p" horiz-adv-x="385" 
d="M291 167c7.33301 42.667 5.83398 78.499 -4.49902 107.499s-29.5 43.5 -57.5 43.5c-24.667 0 -48.334 -8.33301 -71.001 -25l-30 -177c-4.66699 -26 -1.5 -48 9.5 -66s26.167 -27 45.5 -27c27.333 0 50.333 13.333 69 40s31.667 61.334 39 104.001zM130.001 446.999
l8.00098 46h55l-27 -160c23.333 11.333 46.333 17 69 17c42 0 74.667 -17.833 98 -53.5s30.666 -78.834 21.999 -129.501c-8.66699 -52 -28.667 -95.667 -60 -131s-67.333 -53 -108 -53c-31.333 0 -56.333 15.333 -75 46l-25 -142c-8.66699 -50 -9.5 -81.833 -2.5 -95.5
s27.5 -20.5 61.5 -20.5l-4 -21h-215l5 21c33.333 0 56 6.83301 68 20.5s22.333 45.5 31 95.5l64 361c-21.333 -43.333 -46.333 -81.666 -75 -114.999l-17 12c24 28.667 48.167 69.667 72.5 123s42.5 113 54.5 179z" />
    <glyph glyph-name="q" unicode="q" horiz-adv-x="368" 
d="M249 116l31.001 176.999c-16.667 16.667 -37.334 25 -62.001 25c-28 0 -52.333 -14.5 -73 -43.5s-34.667 -64.833 -42 -107.5c-8 -42 -7.33301 -76.5 2 -103.5s27.666 -40.5 54.999 -40.5c19.333 0 37.833 8.83301 55.5 26.5s28.834 39.834 33.501 66.501z
M264.001 -113.001c-8 -50 -8.50195 -81.834 -1.50195 -95.501s27.167 -20.5 60.5 -20.5l-4 -21h-214l4 21c34 0 56.833 6.83301 68.5 20.5s21.834 45.5 30.501 95.5l25 142c-29.333 -30.667 -59.666 -46 -90.999 -46c-40.667 0 -70.334 17.667 -89.001 53
s-23.667 79 -15 131c9.33301 50.667 32 93.834 68 129.501s75 53.5 117 53.5c22.667 0 44.334 -5.66699 65.001 -17h55z" />
    <glyph glyph-name="r" unicode="r" horiz-adv-x="285" 
d="M146 252c12 31.333 27.167 55.499 45.5 72.499s37.166 25.5 56.499 25.5c20.667 0 34.834 -6.66699 42.501 -20s10.167 -27.666 7.5 -42.999c-1.33301 -8 -5.33301 -15.667 -12 -23s-16 -11 -28 -11c-8.66699 0 -15.667 3.16699 -21 9.5s-7.33301 13.833 -6 22.5
c2 14 -1 21 -9 21c-16 0 -34 -18.333 -54 -55s-36 -88 -48 -154l-17 -97h-53l48 269c4.66699 28 1 42 -11 42c-5.33301 0 -12.333 -2.66699 -21 -8s-15 -10.333 -19 -15v24c21.333 22.667 43 34 65 34c34 0 47 -23 39 -69z" />
    <glyph glyph-name="s" unicode="s" horiz-adv-x="242" 
d="M205 86c-6 -32 -20.165 -57.166 -42.498 -75.499s-46.5 -27.5 -72.5 -27.5c-28.667 0 -50.834 7.5 -66.501 22.5s-22.167 30.167 -19.5 45.5c3.33301 15.333 12.666 23 27.999 23c8 0 13.667 -3 17 -9s5.33301 -12.833 6 -20.5s4.83398 -14.5 12.501 -20.5
s19.167 -9 34.5 -9c14 0 26.167 5 36.5 15s16.166 21 17.499 33c2 12 -0.166992 24.667 -6.5 38s-13.833 24 -22.5 32l-36 35c-28 27.333 -39 57.666 -33 90.999c4 24.667 15.5 46 34.5 64s43.833 27 74.5 27c24.667 0 42.667 -6.33301 54 -19s16 -26 14 -40
c-2 -13.333 -9.33301 -20 -22 -20c-7.33301 0 -12.666 2.66699 -15.999 8s-5.33301 11.333 -6 18s-3.66699 12.667 -9 18s-14 8 -26 8c-11.333 0 -21.833 -4 -31.5 -12s-15.834 -18.667 -18.501 -32c-4 -20 6 -42 30 -66l36 -34c28.667 -27.333 39.667 -58.333 33 -93z" />
    <glyph glyph-name="t" unicode="t" horiz-adv-x="228" 
d="M149 298l-36 -202c-8 -48.667 -0.666992 -73 22 -73c18 0 39 15 63 45l1 -27c-13.333 -18 -28.5 -32.167 -45.5 -42.5s-31.5 -15.5 -43.5 -15.5c-48 0 -65.333 37.667 -52 113l35 202h-65l7 35h65l28 160h55l-27 -160h80l-7 -35h-80z" />
    <glyph glyph-name="u" unicode="u" horiz-adv-x="401" 
d="M368 22c-23.333 -23.333 -45.3291 -34.999 -65.9961 -34.999c-16.667 0 -28.834 6.5 -36.501 19.5s-9.83398 29.833 -6.50098 50.5l2 8c-14.667 -24.667 -32.5 -44.5 -53.5 -59.5s-42.167 -22.5 -63.5 -22.5c-32 0 -53.833 13.833 -65.5 41.5s-13.5 63.834 -5.5 108.501
l25 136c4.66699 28 1 42 -11 42c-5.33301 0 -12.333 -2.66699 -21 -8s-15 -10.333 -19 -15v24c21.333 22.667 43 34 65 34c17.333 0 29.666 -6.33301 36.999 -19s9.33301 -29.334 6 -50.001l-25 -139c-13.333 -71.333 1 -107 43 -107c19.333 0 40.166 13.667 62.499 41
s37.833 64.666 46.5 111.999l26 149h56l-47 -269c-4.66699 -27.333 -1 -41 11 -41c10 0 23.333 7.33301 40 22v-23z" />
    <glyph glyph-name="v" unicode="v" horiz-adv-x="342" 
d="M165 350l16.998 0.000976562c-3.33301 -19.333 -13 -53.333 -29 -102s-27.333 -92.667 -34 -132c-5.33301 -31.333 -3.66602 -55.166 5.00098 -71.499s21.667 -24.5 39 -24.5c23.333 0 46.333 13.667 69 41s38 62.666 46 105.999c6 43.333 6.66699 73.5 2 90.5
s-10.667 31.667 -18 44s-10.333 22.166 -9 29.499c2.66699 12.667 11 19 25 19c9.33301 0 17.5 -5.66699 24.5 -17s11.833 -30.666 14.5 -57.999s0 -63.333 -8 -108c-8.66699 -50.667 -28.167 -94 -58.5 -130s-62.833 -54 -97.5 -54c-40 0 -66.833 11.833 -80.5 35.5
s-17.167 53.5 -10.5 89.5c4 24 16.5 57.667 37.5 101s32.5 70.666 34.5 81.999c-2 0.666992 -6.83301 3 -14.5 7s-13 6.5 -16 7.5s-7.66699 2.16699 -14 3.5s-12.833 2 -19.5 2c-11.333 0 -24.666 -7.66699 -39.999 -23v24c21.333 22.667 43 34 65 34c8 0 16.667 -1 26 -3
s17 -2.83301 23 -2.5s13 3.5 21 9.5z" />
    <glyph glyph-name="w" unicode="w" horiz-adv-x="508" 
d="M272 118c19.333 37.333 32.333 75.667 39 115c8.66699 50.667 7 76 -5 76c-4.66699 0 -9.66699 -6.33301 -15 -19s-10 -30 -14 -52c-8 -42.667 -9.66699 -82.667 -5 -120zM278 84.001c14 -42.667 36.6641 -63.999 67.9971 -63.999c20.667 0 40.334 12.667 59.001 38
s32.334 61.666 41.001 108.999c6 44 6.5 74 1.5 90s-11.167 30.167 -18.5 42.5s-10.333 23.166 -9 32.499c2.66699 12.667 11 19 25 19c8.66699 0 16.5 -6.16699 23.5 -18.5s12 -32.166 15 -59.499s0.5 -62.666 -7.5 -105.999c-9.33301 -55.333 -27.5 -99.833 -54.5 -133.5
s-55.167 -50.5 -84.5 -50.5c-40.667 0 -71.667 18.667 -93 56c-34 -37.333 -67 -56 -99 -56s-55.5 11 -70.5 33s-19.167 52.667 -12.5 92c4 24 16.5 57.833 37.5 101.5s32.5 70.834 34.5 81.501c-2 0.666992 -6.5 2.66699 -13.5 6s-12.167 5.66602 -15.5 6.99902
s-8.33301 2.83301 -15 4.5s-13.334 2.5 -20.001 2.5c-11.333 0 -24.666 -7.66699 -39.999 -23v24c21.333 22.667 43 34 65 34c8 0 16.667 -1 26 -3s16.833 -2.66699 22.5 -2s12.5 3.66699 20.5 9h18c-2.66699 -15.333 -12.334 -49.5 -29.001 -102.5s-28 -96.833 -34 -131.5
c-5.33301 -30.667 -3.5 -54.334 5.5 -71.001s21.833 -25 38.5 -25c24.667 0 48.334 13.667 71.001 41c-15.333 42.667 -17.333 96.667 -6 162c7.33301 38 18.833 68.667 34.5 92s30.834 35 45.501 35c14 0 24 -10.5 30 -31.5s6 -49.5 0 -85.5
c-10.667 -55.333 -30.667 -105 -60 -149z" />
    <glyph glyph-name="x" unicode="x" horiz-adv-x="299" 
d="M128 148l-25.002 125.002c-6.66699 28 -16 42 -28 42s-25.333 -7.33301 -40 -22v23c21.333 22.667 43 34 65 34c16.667 0 29.334 -5.33301 38.001 -16s15.667 -28.334 21 -53.001l12 -51c39.333 80 76 120 110 120c16 0 27 -5 33 -15s7.66699 -21.667 5 -35
c-0.666992 -5.33301 -2.66699 -10.5 -6 -15.5s-6.66602 -7.5 -9.99902 -7.5c-8 0 -12.833 2.33301 -14.5 7s-1.66699 9.66699 0 15s1.33398 10.333 -0.999023 15s-7.5 7 -15.5 7c-16.667 0 -40.667 -31.333 -72 -94l-21 -41l27 -126c6 -28 15 -42 27 -42
c5.33301 0 12.333 2.66699 21 8s15 10.333 19 15v-23c-22 -23.333 -43.667 -35 -65 -35c-17.333 0 -30.333 5.16699 -39 15.5s-15.667 28.5 -21 54.5l-10 50c-18.667 -36.667 -36.834 -65.834 -54.501 -87.501s-36.5 -32.5 -56.5 -32.5c-16 0 -27.167 5.16699 -33.5 15.5
s-8.16602 21.5 -5.49902 33.5c1.33301 6 3.66602 11.667 6.99902 17s7 8 11 8c8 0 12.833 -2.33301 14.5 -7s1.66699 -9.66699 0 -15s-1.5 -10.333 0.5 -15s7.33301 -7 16 -7c16 0 39.667 31.333 71 94z" />
    <glyph glyph-name="y" unicode="y" horiz-adv-x="309" 
d="M151 9c48.667 72.667 77.6709 137.333 87.0039 194c4.66699 26 5.66699 47.167 3 63.5s-6.83398 28.166 -12.501 35.499l-15.5 20c-4.66699 6 -6.66699 11.333 -6 16c1.33301 12.667 9.66602 19 24.999 19c10 0 19 -4.5 27 -13.5s14.167 -23.667 18.5 -44
s3.16602 -47.166 -3.50098 -80.499c-13.333 -78 -46.833 -155.167 -100.5 -231.5s-113.834 -137.666 -180.501 -183.999s-127 -69.5 -181 -69.5c-27.333 0 -47.333 5.33301 -60 16s-18 23 -16 37c1.33301 6.66699 5.33301 13.834 12 21.501s13 11.5 19 11.5
c4 0 7.83301 -2.16699 11.5 -6.5s7 -9.33301 10 -15s8.83301 -10.667 17.5 -15s19.667 -6.5 33 -6.5c35.333 0 75.5 14.167 120.5 42.5s87.833 65.5 128.5 111.5c13.333 89.333 18.5 162.166 15.5 218.499s-9.83301 97.5 -20.5 123.5s-24 39 -40 39
c-6.66699 0 -15 -2.83301 -25 -8.5s-17 -10.834 -21 -15.501v24c21.333 22.667 45.666 34 72.999 34c38 0 64.333 -30.833 79 -92.5s15.334 -143.167 2.00098 -244.5z" />
    <glyph glyph-name="z" unicode="z" horiz-adv-x="282" 
d="M72 67c9.33301 1.33301 17.665 2 24.998 2c20 0 37.167 -5.5 51.5 -16.5s25.166 -23.333 32.499 -37s17 -26 29 -37s25.667 -16.5 41 -16.5c28 0 52 9 72 27l11 -11c-35.333 -54.667 -70.666 -82 -105.999 -82c-16 0 -30.667 7.5 -44 22.5s-24 31.667 -32 50
s-17.667 35 -29 50s-23 22.5 -35 22.5c-16 0 -28.833 -4.5 -38.5 -13.5s-17.5 -18.5 -23.5 -28.5s-11.333 -15.333 -16 -16c-6.66699 -1.33301 -12 0.166992 -16 4.5s-5 12.166 -3 23.499c3.33301 19.333 33.833 60.333 91.5 123s104.5 109.667 140.5 141
c-15.333 -3.33301 -27 -5 -35 -5c-12 0 -27 4 -45 12s-33.667 12 -47 12c-16.667 0 -32 -7.33301 -46 -22l-11 7c9.33301 19.333 20.5 36 33.5 50s26.5 21 40.5 21c16 0 34.833 -8.66699 56.5 -26s37.834 -26 48.501 -26s19.834 4.33301 27.501 13s14 17.334 19 26.001
s9.83301 13 14.5 13c9.33301 0 13 -5.66699 11 -17c-4 -18.667 -19.667 -42 -47 -70c-90.667 -90.667 -147.667 -156 -171 -196z" />
    <glyph glyph-name="braceleft" unicode="{" horiz-adv-x="358" 
d="M70 304c20.667 6.66699 35.5029 12.1738 44.5029 16.5068s19.667 12.333 32 24s22.333 28.167 30 49.5s14.5 49.333 20.5 84c3.33301 17.333 7.83301 33.5 13.5 48.5s11.167 27.833 16.5 38.5s13.666 21.667 24.999 33l26 26c6 6 16.833 13.667 32.5 23l32 19
c5.66699 3.33301 17.834 9.66602 36.501 18.999s30.334 15.333 35.001 18l13 -21c-34.667 -21.333 -60.334 -38.333 -77.001 -51s-32.834 -31.834 -48.501 -57.501s-26.834 -56.834 -33.501 -93.501c-12 -68 -27.5 -113.333 -46.5 -136s-48.833 -38.667 -89.5 -48
c14.667 -4 26.5 -8 35.5 -12s17.5 -10.167 25.5 -18.5s13.167 -18.833 15.5 -31.5s3.16602 -29 2.49902 -49s-3.33398 -44.333 -8.00098 -73c-9.33301 -52.667 -7 -91.834 7 -117.501s41 -53.834 81 -84.501l-20 -21l-26 16l-26.5 16.5
c-5.66699 3.66699 -13.667 9.16699 -24 16.5s-17.833 13.666 -22.5 18.999l-17.5 21c-7 8.66699 -11.833 17.334 -14.5 26.001s-5.5 18.667 -8.5 30s-4.16699 23.666 -3.5 36.999s2.33398 27.666 5.00098 42.999c4.66699 28 7.16699 51.833 7.5 71.5s-0.666992 35 -3 46
s-7.83301 20.333 -16.5 28s-16 13 -22 16s-16.333 7.16699 -31 12.5z" />
    <glyph glyph-name="bar" unicode="|" horiz-adv-x="270" 
d="M215 708h44l-125 -708h-44z" />
    <glyph glyph-name="braceright" unicode="}" horiz-adv-x="358" 
d="M343 288c-16.667 -5.33301 -28.4971 -9.33594 -35.4971 -12.0029s-16.333 -8.16699 -28 -16.5s-20.5 -17.833 -26.5 -28.5s-12.5 -25.834 -19.5 -45.501s-12.833 -43.5 -17.5 -71.5c-3.33301 -17.333 -7.83301 -33.5 -13.5 -48.5s-11.334 -28 -17.001 -39
s-13.834 -22 -24.501 -33l-26 -26c-6.66699 -6.33301 -17.5 -14 -32.5 -23s-25.667 -15.167 -32 -18.5l-36.5 -19l-35 -18l-13 21c50.667 30.667 87.5 58.834 110.5 84.501s39.167 64.834 48.5 117.501c8 46.667 18.5 82.834 31.5 108.501s26.833 43 41.5 52
s36 16.833 64 23.5c-19.333 4.66699 -34 9.83398 -44 15.501s-19.167 15.167 -27.5 28.5s-11.666 30.833 -9.99902 52.5s4.83398 50.834 9.50098 87.501c3.33301 18.667 5.16602 35.667 5.49902 51s-1.33398 29.166 -5.00098 41.499s-7.5 22.833 -11.5 31.5
s-10.833 18 -20.5 28s-18 18.167 -25 24.5s-17.5 14.833 -31.5 25.5l21 21c4.66699 -3.33301 13.167 -8.66602 25.5 -15.999s21.166 -12.833 26.499 -16.5l23.5 -16.5c10.333 -7.33301 17.833 -13.833 22.5 -19.5l17.5 -21.5c7 -8.66699 11.833 -17.334 14.5 -26.001
s5.5 -18.5 8.5 -29.5s4.16699 -23.167 3.5 -36.5s-2.33398 -27.666 -5.00098 -42.999c-4.66699 -28 -7 -51.833 -7 -71.5s1 -34.834 3 -45.501s7.5 -20.167 16.5 -28.5s16.333 -13.833 22 -16.5s15.834 -6.66699 30.501 -12z" />
    <glyph glyph-name="asciitilde" unicode="~" horiz-adv-x="423" 
d="M310 258c25.333 0 46.0039 19 62.0039 57h19c-6.66699 -36.667 -19.334 -65.5 -38.001 -86.5s-40.334 -31.5 -65.001 -31.5c-14.667 0 -38.334 11 -71.001 33s-54.334 33 -65.001 33s-22 -5.66699 -34 -17s-21 -24.333 -27 -39h-18c5.33301 34 17.5 61.833 36.5 83.5
s39.167 32.5 60.5 32.5c16.667 0 40.667 -10.833 72 -32.5s54 -32.5 68 -32.5z" />
    <glyph glyph-name="nbspace" unicode="&#xa0;" horiz-adv-x="175" 
 />
    <glyph glyph-name="exclamdown" unicode="&#xa1;" horiz-adv-x="300" 
d="M226 390c-2.66699 -12.667 -9.66895 -23.834 -21.002 -33.501s-23.666 -14.5 -36.999 -14.5c-12.667 0 -22.667 4.83301 -30 14.5s-9.66602 20.834 -6.99902 33.501c2 13.333 8.5 24.666 19.5 33.999s22.833 14 35.5 14s23 -4.66699 31 -14s11 -20.666 9 -33.999z
M132.998 -138c-2.66699 -13.333 -9.66602 -24.834 -20.999 -34.501s-23.333 -14.5 -36 -14.5s-22.834 4.83301 -30.501 14.5s-10.167 21.167 -7.5 34.5c2 14 7.5 35.333 16.5 64s21.167 72.667 36.5 132s31.333 130 48 212h34c-16 -111.333 -26.333 -205.666 -31 -282.999
s-7.66699 -119 -9 -125z" />
    <glyph glyph-name="cent" unicode="&#xa2;" horiz-adv-x="447" 
d="M238 83l-30 -166.001h-36l30 170c-41.333 8 -71.333 27.5 -90 58.5s-24 68.5 -16 112.5c8 46.667 28.5 86.834 61.5 120.501s68.833 55.5 107.5 65.5l30 173h36l-29 -167h4c39.333 0 67.833 -7 85.5 -21s24.834 -31 21.501 -51c-2 -10.667 -7.33301 -20.5 -16 -29.5
s-20.667 -13.5 -36 -13.5c-10.667 0 -19.167 3.83301 -25.5 11.5s-8.83301 17.167 -7.5 28.5c5.33301 28.667 -3.66699 43 -27 43h-4l-52 -292c8 -2 17.333 -3 28 -3c39.333 0 77.666 15.333 114.999 46l15 -20c-49.333 -44 -103 -66 -161 -66h-4zM211 135.999l47 271.001
c-22.667 -12.667 -43.167 -32.334 -61.5 -59.001s-30.5 -56.667 -36.5 -90c-11.333 -60 5.66699 -100.667 51 -122z" />
    <glyph glyph-name="sterling" unicode="&#xa3;" horiz-adv-x="457" 
d="M141 333l16.9971 96c11.333 64 34.333 111.333 69 142s74.334 46 119.001 46c42.667 0 70 -15 82 -45c9.33301 -21.333 7 -39.333 -7 -54c-7.33301 -7.33301 -16.666 -11 -27.999 -11c-10.667 0 -18.167 4 -22.5 12s-6.66602 16.833 -6.99902 26.5
s-3.66602 18.5 -9.99902 26.5s-16.5 12 -30.5 12c-26.667 0 -48.5 -12 -65.5 -36s-30.5 -63.667 -40.5 -119l-17 -96h76l-7 -35h-76l-25 -145c-9.33301 -50 -10.833 -81.833 -4.5 -95.5s24.833 -20.5 55.5 -20.5h94c32 0 54 5.33301 66 16s23.333 30.667 34 60l7 20h16
l-30 -133h-398l4 21c31.333 0 52.666 7 63.999 21s21.333 46 30 96l28 160h-66l7 35h66z" />
    <glyph glyph-name="currency" unicode="&#xa4;" horiz-adv-x="500" 
d="M167 332l-38.001 45l40 34c1.33301 -2 3.33301 -4.5 6 -7.5s6.83398 -8 12.501 -15l13.5 -16.5l5 -7c27.333 17.333 56 26 86 26s55 -8.33301 75 -25l54 46l28 -34l-54 -46c12 -24.667 15.667 -51.334 11 -80.001c-5.33301 -30 -18.333 -56.667 -39 -80l37 -47l-40 -34
l-37 47c-26 -16.667 -54 -25 -84 -25s-55.333 8.33301 -76 25l-54 -47l-28 35l53 46c-12 22.667 -15.333 49.334 -10 80.001c4.66699 28 17.667 54.667 39 80zM281.999 338c-24 0 -45.834 -8.5 -65.501 -25.5s-31.5 -37.167 -35.5 -60.5c-4 -24 0.833008 -44.333 14.5 -61
s32.5 -25 56.5 -25c23.333 0 44.833 8.33301 64.5 25s31.834 37 36.501 61c4 23.333 -1 43.5 -15 60.5s-32.667 25.5 -56 25.5z" />
    <glyph glyph-name="yen" unicode="&#xa5;" horiz-adv-x="467" 
d="M276 234c-5.33301 -20 -8.33398 -33.998 -9.00098 -41.998l-1 -4h109l-7 -44h-110l-1 -6c-9.33301 -50 -10.833 -82 -4.5 -96s24.833 -21 55.5 -21l-3 -21h-212l4 21c31.333 0 52.666 7 63.999 21s21.333 46 30 96l2 6h-117l7 44h117
c0.666992 4.66699 1.83398 12.167 3.50098 22.5s3.16699 18.166 4.5 23.499h-116l7 44h114c8.66699 71.333 9.5 129 2.5 173s-17.333 75.667 -31 95s-29.5 29 -47.5 29c-15.333 0 -31.666 -7.66699 -48.999 -23v23c22.667 23.333 48.334 35 77.001 35
c39.333 0 67.666 -22.333 84.999 -67s24.333 -120.667 21 -228c34 94.667 67.833 167.334 101.5 218.001s69.834 76 108.501 76c20 0 35.167 -6.33301 45.5 -19s14.166 -26.334 11.499 -41.001c-4 -18.667 -14 -28 -30 -28c-8 0 -14 2.5 -18 7.5s-6.33301 10.5 -7 16.5
s-3 11.5 -7 16.5s-10 7.5 -18 7.5c-23.333 0 -52 -30.333 -86 -91s-62 -127.334 -84 -200.001h103l-8 -44h-107z" />
    <glyph glyph-name="brokenbar" unicode="&#xa6;" horiz-adv-x="211" 
d="M228 708l-54 -300h-44l53 300h45zM155 300l-52 -300h-45l53 300h44z" />
    <glyph glyph-name="section" unicode="&#xa7;" horiz-adv-x="292" 
d="M293 530c-9.33301 0 -15.8359 3.33496 -19.5029 10.002s-5.66699 14.167 -6 22.5s-3.66602 15.833 -9.99902 22.5s-16.166 10 -29.499 10c-17.333 0 -32.333 -5.5 -45 -16.5s-20.667 -25.167 -24 -42.5c-5.33301 -30.667 6 -59.667 34 -87l43 -41
c35.333 -32.667 49.333 -67.334 42 -104.001c-7.33301 -48 -31.333 -82.667 -72 -104c30 -30.667 42.333 -63 37 -97c-7.33301 -38 -24 -67.5 -50 -88.5s-54 -31.5 -84 -31.5c-44 0 -75 14.333 -93 43c-13.333 20 -13.666 36.333 -0.999023 49
c4.66699 4.66699 11 7.66699 19 9c10.667 1.33301 18.167 -1.66699 22.5 -9s6.83301 -15.833 7.5 -25.5s5.66699 -18.667 15 -27s23.333 -12.5 42 -12.5c20.667 0 36.834 6.5 48.501 19.5s19.167 27.833 22.5 44.5c2.66699 16 0.333984 33.167 -6.99902 51.5
s-16.333 32.166 -27 41.499l-42 41c-35.333 31.333 -49.666 65.333 -42.999 102c4 22 12.833 42 26.5 60s31.5 30.667 53.5 38v1c-34.667 33.333 -49.334 67.666 -44.001 102.999c4.66699 28.667 18.167 53.334 40.5 74.001s51.166 31 86.499 31
c39.333 0 64.666 -13.333 75.999 -40c8 -18 6.33301 -32 -5 -42c-4 -3.33301 -8.66699 -5 -14 -5zM227.997 276.002c2.66699 16 0.333984 33.168 -6.99902 51.501s-16 31.833 -26 40.5l-23 23c-27.333 -8.66699 -43.666 -27.667 -48.999 -57
c-4.66699 -30.667 6.66602 -59.334 33.999 -86.001l31 -30c21.333 10 34.666 29.333 39.999 58z" />
    <glyph glyph-name="dieresis" unicode="&#xa8;" horiz-adv-x="310" 
d="M179 662c10.667 0 19.167 -3.83301 25.5 -11.5s8.83301 -16.834 7.5 -27.501c-2 -11.333 -7.66699 -20.833 -17 -28.5s-19.333 -11.5 -30 -11.5s-19.167 3.83301 -25.5 11.5s-8.5 17.167 -6.5 28.5c2 10.667 7.5 19.834 16.5 27.501s18.833 11.5 29.5 11.5zM312 662
c10.667 0 19.168 -3.83301 25.501 -11.5s8.5 -16.834 6.5 -27.501s-7.5 -20 -16.5 -28s-18.833 -12 -29.5 -12s-19.167 3.83301 -25.5 11.5s-8.5 17.167 -6.5 28.5c1.33301 10.667 6.66602 19.834 15.999 27.501s19.333 11.5 30 11.5z" />
    <glyph glyph-name="copyright" unicode="&#xa9;" horiz-adv-x="683" 
d="M425 617c87.333 0 156.501 -31 207.501 -93s68.833 -136.667 53.5 -224s-59.5 -162 -132.5 -224s-153.167 -93 -240.5 -93s-156.333 31 -207 93s-68.334 136.667 -53.001 224c14.667 87.333 58.5 162 131.5 224s153.167 93 240.5 93zM420.001 585
c-78.667 0 -150.67 -27.833 -216.003 -83.5s-105.333 -122.834 -120 -201.501c-13.333 -78.667 2.83398 -145.834 48.501 -201.501s107.834 -83.5 186.501 -83.5s150.834 27.833 216.501 83.5s105.167 122.834 118.5 201.501c14.667 78.667 -0.833008 145.834 -46.5 201.501
s-108.167 83.5 -187.5 83.5zM498.998 105h-15.999c0 21.333 -2.66699 36 -8 44c-16.667 -16.667 -37.167 -30.667 -61.5 -42s-47.166 -17 -68.499 -17c-56 0 -100.333 20.5 -133 61.5s-44 90.5 -34 148.5c10.667 57.333 39.667 106.666 87 147.999s98.666 62 153.999 62
c21.333 0 42 -5.5 62 -16.5s35.667 -25.167 47 -42.5c7.33301 7.33301 15.333 22 24 44h16l-27 -156h-18c-1.33301 42.667 -11.333 76.167 -30 100.5s-45.334 36.5 -80.001 36.5c-46 0 -84 -18.167 -114 -54.5s-49 -76.833 -57 -121.5s-3.33301 -85.167 14 -121.5
s49 -54.5 95 -54.5c34 0 64.833 12.333 92.5 37s49.5 58.334 65.5 101.001h18z" />
    <glyph glyph-name="ordfeminine" unicode="&#xaa;" horiz-adv-x="380" 
d="M296 383l31 175.999c-14.667 17.333 -35.334 26 -62.001 26c-28 0 -52.333 -14.667 -73 -44s-34.667 -65.333 -42 -108s-6.5 -77.167 2.5 -103.5s27.167 -39.5 54.5 -39.5c19.333 0 37.833 8.83301 55.5 26.5s28.834 39.834 33.501 66.501zM283 298.999
c-29.333 -32.667 -60.665 -48.999 -93.998 -48.999c-40.667 0 -70.334 17.667 -89.001 53s-23.334 78.666 -14.001 129.999c8.66699 50.667 31 94 67 130s75 54 117 54c22.667 0 44 -5.66699 64 -17h56l-47 -269c-6 -28 -2.66699 -42 10 -42c5.33301 0 12.333 2.66699 21 8
s15 10.333 19 15v-24c-21.333 -22.667 -43 -34 -65 -34c-26.667 0 -41.667 15 -45 45z" />
    <glyph glyph-name="guillemotleft" unicode="&#xab;" horiz-adv-x="667" 
d="M414 68l-17 -18l-291 218l367 217l12 -17l-267 -200zM576 122l-15 -20l-245 166l303 165l9 -19l-200 -146z" />
    <glyph glyph-name="logicalnot" unicode="&#xac;" horiz-adv-x="570" 
d="M486 295l-30 -172h-44l22 128h-331l7 44h376z" />
    <glyph glyph-name="registered" unicode="&#xae;" horiz-adv-x="683" 
d="M425 617c87.333 0 156.501 -31 207.501 -93s68.833 -136.667 53.5 -224s-59.5 -162 -132.5 -224s-153.167 -93 -240.5 -93s-156.333 31 -207 93s-68.334 136.667 -53.001 224c14.667 87.333 58.5 162 131.5 224s153.167 93 240.5 93zM473.001 383
c4 22.667 1 41.499 -9 56.499s-27 22.5 -51 22.5h-65l-28 -157h66c24 0 43.5 7.33301 58.5 22s24.5 33.334 28.5 56.001zM543.001 104.999h-96.0039l-99 168h-34l-8 -45c-8 -45.333 -8.83301 -74.166 -2.5 -86.499s24.5 -18.5 54.5 -18.5l-3 -18h-198l3 18
c30 0 50.5 6.33301 61.5 19s20.5 41.334 28.5 86.001l26 144c8 45.333 8.66699 74.166 2 86.499s-25 18.5 -55 18.5l3 18h194c40.667 0 71.667 -10.5 93 -31.5s29 -47.833 23 -80.5c-5.33301 -28 -19.5 -52 -42.5 -72s-51.5 -32.333 -85.5 -37l45 -66
c15.333 -24 32.833 -44.167 52.5 -60.5s38.5 -24.5 56.5 -24.5c50.667 52.667 81.334 111.667 92.001 177c14.667 78.667 -0.833008 145.834 -46.5 201.501s-108.167 83.5 -187.5 83.5c-78.667 0 -150.667 -27.833 -216 -83.5s-105.333 -122.834 -120 -201.501
c-13.333 -78.667 2.83398 -145.834 48.501 -201.501s107.834 -83.5 186.501 -83.5c82.667 0 157.334 30 224.001 90z" />
    <glyph glyph-name="macron" unicode="&#xaf;" horiz-adv-x="258" 
d="M288 621h-182l4 23h182z" />
    <glyph glyph-name="degree" unicode="&#xb0;" horiz-adv-x="400" 
d="M280 601c41.333 0 73.9971 -14.667 97.9971 -44s32.333 -64.666 25 -105.999c-6.66699 -41.333 -27.167 -76.666 -61.5 -105.999s-72.166 -44 -113.499 -44s-74.166 14.667 -98.499 44s-33.166 64.666 -26.499 105.999c7.33301 41.333 28.5 76.666 63.5 105.999
s72.833 44 113.5 44zM272.997 553c-28 0 -53.6689 -10 -77.002 -30s-37.666 -44 -42.999 -72c-4.66699 -28 1.16602 -52 17.499 -72s38.5 -30 66.5 -30s53.667 10 77 30s37.333 44 42 72s-1.16602 52 -17.499 72s-38.166 30 -65.499 30z" />
    <glyph glyph-name="plusminus" unicode="&#xb1;" horiz-adv-x="458" 
d="M391 43l-8 -44h-358l8 44h358zM273 268h158l-8 -44h-158l-24 -141h-44l24 141h-157l9 44h156l24 140h45z" />
    <glyph glyph-name="twosuperior" unicode="&#xb2;" horiz-adv-x="336" 
d="M323 335l-16.998 -48.001h-233l3 22l153 119c33.333 22.667 53 49.667 59 81c7.33301 46.667 -12.667 70 -60 70c-22.667 0 -42 -10.667 -58 -32s-17 -45.666 -3 -72.999l-31 -25c-16.667 13.333 -26.334 29.833 -29.001 49.5s1 38.167 11 55.5
s25.833 32.166 47.5 44.499s46.167 18.5 73.5 18.5c33.333 0 60.833 -9.16699 82.5 -27.5s29.5 -42.166 23.5 -71.499c-4.66699 -33.333 -30.334 -68 -77.001 -104l-104 -79h159z" />
    <glyph glyph-name="threesuperior" unicode="&#xb3;" horiz-adv-x="336" 
d="M331 378c-5.33301 -29.333 -22.001 -54.6641 -50.001 -75.9971s-60.333 -32 -97 -32c-44 0 -74.333 13.667 -91 41c-10.667 18 -10.334 31.667 0.999023 41c4 3.33301 9.33301 5 16 5c5.33301 0 9.83301 -3 13.5 -9s6.83398 -12.5 9.50098 -19.5
s8.83398 -13.5 18.501 -19.5s22.167 -9 37.5 -9c23.333 0 42.333 7.66699 57 23s23.667 33.666 27 54.999c3.33301 18 1 33.833 -7 47.5s-20.667 22.167 -38 25.5c-6.66699 -6.66699 -13 -14.334 -19 -23.001c-12 -16 -23.667 -20.667 -35 -14
c-9.33301 5.33301 -10.333 13.666 -3 24.999c2 3.33301 4.66699 6.33301 8 9l118 104h-87c-36 0 -59 -12.667 -69 -38l-8 -17h-23l37 103h216l-5 -23l-95 -94c24 -8.66699 42.333 -22.667 55 -42s17 -40.333 13 -63z" />
    <glyph glyph-name="acute" unicode="&#xb4;" horiz-adv-x="227" 
d="M262 643c-2.66699 -12.667 -12.333 -22.667 -29 -30l-148 -59l-3 7l108 87c20 16 36 24 48 24c9.33301 0 16 -3 20 -9s5.33301 -12.667 4 -20z" />
    <glyph glyph-name="mu" unicode="&#xb5;" horiz-adv-x="401" 
d="M105 -7l-18.9961 -105.998c-8.66699 -50 -9.5 -81.833 -2.5 -95.5s27.5 -20.5 61.5 -20.5l-4 -21h-214l4 21c33.333 0 56 7 68 21s22.333 45.667 31 95l68 382c4.66699 28 1 42 -11 42c-5.33301 0 -12.333 -2.66699 -21 -8s-15 -10.333 -19 -15v24
c21.333 22.667 43 34 65 34c17.333 0 29.666 -6.33301 36.999 -19s9.33301 -29.334 6 -50.001l-25 -139c-13.333 -71.333 1 -107 43 -107c19.333 0 40.166 13.667 62.499 41s37.833 64.666 46.5 111.999l26 149h56l-47 -269c-4.66699 -27.333 -1 -41 11 -41
c10 0 23.333 7.33301 40 22v-23c-23.333 -23.333 -45.333 -35 -66 -35c-16.667 0 -28.834 6.5 -36.501 19.5s-9.83398 29.833 -6.50098 50.5l2 8c-14.667 -24.667 -32.5 -44.5 -53.5 -59.5s-42.167 -22.5 -63.5 -22.5c-14.667 0 -27.667 3.33301 -39 10z" />
    <glyph glyph-name="paragraph" unicode="&#xb6;" horiz-adv-x="513" 
d="M535 600l-3.00098 -21c-42 0 -69.667 -6.83301 -83 -20.5s-24.666 -45.5 -33.999 -95.5l-87 -496c-9.33301 -50 -9.66602 -81.833 -0.999023 -95.5s34 -20.5 76 -20.5l-4 -21h-132l128 726h-83l-129 -726h-132l3 21c42 0 69.667 6.83301 83 20.5s24.666 45.5 33.999 95.5
l52 295c-42 4.66699 -74.833 23 -98.5 55s-31.5 69.667 -23.5 113c8.66699 46.667 32.5 86.667 71.5 120s81.833 50 128.5 50h234z" />
    <glyph glyph-name="periodcentered" unicode="&#xb7;" horiz-adv-x="292" 
d="M189 233c-2 -12.667 -8.66602 -23.834 -19.999 -33.501s-23.333 -14.5 -36 -14.5s-22.834 4.83301 -30.501 14.5s-10.5 20.834 -8.5 33.501c2.66699 13.333 9.5 24.833 20.5 34.5s22.833 14.5 35.5 14.5s23 -4.83301 31 -14.5s10.667 -21.167 8 -34.5z" />
    <glyph glyph-name="cedilla" unicode="&#xb8;" horiz-adv-x="218" 
d="M128 6c5.33301 2 10.499 2.83398 15.499 2.50098s9.16699 -1.16602 12.5 -2.49902l5 -3l-66 -67c17.333 -1.33301 32 -8.5 44 -21.5s16 -32.167 12 -57.5c-3.33301 -16.667 -11 -31.834 -23 -45.501s-26 -24.334 -42 -32.001s-29.833 -13.334 -41.5 -17.001
s-22.167 -6.16699 -31.5 -7.5l5 27c50 19.333 77.667 44.333 83 75c2.66699 16.667 -4.16602 28.334 -20.499 35.001s-35.5 6 -57.5 -2l3 14z" />
    <glyph glyph-name="onesuperior" unicode="&#xb9;" horiz-adv-x="336" 
d="M279 287h-171l3 21c24.667 0 41.334 4.83301 50.001 14.5s16 31.834 22 66.501l20 110c5.33301 33.333 4.16602 54.333 -3.50098 63s-25.5 12.667 -53.5 12l4 21l131 26l-41 -232c-6 -34.667 -6.5 -56.834 -1.5 -66.501s19.833 -14.5 44.5 -14.5z" />
    <glyph glyph-name="ordmasculine" unicode="&#xba;" horiz-adv-x="379" 
d="M388 433c-9.33301 -50 -31.835 -93 -67.502 -129s-74.167 -54 -115.5 -54s-73.666 18 -96.999 54s-30.666 79 -21.999 129c8.66699 50.667 31 94 67 130s74.667 54 116 54c42 0 74.667 -18 98 -54s30.333 -79.333 21 -130zM323.998 433
c7.33301 45.333 6.16797 82.168 -3.49902 110.501s-28.5 42.5 -56.5 42.5c-28.667 0 -52.834 -14.333 -72.501 -43s-33.167 -65.334 -40.5 -110.001c-8 -44.667 -7.33301 -81.167 2 -109.5s28.333 -42.5 57 -42.5c28 0 52 14.167 72 42.5s34 64.833 42 109.5z" />
    <glyph glyph-name="guillemotright" unicode="&#xbb;" horiz-adv-x="667" 
d="M606 268l-368 -218l-12 18l268 200l-197 200l18 17zM396 268l-303 -166l-9 20l200 146l-148 146l15 19z" />
    <glyph glyph-name="onequarter" unicode="&#xbc;" horiz-adv-x="755" 
d="M660 601l-493 -619l-34 18l493 620zM257 291h-164l3 18c22.667 0 38.334 5.16699 47.001 15.5s16 32.166 22 65.499l19 109c6 32.667 5.16699 53.667 -2.5 63s-24.834 13.333 -51.501 12l3 19l125 23l-39 -226c-6 -33.333 -6.5 -55.166 -1.5 -65.499
s18.833 -15.5 41.5 -15.5zM724 194l-23.001 -101h-72c-5.33301 -30 -5.33301 -49.333 0 -58s20 -13 44 -13l-4 -22h-171l4 22c24 0 40.333 4.33301 49 13s15.667 28 21 58h-139l2 17l213 229h25l-38 -213c14.667 0.666992 26.334 4.5 35.001 11.5s17.667 20.5 27 40.5l6 16
h21zM577.999 126l20 118l-110 -118h90z" />
    <glyph glyph-name="onehalf" unicode="&#xbd;" horiz-adv-x="755" 
d="M660 601l-493 -619l-34 18l493 620zM257 291h-164l3 18c22.667 0 38.334 5.16699 47.001 15.5s16 32.166 22 65.499l19 109c6 32.667 5.16699 53.667 -2.5 63s-24.834 13.333 -51.501 12l3 19l125 23l-39 -226c-6 -33.333 -6.5 -55.166 -1.5 -65.499
s18.833 -15.5 41.5 -15.5zM692 48l-18 -47.998h-233l4 23l153 118c32.667 22.667 52 50 58 82c7.33301 46.667 -12.334 70 -59.001 70c-22.667 0 -42 -10.667 -58 -32s-17 -45.666 -3 -72.999l-32 -25c-16.667 13.333 -26.167 29.666 -28.5 48.999
s1.33398 37.666 11.001 54.999s25.5 32.166 47.5 44.499s46.667 18.5 74 18.5c34 0 61.5 -9 82.5 -27s28.833 -42 23.5 -72c-6 -34 -32 -68.333 -78 -103l-103 -80h159z" />
    <glyph glyph-name="threequarters" unicode="&#xbe;" horiz-adv-x="755" 
d="M660 601l-493 -619l-34 18l493 620zM724 194l-23.001 -101h-72c-5.33301 -30 -5.33301 -49.333 0 -58s20 -13 44 -13l-4 -22h-171l4 22c24 0 40.333 4.33301 49 13s15.667 28 21 58h-139l2 17l213 229h25l-38 -213c14.667 0.666992 26.334 4.5 35.001 11.5
s17.667 20.5 27 40.5l6 16h21zM577.999 126l20 118l-110 -118h90zM330.999 378c-5.33301 -29.333 -22.001 -54.6641 -50.001 -75.9971s-60.333 -32 -97 -32c-44 0 -74.333 13.667 -91 41c-10.667 18 -10.334 31.667 0.999023 41c4 3.33301 9.33301 5 16 5
c5.33301 0 9.83301 -3 13.5 -9s6.83398 -12.5 9.50098 -19.5s8.83398 -13.5 18.501 -19.5s22.167 -9 37.5 -9c23.333 0 42.333 7.66699 57 23s23.667 33.666 27 54.999c3.33301 18 1 33.833 -7 47.5s-20.667 22.167 -38 25.5c-6.66699 -6.66699 -13 -14.334 -19 -23.001
c-12 -16 -23.667 -20.667 -35 -14c-9.33301 5.33301 -10.333 13.666 -3 24.999c2 3.33301 4.66699 6.33301 8 9l118 104h-87c-36 0 -59 -12.667 -69 -38l-8 -17h-23l37 103h216l-5 -23l-95 -94c24 -8.66699 42.333 -22.667 55 -42s17 -40.333 13 -63z" />
    <glyph glyph-name="questiondown" unicode="&#xbf;" horiz-adv-x="492" 
d="M356 390c-2.66699 -13.333 -9.49902 -24.6699 -20.499 -34.0029s-22.833 -14 -35.5 -14c-13.333 0 -23.833 4.83301 -31.5 14.5s-10.167 20.834 -7.5 33.501c2 12.667 8.66699 23.834 20 33.501s23.666 14.5 36.999 14.5c12.667 0 22.667 -4.66699 30 -14
s10 -20.666 8 -33.999zM373.001 -70.0039c-5.33301 -31.333 -24.1719 -58.665 -56.5049 -81.998s-71.833 -35 -118.5 -35c-42 0 -77.5 12.5 -106.5 37.5s-39.833 57.167 -32.5 96.5c4.66699 27.333 15.834 51.166 33.501 71.499s37.5 36.333 59.5 48s43.833 22.5 65.5 32.5
s40.667 21.5 57 34.5s25.833 27.5 28.5 43.5c2.66699 15.333 -0.666016 27.5 -9.99902 36.5s-22.666 13.5 -39.999 13.5c-20 0 -42 -7.33301 -66 -22v26c24 18 51 27 81 27c22 0 41 -7.5 57 -22.5s21.333 -36.833 16 -65.5c-4 -20.667 -13.667 -39.167 -29 -55.5
s-32.833 -30.166 -52.5 -41.499l-59.5 -33.5c-20 -11 -37.667 -24.667 -53 -41s-24.666 -34.5 -27.999 -54.5c-4 -23.333 2.16699 -43.833 18.5 -61.5s40.5 -26.5 72.5 -26.5c24.667 0 47.834 7.83301 69.501 23.5s34.5 34.167 38.5 55.5c2.66699 15.333 0 31.666 -8 48.999
l44 20c18 -20.667 24.333 -45.334 19 -74.001z" />
    <glyph glyph-name="Agrave" unicode="&#xc0;" horiz-adv-x="483" 
d="M151 208l-56 -111c-14 -27.333 -17.667 -46.833 -11 -58.5s25.667 -17.5 57 -17.5l-3 -21h-185l4 21c26.667 0 46.167 5.16699 58.5 15.5s27.833 34.166 46.5 71.499l254 509h19l76 -509c6 -37.333 13 -61.166 21 -71.499s25.333 -15.5 52 -15.5l-3 -21h-213l4 21
c30.667 0 51.5 5.83301 62.5 17.5s14.167 31.167 9.5 58.5l-16 111h-177zM323 245l-35 236l-118 -236h153zM342 681l-6 -6l-128 58c-14 8 -19.667 18 -17 30c1.33301 6.66699 5 13.167 11 19.5s13.333 9.5 22 9.5c12.667 0 26 -7.66699 40 -23z" />
    <glyph glyph-name="Aacute" unicode="&#xc1;" horiz-adv-x="483" 
d="M151 208l-56 -111c-14 -27.333 -17.667 -46.833 -11 -58.5s25.667 -17.5 57 -17.5l-3 -21h-185l4 21c26.667 0 46.167 5.16699 58.5 15.5s27.833 34.166 46.5 71.499l254 509h19l76 -509c6 -37.333 13 -61.166 21 -71.499s25.333 -15.5 52 -15.5l-3 -21h-213l4 21
c30.667 0 51.5 5.83301 62.5 17.5s14.167 31.167 9.5 58.5l-16 111h-177zM323 245l-35 236l-118 -236h153zM455 763c-2.66699 -12.667 -12.333 -22.667 -29 -30l-148 -59l-3 7l108 87c20 16 36 24 48 24c9.33301 0 16 -3 20 -9s5.33301 -12.667 4 -20z" />
    <glyph glyph-name="Acircumflex" unicode="&#xc2;" horiz-adv-x="483" 
d="M151 208l-56 -111c-14 -27.333 -17.667 -46.833 -11 -58.5s25.667 -17.5 57 -17.5l-3 -21h-185l4 21c26.667 0 46.167 5.16699 58.5 15.5s27.833 34.166 46.5 71.499l254 509h19l76 -509c6 -37.333 13 -61.166 21 -71.499s25.333 -15.5 52 -15.5l-3 -21h-213l4 21
c30.667 0 51.5 5.83301 62.5 17.5s14.167 31.167 9.5 58.5l-16 111h-177zM323 245l-35 236l-118 -236h153zM428 686l-15 -11l-94 76l-120 -76l-10 11l142 130z" />
    <glyph glyph-name="Atilde" unicode="&#xc3;" horiz-adv-x="483" 
d="M151 208l-56 -111c-14 -27.333 -17.667 -46.833 -11 -58.5s25.667 -17.5 57 -17.5l-3 -21h-185l4 21c26.667 0 46.167 5.16699 58.5 15.5s27.833 34.166 46.5 71.499l254 509h19l76 -509c6 -37.333 13 -61.166 21 -71.499s25.333 -15.5 52 -15.5l-3 -21h-213l4 21
c30.667 0 51.5 5.83301 62.5 17.5s14.167 31.167 9.5 58.5l-16 111h-177zM323 245l-35 236l-118 -236h153zM391 726c20.667 0 37.999 15.999 51.999 47.999h16c-6 -31.333 -16.667 -55.666 -32 -72.999s-33.666 -26 -54.999 -26c-12 0 -31.5 9.16699 -58.5 27.5
s-45.167 27.5 -54.5 27.5c-8.66699 0 -17.834 -4.5 -27.501 -13.5s-17.167 -19.833 -22.5 -32.5h-15c4.66699 28 14.834 51.167 30.501 69.5s32.5 27.5 50.5 27.5c14 0 34 -9.16699 60 -27.5s44.667 -27.5 56 -27.5z" />
    <glyph glyph-name="Adieresis" unicode="&#xc4;" horiz-adv-x="483" 
d="M151 208l-56 -111c-14 -27.333 -17.667 -46.833 -11 -58.5s25.667 -17.5 57 -17.5l-3 -21h-185l4 21c26.667 0 46.167 5.16699 58.5 15.5s27.833 34.166 46.5 71.499l254 509h19l76 -509c6 -37.333 13 -61.166 21 -71.499s25.333 -15.5 52 -15.5l-3 -21h-213l4 21
c30.667 0 51.5 5.83301 62.5 17.5s14.167 31.167 9.5 58.5l-16 111h-177zM323 245l-35 236l-118 -236h153zM268 754c10.667 0 19.167 -3.83301 25.5 -11.5s8.83301 -16.834 7.5 -27.501c-2 -11.333 -7.66699 -20.833 -17 -28.5s-19.333 -11.5 -30 -11.5
s-19.167 3.83301 -25.5 11.5s-8.5 17.167 -6.5 28.5c2 10.667 7.5 19.834 16.5 27.501s18.833 11.5 29.5 11.5zM401 754c10.667 0 19.168 -3.83301 25.501 -11.5s8.5 -16.834 6.5 -27.501s-7.5 -20 -16.5 -28s-18.833 -12 -29.5 -12s-19.167 3.83301 -25.5 11.5
s-8.5 17.167 -6.5 28.5c1.33301 10.667 6.66602 19.834 15.999 27.501s19.333 11.5 30 11.5z" />
    <glyph glyph-name="Aring" unicode="&#xc5;" horiz-adv-x="483" 
d="M366 839c23.333 0 41.5 -8 54.5 -24s17.167 -35.333 12.5 -58c-4 -23.333 -15.333 -43 -34 -59s-39.334 -24 -62.001 -24c-23.333 0 -41.666 8.16699 -54.999 24.5s-18 35.833 -14 58.5c4.66699 23.333 16.5 42.833 35.5 58.5s39.833 23.5 62.5 23.5zM359 803
c-12.667 0 -24.334 -4.5 -35.001 -13.5s-17 -19.833 -19 -32.5s0.666992 -23.5 8 -32.5s17.333 -13.5 30 -13.5s24.334 4.5 35.001 13.5s17 19.833 19 32.5s-0.666992 23.5 -8 32.5s-17.333 13.5 -30 13.5zM151 208l-56 -111c-14 -27.333 -17.667 -46.833 -11 -58.5
s25.667 -17.5 57 -17.5l-3 -21h-185l4 21c26.667 0 46.167 5.16699 58.5 15.5s27.833 34.166 46.5 71.499l254 509h19l76 -509c6 -37.333 13 -61.166 21 -71.499s25.333 -15.5 52 -15.5l-3 -21h-213l4 21c30.667 0 51.5 5.83301 62.5 17.5s14.167 31.167 9.5 58.5l-16 111
h-177zM323 245l-35 236l-118 -236h153z" />
    <glyph glyph-name="AE" unicode="&#xc6;" horiz-adv-x="642" 
d="M199 249l-91 -151.998c-16.667 -27.333 -23 -46.833 -19 -58.5s21.333 -17.5 52 -17.5l-3 -21h-185l4 21c26.667 0 48 6.16699 64 18.5s34 35.166 54 68.499l292 492h286l-16 -132h-16v20c-0.666992 29.333 -5.16699 49.166 -13.5 59.499s-28.5 15.5 -60.5 15.5h-110
l-49 -277h36c38 0 63.167 5.5 75.5 16.5s22.166 37.5 29.499 79.5h16l-41 -229h-16c7.33301 42 7 68.5 -1 79.5s-31 16.5 -69 16.5h-36l-18 -96c-8.66699 -50 -10 -81.833 -4 -95.5s24.667 -20.5 56 -20.5h63c32 0 54.167 5.33301 66.5 16s23.833 30.667 34.5 60l7 20h16
l-30 -133h-373l3 21c31.333 0 52.833 7 64.5 21s21.834 46 30.501 96l20 111h-119zM323 286.002l45 250l-148 -250h103z" />
    <glyph glyph-name="Ccedilla" unicode="&#xc7;" horiz-adv-x="540" 
d="M253 -16l-48.002 -47.998c17.333 -1.33301 32 -8.5 44 -21.5s16 -32.167 12 -57.5c-3.33301 -16.667 -11 -31.834 -23 -45.501s-26 -24.334 -42 -32.001s-29.833 -13.334 -41.5 -17.001s-22.167 -6.16699 -31.5 -7.5l5 27c50 19.333 77.667 44.333 83 75
c2.66699 16.667 -4.16602 28.334 -20.499 35.001s-35.5 6 -57.5 -2l3 14l85 86c-50 14 -87.5 50.167 -112.5 108.5s-30.833 125.5 -17.5 201.5c15.333 87.333 51.166 162 107.499 224s115.833 93 178.5 93c52.667 0 94.334 -28.333 125.001 -85
c8 6.66699 18.333 25.667 31 57h20l-39 -220h-21c2.66699 65.333 -6.66602 116.5 -27.999 153.5s-52.333 55.5 -93 55.5c-34 0 -66 -14.833 -96 -44.5s-53.833 -65 -71.5 -106s-30.5 -83.5 -38.5 -127.5c-6 -43.333 -7.83301 -85.5 -5.5 -126.5s13.5 -76.333 33.5 -106
s46.667 -44.5 80 -44.5c40.667 0 78.167 18.5 112.5 55.5s61.833 87.833 82.5 152.5h21l-39 -220h-21c0 31.333 -3.33301 50.333 -10 57c-50 -56.667 -101.667 -85 -155 -85c-5.33301 0 -9.33301 0.333008 -12 1z" />
    <glyph glyph-name="Egrave" unicode="&#xc8;" horiz-adv-x="448" 
d="M8 0l4.00098 21.002c31.333 0 52.666 7 63.999 21s21.333 46 30 96l57 325c8.66699 50 10 81.833 4 95.5s-24.667 20.5 -56 20.5l3 21h348l-17 -132h-16v20c-0.666992 29.333 -5.16699 49.166 -13.5 59.499s-28.5 15.5 -60.5 15.5h-110l-40 -227h37
c38 0 63.167 5.5 75.5 16.5s21.833 37.5 28.5 79.5h16l-40 -229h-16c7.33301 41.333 6.83301 67.666 -1.5 78.999s-31.5 17 -69.5 17h-37l-25 -146c-9.33301 -50 -10.833 -81.833 -4.5 -95.5s24.833 -20.5 55.5 -20.5h64c32 0 54 5.33301 66 16s23.333 30.667 34 60l7 20h16
l-30 -133h-373zM345.001 681.002l-6 -6l-128 58c-14 8 -19.667 18 -17 30c1.33301 6.66699 5 13.167 11 19.5s13.333 9.5 22 9.5c12.667 0 26 -7.66699 40 -23z" />
    <glyph glyph-name="Eacute" unicode="&#xc9;" horiz-adv-x="448" 
d="M8 0l4.00098 21.002c31.333 0 52.666 7 63.999 21s21.333 46 30 96l57 325c8.66699 50 10 81.833 4 95.5s-24.667 20.5 -56 20.5l3 21h348l-17 -132h-16v20c-0.666992 29.333 -5.16699 49.166 -13.5 59.499s-28.5 15.5 -60.5 15.5h-110l-40 -227h37
c38 0 63.167 5.5 75.5 16.5s21.833 37.5 28.5 79.5h16l-40 -229h-16c7.33301 41.333 6.83301 67.666 -1.5 78.999s-31.5 17 -69.5 17h-37l-25 -146c-9.33301 -50 -10.833 -81.833 -4.5 -95.5s24.833 -20.5 55.5 -20.5h64c32 0 54 5.33301 66 16s23.333 30.667 34 60l7 20h16
l-30 -133h-373zM449.001 764.002c-2.66699 -12.667 -12.333 -22.667 -29 -30l-148 -59l-3 7l108 87c20 16 36 24 48 24c9.33301 0 16 -3 20 -9s5.33301 -12.667 4 -20z" />
    <glyph glyph-name="Ecircumflex" unicode="&#xca;" horiz-adv-x="448" 
d="M8 0l4.00098 21.002c31.333 0 52.666 7 63.999 21s21.333 46 30 96l57 325c8.66699 50 10 81.833 4 95.5s-24.667 20.5 -56 20.5l3 21h348l-17 -132h-16v20c-0.666992 29.333 -5.16699 49.166 -13.5 59.499s-28.5 15.5 -60.5 15.5h-110l-40 -227h37
c38 0 63.167 5.5 75.5 16.5s21.833 37.5 28.5 79.5h16l-40 -229h-16c7.33301 41.333 6.83301 67.666 -1.5 78.999s-31.5 17 -69.5 17h-37l-25 -146c-9.33301 -50 -10.833 -81.833 -4.5 -95.5s24.833 -20.5 55.5 -20.5h64c32 0 54 5.33301 66 16s23.333 30.667 34 60l7 20h16
l-30 -133h-373zM423.001 686.002l-15 -11l-94 76l-120 -76l-10 11l142 130z" />
    <glyph glyph-name="Edieresis" unicode="&#xcb;" horiz-adv-x="448" 
d="M8 0l4.00098 21.002c31.333 0 52.666 7 63.999 21s21.333 46 30 96l57 325c8.66699 50 10 81.833 4 95.5s-24.667 20.5 -56 20.5l3 21h348l-17 -132h-16v20c-0.666992 29.333 -5.16699 49.166 -13.5 59.499s-28.5 15.5 -60.5 15.5h-110l-40 -227h37
c38 0 63.167 5.5 75.5 16.5s21.833 37.5 28.5 79.5h16l-40 -229h-16c7.33301 41.333 6.83301 67.666 -1.5 78.999s-31.5 17 -69.5 17h-37l-25 -146c-9.33301 -50 -10.833 -81.833 -4.5 -95.5s24.833 -20.5 55.5 -20.5h64c32 0 54 5.33301 66 16s23.333 30.667 34 60l7 20h16
l-30 -133h-373zM262.001 753.002c10.667 0 19.167 -3.83301 25.5 -11.5s8.83301 -16.834 7.5 -27.501c-2 -11.333 -7.66699 -20.833 -17 -28.5s-19.333 -11.5 -30 -11.5s-19.167 3.83301 -25.5 11.5s-8.5 17.167 -6.5 28.5c2 10.667 7.5 19.834 16.5 27.501
s18.833 11.5 29.5 11.5zM395.001 753.002c10.667 0 19.168 -3.83301 25.501 -11.5s8.5 -16.834 6.5 -27.501s-7.5 -20 -16.5 -28s-18.833 -12 -29.5 -12s-19.167 3.83301 -25.5 11.5s-8.5 17.167 -6.5 28.5c1.33301 10.667 6.66602 19.834 15.999 27.501
s19.333 11.5 30 11.5z" />
    <glyph glyph-name="Igrave" unicode="&#xcc;" horiz-adv-x="277" 
d="M218 0h-209.999l4 21c31.333 0 52.666 7 63.999 21s21.333 46 30 96l57 325c8.66699 50 10 81.833 4 95.5s-24.667 20.5 -56 20.5l3 21h210l-3 -21c-31.333 0 -52.5 -6.83301 -63.5 -20.5s-20.833 -45.5 -29.5 -95.5l-58 -325c-8.66699 -50 -10 -82 -4 -96
s24.667 -21 56 -21zM247.001 681l-6 -6l-128 58c-14 8 -19.667 18 -17 30c1.33301 6.66699 5 13.167 11 19.5s13.333 9.5 22 9.5c12.667 0 26 -7.66699 40 -23z" />
    <glyph glyph-name="Iacute" unicode="&#xcd;" horiz-adv-x="277" 
d="M218 0h-209.999l4 21c31.333 0 52.666 7 63.999 21s21.333 46 30 96l57 325c8.66699 50 10 81.833 4 95.5s-24.667 20.5 -56 20.5l3 21h210l-3 -21c-31.333 0 -52.5 -6.83301 -63.5 -20.5s-20.833 -45.5 -29.5 -95.5l-58 -325c-8.66699 -50 -10 -82 -4 -96
s24.667 -21 56 -21zM351.001 763c-2.66699 -12.667 -12.333 -22.667 -29 -30l-148 -59l-3 7l108 87c20 16 36 24 48 24c9.33301 0 16 -3 20 -9s5.33301 -12.667 4 -20z" />
    <glyph glyph-name="Icircumflex" unicode="&#xce;" horiz-adv-x="277" 
d="M218 0h-209.999l4 21c31.333 0 52.666 7 63.999 21s21.333 46 30 96l57 325c8.66699 50 10 81.833 4 95.5s-24.667 20.5 -56 20.5l3 21h210l-3 -21c-31.333 0 -52.5 -6.83301 -63.5 -20.5s-20.833 -45.5 -29.5 -95.5l-58 -325c-8.66699 -50 -10 -82 -4 -96
s24.667 -21 56 -21zM322.001 686l-15 -11l-94 76l-120 -76l-10 11l142 130z" />
    <glyph glyph-name="Idieresis" unicode="&#xcf;" horiz-adv-x="277" 
d="M218 0h-209.999l4 21c31.333 0 52.666 7 63.999 21s21.333 46 30 96l57 325c8.66699 50 10 81.833 4 95.5s-24.667 20.5 -56 20.5l3 21h210l-3 -21c-31.333 0 -52.5 -6.83301 -63.5 -20.5s-20.833 -45.5 -29.5 -95.5l-58 -325c-8.66699 -50 -10 -82 -4 -96
s24.667 -21 56 -21zM161.001 753c10.667 0 19.167 -3.83301 25.5 -11.5s8.83301 -16.834 7.5 -27.501c-2 -11.333 -7.66699 -20.833 -17 -28.5s-19.333 -11.5 -30 -11.5s-19.167 3.83301 -25.5 11.5s-8.5 17.167 -6.5 28.5c2 10.667 7.5 19.834 16.5 27.501
s18.833 11.5 29.5 11.5zM294.001 753c10.667 0 19.168 -3.83301 25.501 -11.5s8.5 -16.834 6.5 -27.501s-7.5 -20 -16.5 -28s-18.833 -12 -29.5 -12s-19.167 3.83301 -25.5 11.5s-8.5 17.167 -6.5 28.5c1.33301 10.667 6.66602 19.834 15.999 27.501s19.333 11.5 30 11.5z
" />
    <glyph glyph-name="Eth" unicode="&#xd0;" horiz-adv-x="556" 
d="M198 324h83.001l-8 -44h-83l-22 -127c-9.33301 -50 -10.833 -81.833 -4.5 -95.5s24.833 -20.5 55.5 -20.5h2c122.667 0 199 87.667 229 263c31.333 175.333 -14.334 263 -137.001 263h-73zM131.001 280h-90l8 44v0h1v0h1h1h1h1h1h1h1h1h1h1h1h1h1h1h1h1h1h1h2h1h1h1h1h2
h1h1h2h1h1h2h1h1h2h1h2h1h2h1h2h1h2h2h1h2h1h2h2h1h2h2h1h2h2h2h1h2h2h2h9l25 139c8.66699 50 10 81.833 4 95.5s-24.667 20.5 -56 20.5l3 21h209c83.333 0 140.833 -28 172.5 -84s39.834 -128 24.501 -216c-14.667 -88 -48 -160 -100 -216s-119.333 -84 -202 -84h-210l4 21
c31.333 0 52.666 7 63.999 21s21.333 46 30 96z" />
    <glyph glyph-name="Ntilde" unicode="&#xd1;" horiz-adv-x="612" 
d="M498 426c12.667 74 28.667 124.334 48 151.001s44.333 40 75 40c20 0 35.167 -6.33301 45.5 -19s14.166 -26.334 11.499 -41.001c-3.33301 -19.333 -13.333 -29 -30 -29c-12 0 -19.333 8.16699 -22 24.5s-10.334 24.5 -23.001 24.5c-16.667 0 -30 -13.333 -40 -40
s-19.333 -63 -28 -109l-79 -445h-18l-215 507l-55 -316c-13.333 -73.333 -29.833 -123.5 -49.5 -150.5s-44.834 -40.5 -75.501 -40.5c-20 0 -35 6.5 -45 19.5s-13.667 26.5 -11 40.5c3.33301 19.333 13.333 29 30 29c8 0 13.667 -2.5 17 -7.5s5 -10.667 5 -17
s1.83301 -12 5.5 -17s9.83398 -7.5 18.501 -7.5c28 0 50.333 49.667 67 149l52 291c8.66699 50 9.83398 81.833 3.50098 95.5s-25.166 20.5 -56.499 20.5l4 21h119l196 -460zM458 726.001c20.667 0 37.999 15.999 51.999 47.999h16c-6 -31.333 -16.667 -55.666 -32 -72.999
s-33.666 -26 -54.999 -26c-12 0 -31.5 9.16699 -58.5 27.5s-45.167 27.5 -54.5 27.5c-8.66699 0 -17.834 -4.5 -27.501 -13.5s-17.167 -19.833 -22.5 -32.5h-15c4.66699 28 14.834 51.167 30.501 69.5s32.5 27.5 50.5 27.5c14 0 34 -9.16699 60 -27.5s44.667 -27.5 56 -27.5
z" />
    <glyph glyph-name="Ograve" unicode="&#xd2;" horiz-adv-x="628" 
d="M591 300c-15.333 -87.333 -53 -162 -113 -224s-124.333 -93 -193 -93s-122 31 -160 93s-49.333 136.667 -34 224s53 162 113 224s124.333 93 193 93s122 -31.167 160 -93.5s49.333 -136.833 34 -223.5zM513 300c7.33301 30.667 9.99902 62.5 7.99902 95.5
s-6.83301 63 -14.5 90s-21.667 49.167 -42 66.5s-45.166 26 -74.499 26c-38.667 0 -74.167 -15 -106.5 -45s-57.666 -65.167 -75.999 -105.5s-31.5 -82.833 -39.5 -127.5c-6.66699 -30.667 -9 -62.5 -7 -95.5s7 -62.833 15 -89.5s22.167 -48.667 42.5 -66
s45.166 -26 74.499 -26c38.667 0 74.167 14.833 106.5 44.5s57.5 64.667 75.5 105s30.667 82.833 38 127.5zM423.999 681l-6 -6l-128 58c-14 8 -19.667 18 -17 30c1.33301 6.66699 5 13.167 11 19.5s13.333 9.5 22 9.5c12.667 0 26 -7.66699 40 -23z" />
    <glyph glyph-name="Oacute" unicode="&#xd3;" horiz-adv-x="628" 
d="M591 300c-15.333 -87.333 -53 -162 -113 -224s-124.333 -93 -193 -93s-122 31 -160 93s-49.333 136.667 -34 224s53 162 113 224s124.333 93 193 93s122 -31.167 160 -93.5s49.333 -136.833 34 -223.5zM513 300c7.33301 30.667 9.99902 62.5 7.99902 95.5
s-6.83301 63 -14.5 90s-21.667 49.167 -42 66.5s-45.166 26 -74.499 26c-38.667 0 -74.167 -15 -106.5 -45s-57.666 -65.167 -75.999 -105.5s-31.5 -82.833 -39.5 -127.5c-6.66699 -30.667 -9 -62.5 -7 -95.5s7 -62.833 15 -89.5s22.167 -48.667 42.5 -66
s45.166 -26 74.499 -26c38.667 0 74.167 14.833 106.5 44.5s57.5 64.667 75.5 105s30.667 82.833 38 127.5zM519.999 763c-2.66699 -12.667 -12.333 -22.667 -29 -30l-148 -59l-3 7l108 87c20 16 36 24 48 24c9.33301 0 16 -3 20 -9s5.33301 -12.667 4 -20z" />
    <glyph glyph-name="Ocircumflex" unicode="&#xd4;" horiz-adv-x="628" 
d="M591 300c-15.333 -87.333 -53 -162 -113 -224s-124.333 -93 -193 -93s-122 31 -160 93s-49.333 136.667 -34 224s53 162 113 224s124.333 93 193 93s122 -31.167 160 -93.5s49.333 -136.833 34 -223.5zM513 300c7.33301 30.667 9.99902 62.5 7.99902 95.5
s-6.83301 63 -14.5 90s-21.667 49.167 -42 66.5s-45.166 26 -74.499 26c-38.667 0 -74.167 -15 -106.5 -45s-57.666 -65.167 -75.999 -105.5s-31.5 -82.833 -39.5 -127.5c-6.66699 -30.667 -9 -62.5 -7 -95.5s7 -62.833 15 -89.5s22.167 -48.667 42.5 -66
s45.166 -26 74.499 -26c38.667 0 74.167 14.833 106.5 44.5s57.5 64.667 75.5 105s30.667 82.833 38 127.5zM506.999 686l-15 -11l-94 76l-120 -76l-10 11l142 130z" />
    <glyph glyph-name="Otilde" unicode="&#xd5;" horiz-adv-x="628" 
d="M591 300c-15.333 -87.333 -53 -162 -113 -224s-124.333 -93 -193 -93s-122 31 -160 93s-49.333 136.667 -34 224s53 162 113 224s124.333 93 193 93s122 -31.167 160 -93.5s49.333 -136.833 34 -223.5zM513 300c7.33301 30.667 9.99902 62.5 7.99902 95.5
s-6.83301 63 -14.5 90s-21.667 49.167 -42 66.5s-45.166 26 -74.499 26c-38.667 0 -74.167 -15 -106.5 -45s-57.666 -65.167 -75.999 -105.5s-31.5 -82.833 -39.5 -127.5c-6.66699 -30.667 -9 -62.5 -7 -95.5s7 -62.833 15 -89.5s22.167 -48.667 42.5 -66
s45.166 -26 74.499 -26c38.667 0 74.167 14.833 106.5 44.5s57.5 64.667 75.5 105s30.667 82.833 38 127.5zM467.999 726c20.667 0 37.999 15.999 51.999 47.999h16c-6 -31.333 -16.667 -55.666 -32 -72.999s-33.666 -26 -54.999 -26c-12 0 -31.5 9.16699 -58.5 27.5
s-45.167 27.5 -54.5 27.5c-8.66699 0 -17.834 -4.5 -27.501 -13.5s-17.167 -19.833 -22.5 -32.5h-15c4.66699 28 14.834 51.167 30.501 69.5s32.5 27.5 50.5 27.5c14 0 34 -9.16699 60 -27.5s44.667 -27.5 56 -27.5z" />
    <glyph glyph-name="Odieresis" unicode="&#xd6;" horiz-adv-x="628" 
d="M591 300c-15.333 -87.333 -53 -162 -113 -224s-124.333 -93 -193 -93s-122 31 -160 93s-49.333 136.667 -34 224s53 162 113 224s124.333 93 193 93s122 -31.167 160 -93.5s49.333 -136.833 34 -223.5zM513 300c7.33301 30.667 9.99902 62.5 7.99902 95.5
s-6.83301 63 -14.5 90s-21.667 49.167 -42 66.5s-45.166 26 -74.499 26c-38.667 0 -74.167 -15 -106.5 -45s-57.666 -65.167 -75.999 -105.5s-31.5 -82.833 -39.5 -127.5c-6.66699 -30.667 -9 -62.5 -7 -95.5s7 -62.833 15 -89.5s22.167 -48.667 42.5 -66
s45.166 -26 74.499 -26c38.667 0 74.167 14.833 106.5 44.5s57.5 64.667 75.5 105s30.667 82.833 38 127.5zM330.999 753c10.667 0 19.167 -3.83301 25.5 -11.5s8.83301 -16.834 7.5 -27.501c-2 -11.333 -7.66699 -20.833 -17 -28.5s-19.333 -11.5 -30 -11.5
s-19.167 3.83301 -25.5 11.5s-8.5 17.167 -6.5 28.5c2 10.667 7.5 19.834 16.5 27.501s18.833 11.5 29.5 11.5zM463.999 753c10.667 0 19.168 -3.83301 25.501 -11.5s8.5 -16.834 6.5 -27.501s-7.5 -20 -16.5 -28s-18.833 -12 -29.5 -12s-19.167 3.83301 -25.5 11.5
s-8.5 17.167 -6.5 28.5c1.33301 10.667 6.66602 19.834 15.999 27.501s19.333 11.5 30 11.5z" />
    <glyph glyph-name="multiply" unicode="&#xd7;" 
 />
    <glyph glyph-name="Oslash" unicode="&#xd8;" horiz-adv-x="628" 
d="M492 520l-292.002 -451.999c22.667 -30 53.667 -45 93 -45c38.667 0 74.334 14.833 107.001 44.5s58 64.667 76 105s30.667 82.833 38 127.5c16.667 93.333 9.33398 166.666 -21.999 219.999zM182.998 96.001l288.999 449c-20.667 22 -48 33 -82 33
c-38.667 0 -74.167 -15 -106.5 -45s-57.666 -65.167 -75.999 -105.5s-31.5 -82.833 -39.5 -127.5c-14 -81.333 -9 -149.333 15 -204zM148.997 44.001c-26 30 -44.334 67.333 -55.001 112s-11.667 92.667 -3 144c15.333 87.333 53 162 113 224s124.333 93 193 93
c37.333 0 71 -10.333 101 -31l37 57l24 -18l-37 -57c30.667 -29.333 52.334 -67.5 65.001 -114.5s14 -98.167 4 -153.5c-15.333 -87.333 -53 -162 -113 -224s-124.333 -93 -193 -93c-43.333 0 -81 13.333 -113 40l-43 -66l-24 18z" />
    <glyph glyph-name="Ugrave" unicode="&#xd9;" horiz-adv-x="583" 
d="M628 579c-31.333 0 -52.6689 -6.83301 -64.002 -20.5s-21.333 -45.5 -30 -95.5l-42 -240c-13.333 -75.333 -41.666 -134.166 -84.999 -176.499s-91.333 -63.5 -144 -63.5s-92.834 21.167 -120.501 63.5s-34.834 101.166 -21.501 176.499l42 240
c9.33301 50 10.833 81.833 4.5 95.5s-24.833 20.5 -55.5 20.5l3 21h209l-3 -21c-31.333 0 -52.5 -6.83301 -63.5 -20.5s-20.833 -45.5 -29.5 -95.5l-44 -245c-10.667 -62.667 -6.66699 -110 12 -142s48.667 -48 90 -48c38.667 0 72.834 16 102.501 48
s49.834 79.333 60.501 142l44 245c8.66699 50 9.83398 81.833 3.50098 95.5s-24.833 20.5 -55.5 20.5l3 21h187zM393.997 681l-6 -6l-128 58c-14 8 -19.667 18 -17 30c1.33301 6.66699 5 13.167 11 19.5s13.333 9.5 22 9.5c12.667 0 26 -7.66699 40 -23z" />
    <glyph glyph-name="Uacute" unicode="&#xda;" horiz-adv-x="583" 
d="M628 579c-31.333 0 -52.6689 -6.83301 -64.002 -20.5s-21.333 -45.5 -30 -95.5l-42 -240c-13.333 -75.333 -41.666 -134.166 -84.999 -176.499s-91.333 -63.5 -144 -63.5s-92.834 21.167 -120.501 63.5s-34.834 101.166 -21.501 176.499l42 240
c9.33301 50 10.833 81.833 4.5 95.5s-24.833 20.5 -55.5 20.5l3 21h209l-3 -21c-31.333 0 -52.5 -6.83301 -63.5 -20.5s-20.833 -45.5 -29.5 -95.5l-44 -245c-10.667 -62.667 -6.66699 -110 12 -142s48.667 -48 90 -48c38.667 0 72.834 16 102.501 48
s49.834 79.333 60.501 142l44 245c8.66699 50 9.83398 81.833 3.50098 95.5s-24.833 20.5 -55.5 20.5l3 21h187zM515.997 763c-2.66699 -12.667 -12.333 -22.667 -29 -30l-148 -59l-3 7l108 87c20 16 36 24 48 24c9.33301 0 16 -3 20 -9s5.33301 -12.667 4 -20z" />
    <glyph glyph-name="Ucircumflex" unicode="&#xdb;" horiz-adv-x="583" 
d="M628 579c-31.333 0 -52.6689 -6.83301 -64.002 -20.5s-21.333 -45.5 -30 -95.5l-42 -240c-13.333 -75.333 -41.666 -134.166 -84.999 -176.499s-91.333 -63.5 -144 -63.5s-92.834 21.167 -120.501 63.5s-34.834 101.166 -21.501 176.499l42 240
c9.33301 50 10.833 81.833 4.5 95.5s-24.833 20.5 -55.5 20.5l3 21h209l-3 -21c-31.333 0 -52.5 -6.83301 -63.5 -20.5s-20.833 -45.5 -29.5 -95.5l-44 -245c-10.667 -62.667 -6.66699 -110 12 -142s48.667 -48 90 -48c38.667 0 72.834 16 102.501 48
s49.834 79.333 60.501 142l44 245c8.66699 50 9.83398 81.833 3.50098 95.5s-24.833 20.5 -55.5 20.5l3 21h187zM484.997 686l-15 -11l-94 76l-120 -76l-10 11l142 130z" />
    <glyph glyph-name="Udieresis" unicode="&#xdc;" horiz-adv-x="583" 
d="M628 579c-31.333 0 -52.6689 -6.83301 -64.002 -20.5s-21.333 -45.5 -30 -95.5l-42 -240c-13.333 -75.333 -41.666 -134.166 -84.999 -176.499s-91.333 -63.5 -144 -63.5s-92.834 21.167 -120.501 63.5s-34.834 101.166 -21.501 176.499l42 240
c9.33301 50 10.833 81.833 4.5 95.5s-24.833 20.5 -55.5 20.5l3 21h209l-3 -21c-31.333 0 -52.5 -6.83301 -63.5 -20.5s-20.833 -45.5 -29.5 -95.5l-44 -245c-10.667 -62.667 -6.66699 -110 12 -142s48.667 -48 90 -48c38.667 0 72.834 16 102.501 48
s49.834 79.333 60.501 142l44 245c8.66699 50 9.83398 81.833 3.50098 95.5s-24.833 20.5 -55.5 20.5l3 21h187zM329.997 754c10.667 0 19.167 -3.83301 25.5 -11.5s8.83301 -16.834 7.5 -27.501c-2 -11.333 -7.66699 -20.833 -17 -28.5s-19.333 -11.5 -30 -11.5
s-19.167 3.83301 -25.5 11.5s-8.5 17.167 -6.5 28.5c2 10.667 7.5 19.834 16.5 27.501s18.833 11.5 29.5 11.5zM462.997 754c10.667 0 19.168 -3.83301 25.501 -11.5s8.5 -16.834 6.5 -27.501s-7.5 -20 -16.5 -28s-18.833 -12 -29.5 -12s-19.167 3.83301 -25.5 11.5
s-8.5 17.167 -6.5 28.5c1.33301 10.667 6.66602 19.834 15.999 27.501s19.333 11.5 30 11.5z" />
    <glyph glyph-name="Yacute" unicode="&#xdd;" horiz-adv-x="467" 
d="M267 192l-10 -54c-9.33301 -50 -10.833 -82 -4.5 -96s24.833 -21 55.5 -21l-3 -21h-212l4 21c31.333 0 52.666 7 63.999 21s21.333 46 30 96l9 50c17.333 94 23.5 169.667 18.5 227s-14.667 98.333 -29 123s-31.833 37 -52.5 37c-15.333 0 -31.666 -7.66699 -48.999 -23
v23c22.667 23.333 48.334 35 77.001 35c39.333 0 67.666 -22.333 84.999 -67s24.333 -120.667 21 -228c34 94.667 67.833 167.334 101.5 218.001s69.834 76 108.501 76c20 0 35.167 -6.33301 45.5 -19s14.166 -26.334 11.499 -41.001c-4 -18.667 -14 -28 -30 -28
c-8 0 -14 2.5 -18 7.5s-6.33301 10.5 -7 16.5s-3 11.5 -7 16.5s-10 7.5 -18 7.5c-28.667 0 -64.5 -44.333 -107.5 -133s-70.833 -170 -83.5 -244zM480 764c-2.66699 -12.667 -12.333 -22.667 -29 -30l-148 -59l-3 7l108 87c20 16 36 24 48 24c9.33301 0 16 -3 20 -9
s5.33301 -12.667 4 -20z" />
    <glyph glyph-name="Thorn" unicode="&#xde;" horiz-adv-x="368" 
d="M274 167c7.33301 42.667 6.00098 78.5 -3.99902 107.5s-29 43.5 -57 43.5c-26 0 -49.667 -8.33301 -71 -25l-31 -177c-4.66699 -26.667 -1.33398 -48.834 9.99902 -66.501s26.666 -26.5 45.999 -26.5c26.667 0 49.334 13.333 68.001 40s31.667 61.334 39 104.001z
M149.001 333c23.333 11.333 46.3301 17.001 68.9971 17.001c42.667 0 75.667 -17.833 99 -53.5s30.333 -78.834 21 -129.501c-8.66699 -52 -28.667 -95.667 -60 -131s-67.333 -53 -108 -53c-30 0 -55 15.333 -75 46l-25 -142c-8 -50 -8.5 -81.833 -1.5 -95.5
s27.167 -20.5 60.5 -20.5l-4 -21h-214l4 21c34 0 56.833 6.83301 68.5 20.5s21.834 45.5 30.501 95.5l100 567c8.66699 50 10.834 82 6.50098 96s-19.166 21 -44.499 21l3 21l119 25z" />
    <glyph glyph-name="germandbls" unicode="&#xdf;" horiz-adv-x="418" 
d="M363 498c5.33301 25.333 3.16602 46 -6.50098 62s-24.5 24 -44.5 24c-59.333 0 -98 -51.667 -116 -155l-95 -536c-18.667 -106.667 -62 -160 -130 -160c-37.333 0 -62 13.667 -74 41c-9.33301 21.333 -7.33301 38 6 50c6 5.33301 13.333 8 22 8
c9.33301 0 15.666 -3.66699 18.999 -11s4.83301 -15.333 4.5 -24s1.83398 -16.667 6.50098 -24s13 -11 25 -11c15.333 0 27.833 9.83301 37.5 29.5s18.834 53.5 27.501 101.5l53 300l19 105h-79l3 20c34 0 56.833 6.5 68.5 19.5s21.834 43.167 30.501 90.5v1
c11.333 64 34.333 111.333 69 142s74.334 46 119.001 46c36 0 62.667 -12 80 -36s23 -53 17 -87c-4.66699 -25.333 -18.334 -51 -41.001 -77l-68 -77c-22.667 -25.333 -36 -50 -40 -74c0.666992 -14.667 11.334 -32.334 32.001 -53.001l35 -34
c29.333 -27.333 40.666 -58.333 33.999 -93c-6 -32 -20.167 -57.167 -42.5 -75.5s-46.5 -27.5 -72.5 -27.5c-39.333 0 -66.333 13.333 -81 40c-10 18.667 -9 33.334 3 44.001c4 4 9.33301 6.33301 16 7c9.33301 1.33301 15.833 -1 19.5 -7s5.83398 -13 6.50098 -21
s4.66699 -15.5 12 -22.5s19 -10.5 35 -10.5s28.5 5 37.5 15s14.833 21.667 17.5 35c2 12 -0.333008 24.667 -7 38s-14.334 24 -23.001 32l-35 35c-12.667 11.333 -22.167 25.5 -28.5 42.5s-8.16602 33.167 -5.49902 48.5c5.33301 31.333 27.666 71 66.999 119
s61.666 88 66.999 120z" />
    <glyph glyph-name="agrave" unicode="&#xe0;" horiz-adv-x="380" 
d="M249 116l31.001 176.999c-16.667 16.667 -37.334 25 -62.001 25c-28 0 -52.333 -14.5 -73 -43.5s-34.667 -64.833 -42 -107.5c-8 -42 -7.33301 -76.5 2 -103.5s27.666 -40.5 54.999 -40.5c19.333 0 37.833 8.83301 55.5 26.5s28.834 39.834 33.501 66.501z
M237.001 32.999c-12.667 -14.667 -27.833 -26.668 -45.5 -36.001s-34.167 -14 -49.5 -14c-40.667 0 -70.334 17.667 -89.001 53s-23.667 79 -15 131c9.33301 50.667 32 93.834 68 129.501s75 53.5 117 53.5c22.667 0 44.334 -5.66699 65.001 -17h55l-47 -269
c-4.66699 -27.333 -1 -41 11 -41c10 0 23.333 7.33301 40 22v-23c-23.333 -23.333 -45.333 -35 -66 -35c-27.333 0 -42 15.333 -44 46zM300.002 414.998l-6 -6l-128 58c-14 8 -19.667 18 -17 30c1.33301 6.66699 5 13.167 11 19.5s13.333 9.5 22 9.5
c12.667 0 26 -7.66699 40 -23z" />
    <glyph glyph-name="aacute" unicode="&#xe1;" horiz-adv-x="380" 
d="M249 116l31.001 176.999c-16.667 16.667 -37.334 25 -62.001 25c-28 0 -52.333 -14.5 -73 -43.5s-34.667 -64.833 -42 -107.5c-8 -42 -7.33301 -76.5 2 -103.5s27.666 -40.5 54.999 -40.5c19.333 0 37.833 8.83301 55.5 26.5s28.834 39.834 33.501 66.501z
M237.001 32.999c-12.667 -14.667 -27.833 -26.668 -45.5 -36.001s-34.167 -14 -49.5 -14c-40.667 0 -70.334 17.667 -89.001 53s-23.667 79 -15 131c9.33301 50.667 32 93.834 68 129.501s75 53.5 117 53.5c22.667 0 44.334 -5.66699 65.001 -17h55l-47 -269
c-4.66699 -27.333 -1 -41 11 -41c10 0 23.333 7.33301 40 22v-23c-23.333 -23.333 -45.333 -35 -66 -35c-27.333 0 -42 15.333 -44 46zM410.002 496.998c-2.66699 -12.667 -12.333 -22.667 -29 -30l-148 -59l-3 7l108 87c20 16 36 24 48 24c9.33301 0 16 -3 20 -9
s5.33301 -12.667 4 -20z" />
    <glyph glyph-name="acircumflex" unicode="&#xe2;" horiz-adv-x="380" 
d="M249 116l31.001 176.999c-16.667 16.667 -37.334 25 -62.001 25c-28 0 -52.333 -14.5 -73 -43.5s-34.667 -64.833 -42 -107.5c-8 -42 -7.33301 -76.5 2 -103.5s27.666 -40.5 54.999 -40.5c19.333 0 37.833 8.83301 55.5 26.5s28.834 39.834 33.501 66.501z
M237.001 32.999c-12.667 -14.667 -27.833 -26.668 -45.5 -36.001s-34.167 -14 -49.5 -14c-40.667 0 -70.334 17.667 -89.001 53s-23.667 79 -15 131c9.33301 50.667 32 93.834 68 129.501s75 53.5 117 53.5c22.667 0 44.334 -5.66699 65.001 -17h55l-47 -269
c-4.66699 -27.333 -1 -41 11 -41c10 0 23.333 7.33301 40 22v-23c-23.333 -23.333 -45.333 -35 -66 -35c-27.333 0 -42 15.333 -44 46zM358.002 419.998l-15 -11l-94 76l-120 -76l-10 11l142 130z" />
    <glyph glyph-name="atilde" unicode="&#xe3;" horiz-adv-x="380" 
d="M249 116l31.001 176.999c-16.667 16.667 -37.334 25 -62.001 25c-28 0 -52.333 -14.5 -73 -43.5s-34.667 -64.833 -42 -107.5c-8 -42 -7.33301 -76.5 2 -103.5s27.666 -40.5 54.999 -40.5c19.333 0 37.833 8.83301 55.5 26.5s28.834 39.834 33.501 66.501z
M237.001 32.999c-12.667 -14.667 -27.833 -26.668 -45.5 -36.001s-34.167 -14 -49.5 -14c-40.667 0 -70.334 17.667 -89.001 53s-23.667 79 -15 131c9.33301 50.667 32 93.834 68 129.501s75 53.5 117 53.5c22.667 0 44.334 -5.66699 65.001 -17h55l-47 -269
c-4.66699 -27.333 -1 -41 11 -41c10 0 23.333 7.33301 40 22v-23c-23.333 -23.333 -45.333 -35 -66 -35c-27.333 0 -42 15.333 -44 46zM321.002 459.998c20.667 0 37.999 15.999 51.999 47.999h16c-6 -31.333 -16.667 -55.666 -32 -72.999s-33.666 -26 -54.999 -26
c-12 0 -31.5 9.16699 -58.5 27.5s-45.167 27.5 -54.5 27.5c-8.66699 0 -17.834 -4.5 -27.501 -13.5s-17.167 -19.833 -22.5 -32.5h-15c4.66699 28 14.834 51.167 30.501 69.5s32.5 27.5 50.5 27.5c14 0 34 -9.16699 60 -27.5s44.667 -27.5 56 -27.5z" />
    <glyph glyph-name="adieresis" unicode="&#xe4;" horiz-adv-x="380" 
d="M249 116l31.001 176.999c-16.667 16.667 -37.334 25 -62.001 25c-28 0 -52.333 -14.5 -73 -43.5s-34.667 -64.833 -42 -107.5c-8 -42 -7.33301 -76.5 2 -103.5s27.666 -40.5 54.999 -40.5c19.333 0 37.833 8.83301 55.5 26.5s28.834 39.834 33.501 66.501z
M237.001 32.999c-12.667 -14.667 -27.833 -26.668 -45.5 -36.001s-34.167 -14 -49.5 -14c-40.667 0 -70.334 17.667 -89.001 53s-23.667 79 -15 131c9.33301 50.667 32 93.834 68 129.501s75 53.5 117 53.5c22.667 0 44.334 -5.66699 65.001 -17h55l-47 -269
c-4.66699 -27.333 -1 -41 11 -41c10 0 23.333 7.33301 40 22v-23c-23.333 -23.333 -45.333 -35 -66 -35c-27.333 0 -42 15.333 -44 46zM204.002 486.998c10.667 0 19.167 -3.83301 25.5 -11.5s8.83301 -16.834 7.5 -27.501c-2 -11.333 -7.66699 -20.833 -17 -28.5
s-19.333 -11.5 -30 -11.5s-19.167 3.83301 -25.5 11.5s-8.5 17.167 -6.5 28.5c2 10.667 7.5 19.834 16.5 27.501s18.833 11.5 29.5 11.5zM337.002 486.998c10.667 0 19.168 -3.83301 25.501 -11.5s8.5 -16.834 6.5 -27.501s-7.5 -20 -16.5 -28s-18.833 -12 -29.5 -12
s-19.167 3.83301 -25.5 11.5s-8.5 17.167 -6.5 28.5c1.33301 10.667 6.66602 19.834 15.999 27.501s19.333 11.5 30 11.5z" />
    <glyph glyph-name="aring" unicode="&#xe5;" horiz-adv-x="380" 
d="M249 116l31.001 176.999c-16.667 16.667 -37.334 25 -62.001 25c-28 0 -52.333 -14.5 -73 -43.5s-34.667 -64.833 -42 -107.5c-8 -42 -7.33301 -76.5 2 -103.5s27.666 -40.5 54.999 -40.5c19.333 0 37.833 8.83301 55.5 26.5s28.834 39.834 33.501 66.501z
M237.001 32.999c-12.667 -14.667 -27.833 -26.668 -45.5 -36.001s-34.167 -14 -49.5 -14c-40.667 0 -70.334 17.667 -89.001 53s-23.667 79 -15 131c9.33301 50.667 32 93.834 68 129.501s75 53.5 117 53.5c22.667 0 44.334 -5.66699 65.001 -17h55l-47 -269
c-4.66699 -27.333 -1 -41 11 -41c10 0 23.333 7.33301 40 22v-23c-23.333 -23.333 -45.333 -35 -66 -35c-27.333 0 -42 15.333 -44 46zM281.002 571.998c22.667 0 40.5 -8 53.5 -24s17.5 -35.333 13.5 -58c-4 -23.333 -15.5 -43 -34.5 -59s-39.833 -24 -62.5 -24
s-40.667 8.16699 -54 24.5s-18 35.833 -14 58.5s15.5 42 34.5 58s40.167 24 63.5 24zM274.002 535.998c-12.667 0 -24.335 -4.5 -35.002 -13.5s-17 -19.833 -19 -32.5s0.5 -23.5 7.5 -32.5s16.833 -13.5 29.5 -13.5s24.334 4.5 35.001 13.5s17 19.833 19 32.5
c2.66699 12.667 0.333984 23.5 -6.99902 32.5s-17.333 13.5 -30 13.5z" />
    <glyph glyph-name="ae" unicode="&#xe6;" horiz-adv-x="501" 
d="M226 83c-17.333 -31.333 -38.666 -55.166 -63.999 -71.499s-50.333 -24.5 -75 -24.5c-22 0 -38.833 7.5 -50.5 22.5s-15.167 35.5 -10.5 61.5c12 68.667 81.667 116 209 142v1c7.33301 37.333 8.66602 64 3.99902 80s-18.334 24 -41.001 24
c-13.333 0 -26.5 -4.33301 -39.5 -13s-20.833 -20.334 -23.5 -35.001c-1.33301 -10 -5.33301 -18.333 -12 -25s-14 -10 -22 -10s-14.167 3.33301 -18.5 10s-5.83301 15 -4.5 25c4.66699 23.333 18.834 42.5 42.501 57.5s49.5 22.5 77.5 22.5c53.333 0 83.333 -19 90 -57
c36 38 72.667 57 110 57c26 0 45.833 -8.33301 59.5 -25s18.5 -37 14.5 -61c-5.33301 -28.667 -24.166 -56.334 -56.499 -83.001s-77.5 -46 -135.5 -58c-0.666992 -31.333 5.66602 -55.833 18.999 -73.5s33.333 -26.5 60 -26.5c28.667 0 59 15.333 91 46l9 -20
c-16.667 -19.333 -36.667 -35.166 -60 -47.499s-45.333 -18.5 -66 -18.5c-28 0 -51.333 9 -70 27s-31 42.333 -37 73zM220 128l9.00098 54c-44.667 -11.333 -78.667 -24.833 -102 -40.5s-37 -36.834 -41 -63.501c-2.66699 -14 -0.833984 -25.167 5.49902 -33.5
s15.166 -12.5 26.499 -12.5c18 0 36.333 8.33301 55 25s34.334 40.334 47.001 71.001zM283.001 150c40 10 71.832 25.667 95.499 47s37.834 43.333 42.501 66c2 13.333 0.5 24.5 -4.5 33.5s-13.167 13.5 -24.5 13.5c-24 0 -45.833 -13 -65.5 -39s-33.5 -61 -41.5 -105
c-1.33301 -8 -2 -13.333 -2 -16z" />
    <glyph glyph-name="ccedilla" unicode="&#xe7;" horiz-adv-x="292" 
d="M142 -17l-46.998 -47c17.333 -1.33301 32 -8.5 44 -21.5s16 -32.167 12 -57.5c-3.33301 -16.667 -11 -31.834 -23 -45.501s-26 -24.334 -42 -32.001s-29.833 -13.334 -41.5 -17.001s-22.167 -6.16699 -31.5 -7.5l5 27c50 19.333 77.667 44.333 83 75
c2.66699 16.667 -4.16602 28.334 -20.499 35.001s-35.5 6 -57.5 -2l3 14l82 83c-30 8 -51.167 27.5 -63.5 58.5s-14.833 68.5 -7.5 112.5c10 56 32 102 66 138s67.333 54 100 54c29.333 0 50.5 -7.16699 63.5 -21.5s18.167 -29.166 15.5 -44.499c-4 -22 -16.333 -33 -37 -33
c-9.33301 0 -15.833 3.5 -19.5 10.5s-5.33398 14.667 -5.00098 23s-1.16699 16 -4.5 23s-9.33301 10.5 -18 10.5c-18.667 0 -38.334 -14.167 -59.001 -42.5s-35.334 -67.5 -44.001 -117.5c-7.33301 -41.333 -5 -74.166 7 -98.499s33 -36.5 63 -36.5
c28.667 0 58 15.333 88 46l10 -20c-36.667 -42 -77 -64 -121 -66z" />
    <glyph glyph-name="egrave" unicode="&#xe8;" horiz-adv-x="313" 
d="M94 150c40.667 10 72.832 25.667 96.499 47s37.834 43.333 42.501 66c2 14 0.5 25.333 -4.5 34s-13.5 13 -25.5 13c-23.333 0 -44.833 -13 -64.5 -39s-33.5 -61 -41.5 -105c-0.666992 -4 -1.66699 -9.33301 -3 -16zM91.998 123
c-0.666992 -31.333 5.66797 -55.834 19.001 -73.501s33.333 -26.5 60 -26.5c28.667 0 59 15.333 91 46l9 -20c-17.333 -19.333 -37.5 -35.166 -60.5 -47.499s-44.833 -18.5 -65.5 -18.5c-40.667 0 -70.834 17.833 -90.501 53.5s-25.167 79.167 -16.5 130.5
c10 51.333 32.167 94.666 66.5 129.999s69.5 53 105.5 53c26 0 45.833 -8.33301 59.5 -25s18.167 -37 13.5 -61c-5.33301 -29.333 -24 -57.166 -56 -83.499s-77 -45.5 -135 -57.5zM275 414.999l-6 -6l-128 58c-14 8 -19.667 18 -17 30c1.33301 6.66699 5 13.167 11 19.5
s13.333 9.5 22 9.5c12.667 0 26 -7.66699 40 -23z" />
    <glyph glyph-name="eacute" unicode="&#xe9;" horiz-adv-x="313" 
d="M94 150c40.667 10 72.832 25.667 96.499 47s37.834 43.333 42.501 66c2 14 0.5 25.333 -4.5 34s-13.5 13 -25.5 13c-23.333 0 -44.833 -13 -64.5 -39s-33.5 -61 -41.5 -105c-0.666992 -4 -1.66699 -9.33301 -3 -16zM91.998 123
c-0.666992 -31.333 5.66797 -55.834 19.001 -73.501s33.333 -26.5 60 -26.5c28.667 0 59 15.333 91 46l9 -20c-17.333 -19.333 -37.5 -35.166 -60.5 -47.499s-44.833 -18.5 -65.5 -18.5c-40.667 0 -70.834 17.833 -90.501 53.5s-25.167 79.167 -16.5 130.5
c10 51.333 32.167 94.666 66.5 129.999s69.5 53 105.5 53c26 0 45.833 -8.33301 59.5 -25s18.167 -37 13.5 -61c-5.33301 -29.333 -24 -57.166 -56 -83.499s-77 -45.5 -135 -57.5zM341 496.999c-2.66699 -12.667 -12.333 -22.667 -29 -30l-148 -59l-3 7l108 87
c20 16 36 24 48 24c9.33301 0 16 -3 20 -9s5.33301 -12.667 4 -20z" />
    <glyph glyph-name="ecircumflex" unicode="&#xea;" horiz-adv-x="313" 
d="M94 150c40.667 10 72.832 25.667 96.499 47s37.834 43.333 42.501 66c2 14 0.5 25.333 -4.5 34s-13.5 13 -25.5 13c-23.333 0 -44.833 -13 -64.5 -39s-33.5 -61 -41.5 -105c-0.666992 -4 -1.66699 -9.33301 -3 -16zM91.998 123
c-0.666992 -31.333 5.66797 -55.834 19.001 -73.501s33.333 -26.5 60 -26.5c28.667 0 59 15.333 91 46l9 -20c-17.333 -19.333 -37.5 -35.166 -60.5 -47.499s-44.833 -18.5 -65.5 -18.5c-40.667 0 -70.834 17.833 -90.501 53.5s-25.167 79.167 -16.5 130.5
c10 51.333 32.167 94.666 66.5 129.999s69.5 53 105.5 53c26 0 45.833 -8.33301 59.5 -25s18.167 -37 13.5 -61c-5.33301 -29.333 -24 -57.166 -56 -83.499s-77 -45.5 -135 -57.5zM339 419.999l-15 -11l-94 76l-120 -76l-10 11l142 130z" />
    <glyph glyph-name="edieresis" unicode="&#xeb;" horiz-adv-x="313" 
d="M94 150c40.667 10 72.832 25.667 96.499 47s37.834 43.333 42.501 66c2 14 0.5 25.333 -4.5 34s-13.5 13 -25.5 13c-23.333 0 -44.833 -13 -64.5 -39s-33.5 -61 -41.5 -105c-0.666992 -4 -1.66699 -9.33301 -3 -16zM91.998 123
c-0.666992 -31.333 5.66797 -55.834 19.001 -73.501s33.333 -26.5 60 -26.5c28.667 0 59 15.333 91 46l9 -20c-17.333 -19.333 -37.5 -35.166 -60.5 -47.499s-44.833 -18.5 -65.5 -18.5c-40.667 0 -70.834 17.833 -90.501 53.5s-25.167 79.167 -16.5 130.5
c10 51.333 32.167 94.666 66.5 129.999s69.5 53 105.5 53c26 0 45.833 -8.33301 59.5 -25s18.167 -37 13.5 -61c-5.33301 -29.333 -24 -57.166 -56 -83.499s-77 -45.5 -135 -57.5zM162 486.999c10.667 0 19.167 -3.83301 25.5 -11.5s8.83301 -16.834 7.5 -27.501
c-2 -11.333 -7.66699 -20.833 -17 -28.5s-19.333 -11.5 -30 -11.5s-19.167 3.83301 -25.5 11.5s-8.5 17.167 -6.5 28.5c2 10.667 7.5 19.834 16.5 27.501s18.833 11.5 29.5 11.5zM295 486.999c10.667 0 19.168 -3.83301 25.501 -11.5s8.5 -16.834 6.5 -27.501
s-7.5 -20 -16.5 -28s-18.833 -12 -29.5 -12s-19.167 3.83301 -25.5 11.5s-8.5 17.167 -6.5 28.5c1.33301 10.667 6.66602 19.834 15.999 27.501s19.333 11.5 30 11.5z" />
    <glyph glyph-name="igrave" unicode="&#xec;" horiz-adv-x="206" 
d="M118 64c-6 -27.333 -2.66699 -40.999 10 -40.999c12 0 25.333 7.33301 40 22v-23c-23.333 -23.333 -45 -35 -65 -35c-17.333 0 -29.666 6.5 -36.999 19.5s-9.33301 29.833 -6 50.5l38 212c4.66699 28 1 42 -11 42c-5.33301 0 -12.333 -2.66699 -21 -8
s-15 -10.333 -19 -15v24c21.333 22.667 43 34 65 34c17.333 0 29.666 -6.33301 36.999 -19s9.33301 -29.334 6 -50.001zM169 411.001l-6 -6l-128 58c-14 8 -19.667 18 -17 30c1.33301 6.66699 5 13.167 11 19.5s13.333 9.5 22 9.5c12.667 0 26 -7.66699 40 -23z" />
    <glyph glyph-name="iacute" unicode="&#xed;" horiz-adv-x="206" 
d="M118 64c-6 -27.333 -2.66699 -40.999 10 -40.999c12 0 25.333 7.33301 40 22v-23c-23.333 -23.333 -45 -35 -65 -35c-17.333 0 -29.666 6.5 -36.999 19.5s-9.33301 29.833 -6 50.5l38 212c4.66699 28 1 42 -11 42c-5.33301 0 -12.333 -2.66699 -21 -8
s-15 -10.333 -19 -15v24c21.333 22.667 43 34 65 34c17.333 0 29.666 -6.33301 36.999 -19s9.33301 -29.334 6 -50.001zM283 497.001c-2.66699 -12.667 -12.333 -22.667 -29 -30l-148 -59l-3 7l108 87c20 16 36 24 48 24c9.33301 0 16 -3 20 -9s5.33301 -12.667 4 -20z" />
    <glyph glyph-name="icircumflex" unicode="&#xee;" horiz-adv-x="206" 
d="M118 64c-6 -27.333 -2.66699 -40.999 10 -40.999c12 0 25.333 7.33301 40 22v-23c-23.333 -23.333 -45 -35 -65 -35c-17.333 0 -29.666 6.5 -36.999 19.5s-9.33301 29.833 -6 50.5l38 212c4.66699 28 1 42 -11 42c-5.33301 0 -12.333 -2.66699 -21 -8
s-15 -10.333 -19 -15v24c21.333 22.667 43 34 65 34c17.333 0 29.666 -6.33301 36.999 -19s9.33301 -29.334 6 -50.001zM251 419.001l-15 -11l-94 76l-120 -76l-10 11l142 130z" />
    <glyph glyph-name="idieresis" unicode="&#xef;" horiz-adv-x="206" 
d="M118 64c-6 -27.333 -2.66699 -40.999 10 -40.999c12 0 25.333 7.33301 40 22v-23c-23.333 -23.333 -45 -35 -65 -35c-17.333 0 -29.666 6.5 -36.999 19.5s-9.33301 29.833 -6 50.5l38 212c4.66699 28 1 42 -11 42c-5.33301 0 -12.333 -2.66699 -21 -8
s-15 -10.333 -19 -15v24c21.333 22.667 43 34 65 34c17.333 0 29.666 -6.33301 36.999 -19s9.33301 -29.334 6 -50.001zM73 487.001c10.667 0 19.167 -3.83301 25.5 -11.5s8.83301 -16.834 7.5 -27.501c-2 -11.333 -7.66699 -20.833 -17 -28.5s-19.333 -11.5 -30 -11.5
s-19.167 3.83301 -25.5 11.5s-8.5 17.167 -6.5 28.5c2 10.667 7.5 19.834 16.5 27.501s18.833 11.5 29.5 11.5zM206 487.001c10.667 0 19.168 -3.83301 25.501 -11.5s8.5 -16.834 6.5 -27.501s-7.5 -20 -16.5 -28s-18.833 -12 -29.5 -12s-19.167 3.83301 -25.5 11.5
s-8.5 17.167 -6.5 28.5c1.33301 10.667 6.66602 19.834 15.999 27.501s19.333 11.5 30 11.5z" />
    <glyph glyph-name="eth" unicode="&#xf0;" horiz-adv-x="488" 
d="M375 244c-1.33301 20.667 -12.3301 38.167 -32.9971 52.5s-44.334 21.5 -71.001 21.5c-37.333 0 -68.5 -14.333 -93.5 -43s-41.5 -63 -49.5 -103c-6.66699 -40.667 -2.5 -75.667 12.5 -105s41.167 -44 78.5 -44c8 0 16.333 1.33301 25 4s19.5 8.66699 32.5 18
s25.167 21.5 36.5 36.5s22.666 36.5 33.999 64.5s20.666 60.667 27.999 98zM396.003 578l104.999 68.002l23 -28c-70.667 -46.667 -106.334 -70 -107.001 -70c39.333 -71.333 48.333 -165.333 27 -282c-9.33301 -54.667 -23.666 -101.834 -42.999 -141.501
s-40.5 -69 -63.5 -88s-44.833 -32.667 -65.5 -41s-40.667 -12.5 -60 -12.5c-50 0 -89.667 18.5 -119 55.5s-39.333 81.167 -30 132.5s35 95.333 77 132s88 55 138 55c24.667 0 46.334 -5.5 65.001 -16.5s32 -25.167 40 -42.5c14 96.667 11.667 170.667 -7 222l-135 -89
l-23 28l142 93c-16 23.333 -38.333 35 -67 35c-17.333 0 -33.5 -4.66699 -48.5 -14s-26.167 -18.833 -33.5 -28.5s-15.833 -17.5 -25.5 -23.5s-17.5 -5.66699 -23.5 1c-15.333 12 -12 28.667 10 50c28.667 27.333 66 42.666 112 45.999c5.33301 0.666992 10.333 1 15 1
c40 0 72.333 -14 97 -42z" />
    <glyph glyph-name="ntilde" unicode="&#xf1;" horiz-adv-x="401" 
d="M106 0l-55.9961 0.000976562l48 269c4.66699 28 1 42 -11 42c-5.33301 0 -12.333 -2.66699 -21 -8s-15 -10.333 -19 -15v24c21.333 22.667 43 34 65 34c17.333 0 29.666 -6.33301 36.999 -19s9.33301 -29.334 6 -50.001l-2 -9c15.333 25.333 33.166 45.333 53.499 60
s41.166 22 62.499 22c32.667 0 54.667 -13.667 66 -41s13 -63.333 5 -108l-23 -137c-4.66699 -27.333 -1 -41 11 -41c10 0 23.333 7.33301 40 22v-23c-23.333 -23.333 -45.333 -35 -66 -35c-16.667 0 -28.834 6.5 -36.501 19.5s-9.83398 29.833 -6.50098 50.5l24 139
c13.333 71.333 -0.666992 107 -42 107c-19.333 0 -40.166 -13.833 -62.499 -41.5s-37.5 -65.167 -45.5 -112.5zM303.004 460.001c20.667 0 37.999 15.999 51.999 47.999h16c-6 -31.333 -16.667 -55.666 -32 -72.999s-33.666 -26 -54.999 -26c-12 0 -31.5 9.16699 -58.5 27.5
s-45.167 27.5 -54.5 27.5c-8.66699 0 -17.834 -4.5 -27.501 -13.5s-17.167 -19.833 -22.5 -32.5h-15c4.66699 28 14.834 51.167 30.501 69.5s32.5 27.5 50.5 27.5c14 0 34 -9.16699 60 -27.5s44.667 -27.5 56 -27.5z" />
    <glyph glyph-name="ograve" unicode="&#xf2;" horiz-adv-x="379" 
d="M341 167c-9.33301 -50.667 -31.834 -94 -67.501 -130s-74.167 -54 -115.5 -54c-42 0 -74.667 18 -98 54s-30.666 79.333 -21.999 130c9.33301 50.667 32 93.834 68 129.501s75 53.5 117 53.5c41.333 0 73.5 -17.833 96.5 -53.5s30.167 -78.834 21.5 -129.501z
M276.999 167c8 44.667 7.16504 81.167 -2.50195 109.5s-28.5 42.5 -56.5 42.5c-28.667 0 -53 -14.167 -73 -42.5s-34 -64.833 -42 -109.5s-7.16699 -81.334 2.5 -110.001s28.834 -43 57.501 -43s52.834 14.333 72.501 43s33.5 65.334 41.5 110.001zM269.997 416l-6 -6
l-128 58c-14 8 -19.667 18 -17 30c1.33301 6.66699 5 13.167 11 19.5s13.333 9.5 22 9.5c12.667 0 26 -7.66699 40 -23z" />
    <glyph glyph-name="oacute" unicode="&#xf3;" horiz-adv-x="379" 
d="M341 167c-9.33301 -50.667 -31.834 -94 -67.501 -130s-74.167 -54 -115.5 -54c-42 0 -74.667 18 -98 54s-30.666 79.333 -21.999 130c9.33301 50.667 32 93.834 68 129.501s75 53.5 117 53.5c41.333 0 73.5 -17.833 96.5 -53.5s30.167 -78.834 21.5 -129.501z
M276.999 167c8 44.667 7.16504 81.167 -2.50195 109.5s-28.5 42.5 -56.5 42.5c-28.667 0 -53 -14.167 -73 -42.5s-34 -64.833 -42 -109.5s-7.16699 -81.334 2.5 -110.001s28.834 -43 57.501 -43s52.834 14.333 72.501 43s33.5 65.334 41.5 110.001zM364.997 497
c-2.66699 -12.667 -12.333 -22.667 -29 -30l-148 -59l-3 7l108 87c20 16 36 24 48 24c9.33301 0 16 -3 20 -9s5.33301 -12.667 4 -20z" />
    <glyph glyph-name="ocircumflex" unicode="&#xf4;" horiz-adv-x="379" 
d="M341 167c-9.33301 -50.667 -31.834 -94 -67.501 -130s-74.167 -54 -115.5 -54c-42 0 -74.667 18 -98 54s-30.666 79.333 -21.999 130c9.33301 50.667 32 93.834 68 129.501s75 53.5 117 53.5c41.333 0 73.5 -17.833 96.5 -53.5s30.167 -78.834 21.5 -129.501z
M276.999 167c8 44.667 7.16504 81.167 -2.50195 109.5s-28.5 42.5 -56.5 42.5c-28.667 0 -53 -14.167 -73 -42.5s-34 -64.833 -42 -109.5s-7.16699 -81.334 2.5 -110.001s28.834 -43 57.501 -43s52.834 14.333 72.501 43s33.5 65.334 41.5 110.001zM347.997 420l-15 -11
l-94 76l-120 -76l-10 11l142 130z" />
    <glyph glyph-name="otilde" unicode="&#xf5;" horiz-adv-x="379" 
d="M341 167c-9.33301 -50.667 -31.834 -94 -67.501 -130s-74.167 -54 -115.5 -54c-42 0 -74.667 18 -98 54s-30.666 79.333 -21.999 130c9.33301 50.667 32 93.834 68 129.501s75 53.5 117 53.5c41.333 0 73.5 -17.833 96.5 -53.5s30.167 -78.834 21.5 -129.501z
M276.999 167c8 44.667 7.16504 81.167 -2.50195 109.5s-28.5 42.5 -56.5 42.5c-28.667 0 -53 -14.167 -73 -42.5s-34 -64.833 -42 -109.5s-7.16699 -81.334 2.5 -110.001s28.834 -43 57.501 -43s52.834 14.333 72.501 43s33.5 65.334 41.5 110.001zM301.997 460
c20.667 0 37.999 15.999 51.999 47.999h16c-6 -31.333 -16.667 -55.666 -32 -72.999s-33.666 -26 -54.999 -26c-12 0 -31.5 9.16699 -58.5 27.5s-45.167 27.5 -54.5 27.5c-8.66699 0 -17.834 -4.5 -27.501 -13.5s-17.167 -19.833 -22.5 -32.5h-15
c4.66699 28 14.834 51.167 30.501 69.5s32.5 27.5 50.5 27.5c14 0 34 -9.16699 60 -27.5s44.667 -27.5 56 -27.5z" />
    <glyph glyph-name="odieresis" unicode="&#xf6;" horiz-adv-x="379" 
d="M341 167c-9.33301 -50.667 -31.834 -94 -67.501 -130s-74.167 -54 -115.5 -54c-42 0 -74.667 18 -98 54s-30.666 79.333 -21.999 130c9.33301 50.667 32 93.834 68 129.501s75 53.5 117 53.5c41.333 0 73.5 -17.833 96.5 -53.5s30.167 -78.834 21.5 -129.501z
M276.999 167c8 44.667 7.16504 81.167 -2.50195 109.5s-28.5 42.5 -56.5 42.5c-28.667 0 -53 -14.167 -73 -42.5s-34 -64.833 -42 -109.5s-7.16699 -81.334 2.5 -110.001s28.834 -43 57.501 -43s52.834 14.333 72.501 43s33.5 65.334 41.5 110.001zM170.997 487
c10.667 0 19.167 -3.83301 25.5 -11.5s8.83301 -16.834 7.5 -27.501c-2 -11.333 -7.66699 -20.833 -17 -28.5s-19.333 -11.5 -30 -11.5s-19.167 3.83301 -25.5 11.5s-8.5 17.167 -6.5 28.5c2 10.667 7.5 19.834 16.5 27.501s18.833 11.5 29.5 11.5zM303.997 487
c10.667 0 19.168 -3.83301 25.501 -11.5s8.5 -16.834 6.5 -27.501s-7.5 -20 -16.5 -28s-18.833 -12 -29.5 -12s-19.167 3.83301 -25.5 11.5s-8.5 17.167 -6.5 28.5c1.33301 10.667 6.66602 19.834 15.999 27.501s19.333 11.5 30 11.5z" />
    <glyph glyph-name="divide" unicode="&#xf7;" horiz-adv-x="458" 
d="M387 208h-292l8 44h291zM268 93c-2.66699 -13.333 -9.66699 -24.833 -21 -34.5s-23.333 -14.5 -36 -14.5s-22.834 4.83301 -30.501 14.5s-10.167 21.167 -7.5 34.5c2.66699 12.667 9.33398 23.834 20.001 33.501s22.334 14.5 35.001 14.5s23.167 -4.83301 31.5 -14.5
s11.166 -20.834 8.49902 -33.501zM317 367c-2.66699 -13.333 -9.83301 -24.833 -21.5 -34.5s-23.834 -14.5 -36.501 -14.5s-22.667 4.83301 -30 14.5s-9.66602 21.167 -6.99902 34.5c2 13.333 8.5 24.666 19.5 33.999s22.833 14 35.5 14s23 -4.66699 31 -14
s11 -20.666 9 -33.999z" />
    <glyph glyph-name="oslash" unicode="&#xf8;" horiz-adv-x="385" 
d="M277 268l-154.001 -238.002c10.667 -10.667 24 -16 40 -16c28.667 0 52.834 14.333 72.501 43s33.5 65.334 41.5 110.001c7.33301 40.667 7.33301 74.334 0 101.001zM104.999 57.998l155.999 240.999c-10 13.333 -24.333 20 -43 20c-28.667 0 -53 -14.167 -73 -42.5
s-34 -64.833 -42 -109.5c-7.33301 -45.333 -6.66602 -81.666 2.00098 -108.999zM77.998 14.9971c-37.333 36 -50.667 86.666 -40 151.999c9.33301 50.667 32 93.834 68 129.501s75 53.5 117 53.5c22.667 0 42.667 -5.66699 60 -17l28 43l23 -18l-28 -44
c34.667 -36.667 46.334 -85.667 35.001 -147c-9.33301 -50.667 -31.833 -94 -67.5 -130s-74.167 -54 -115.5 -54c-20.667 0 -39.334 4.66699 -56.001 14l-26 -40l-23 18z" />
    <glyph glyph-name="ugrave" unicode="&#xf9;" horiz-adv-x="401" 
d="M368 22c-23.333 -23.333 -45.3291 -34.999 -65.9961 -34.999c-16.667 0 -28.834 6.5 -36.501 19.5s-9.83398 29.833 -6.50098 50.5l2 8c-14.667 -24.667 -32.5 -44.5 -53.5 -59.5s-42.167 -22.5 -63.5 -22.5c-32 0 -53.833 13.833 -65.5 41.5s-13.5 63.834 -5.5 108.501
l25 136c4.66699 28 1 42 -11 42c-5.33301 0 -12.333 -2.66699 -21 -8s-15 -10.333 -19 -15v24c21.333 22.667 43 34 65 34c17.333 0 29.666 -6.33301 36.999 -19s9.33301 -29.334 6 -50.001l-25 -139c-13.333 -71.333 1 -107 43 -107c19.333 0 40.166 13.667 62.499 41
s37.833 64.666 46.5 111.999l26 149h56l-47 -269c-4.66699 -27.333 -1 -41 11 -41c10 0 23.333 7.33301 40 22v-23zM278.004 414.001l-6 -6l-128 58c-14 8 -19.667 18 -17 30c1.33301 6.66699 5 13.167 11 19.5s13.333 9.5 22 9.5c12.667 0 26 -7.66699 40 -23z" />
    <glyph glyph-name="uacute" unicode="&#xfa;" horiz-adv-x="401" 
d="M368 22c-23.333 -23.333 -45.3291 -34.999 -65.9961 -34.999c-16.667 0 -28.834 6.5 -36.501 19.5s-9.83398 29.833 -6.50098 50.5l2 8c-14.667 -24.667 -32.5 -44.5 -53.5 -59.5s-42.167 -22.5 -63.5 -22.5c-32 0 -53.833 13.833 -65.5 41.5s-13.5 63.834 -5.5 108.501
l25 136c4.66699 28 1 42 -11 42c-5.33301 0 -12.333 -2.66699 -21 -8s-15 -10.333 -19 -15v24c21.333 22.667 43 34 65 34c17.333 0 29.666 -6.33301 36.999 -19s9.33301 -29.334 6 -50.001l-25 -139c-13.333 -71.333 1 -107 43 -107c19.333 0 40.166 13.667 62.499 41
s37.833 64.666 46.5 111.999l26 149h56l-47 -269c-4.66699 -27.333 -1 -41 11 -41c10 0 23.333 7.33301 40 22v-23zM365.004 496.001c-2.66699 -12.667 -12.333 -22.667 -29 -30l-148 -59l-3 7l108 87c20 16 36 24 48 24c9.33301 0 16 -3 20 -9s5.33301 -12.667 4 -20z" />
    <glyph glyph-name="ucircumflex" unicode="&#xfb;" horiz-adv-x="401" 
d="M368 22c-23.333 -23.333 -45.3291 -34.999 -65.9961 -34.999c-16.667 0 -28.834 6.5 -36.501 19.5s-9.83398 29.833 -6.50098 50.5l2 8c-14.667 -24.667 -32.5 -44.5 -53.5 -59.5s-42.167 -22.5 -63.5 -22.5c-32 0 -53.833 13.833 -65.5 41.5s-13.5 63.834 -5.5 108.501
l25 136c4.66699 28 1 42 -11 42c-5.33301 0 -12.333 -2.66699 -21 -8s-15 -10.333 -19 -15v24c21.333 22.667 43 34 65 34c17.333 0 29.666 -6.33301 36.999 -19s9.33301 -29.334 6 -50.001l-25 -139c-13.333 -71.333 1 -107 43 -107c19.333 0 40.166 13.667 62.499 41
s37.833 64.666 46.5 111.999l26 149h56l-47 -269c-4.66699 -27.333 -1 -41 11 -41c10 0 23.333 7.33301 40 22v-23zM360.004 420.001l-15 -11l-94 76l-120 -76l-10 11l142 130z" />
    <glyph glyph-name="udieresis" unicode="&#xfc;" horiz-adv-x="401" 
d="M368 22c-23.333 -23.333 -45.3291 -34.999 -65.9961 -34.999c-16.667 0 -28.834 6.5 -36.501 19.5s-9.83398 29.833 -6.50098 50.5l2 8c-14.667 -24.667 -32.5 -44.5 -53.5 -59.5s-42.167 -22.5 -63.5 -22.5c-32 0 -53.833 13.833 -65.5 41.5s-13.5 63.834 -5.5 108.501
l25 136c4.66699 28 1 42 -11 42c-5.33301 0 -12.333 -2.66699 -21 -8s-15 -10.333 -19 -15v24c21.333 22.667 43 34 65 34c17.333 0 29.666 -6.33301 36.999 -19s9.33301 -29.334 6 -50.001l-25 -139c-13.333 -71.333 1 -107 43 -107c19.333 0 40.166 13.667 62.499 41
s37.833 64.666 46.5 111.999l26 149h56l-47 -269c-4.66699 -27.333 -1 -41 11 -41c10 0 23.333 7.33301 40 22v-23zM180.004 487.001c10.667 0 19.167 -3.83301 25.5 -11.5s8.83301 -16.834 7.5 -27.501c-2 -11.333 -7.66699 -20.833 -17 -28.5s-19.333 -11.5 -30 -11.5
s-19.167 3.83301 -25.5 11.5s-8.5 17.167 -6.5 28.5c2 10.667 7.5 19.834 16.5 27.501s18.833 11.5 29.5 11.5zM313.004 487.001c10.667 0 19.168 -3.83301 25.501 -11.5s8.5 -16.834 6.5 -27.501s-7.5 -20 -16.5 -28s-18.833 -12 -29.5 -12s-19.167 3.83301 -25.5 11.5
s-8.5 17.167 -6.5 28.5c1.33301 10.667 6.66602 19.834 15.999 27.501s19.333 11.5 30 11.5z" />
    <glyph glyph-name="yacute" unicode="&#xfd;" horiz-adv-x="309" 
d="M151 9c48.667 72.667 77.6709 137.333 87.0039 194c4.66699 26 5.66699 47.167 3 63.5s-6.83398 28.166 -12.501 35.499l-15.5 20c-4.66699 6 -6.66699 11.333 -6 16c1.33301 12.667 9.66602 19 24.999 19c10 0 19 -4.5 27 -13.5s14.167 -23.667 18.5 -44
s3.16602 -47.166 -3.50098 -80.499c-13.333 -78 -46.833 -155.167 -100.5 -231.5s-113.834 -137.666 -180.501 -183.999s-127 -69.5 -181 -69.5c-27.333 0 -47.333 5.33301 -60 16s-18 23 -16 37c1.33301 6.66699 5.33301 13.834 12 21.501s13 11.5 19 11.5
c4 0 7.83301 -2.16699 11.5 -6.5s7 -9.33301 10 -15s8.83301 -10.667 17.5 -15s19.667 -6.5 33 -6.5c35.333 0 75.5 14.167 120.5 42.5s87.833 65.5 128.5 111.5c13.333 89.333 18.5 162.166 15.5 218.499s-9.83301 97.5 -20.5 123.5s-24 39 -40 39
c-6.66699 0 -15 -2.83301 -25 -8.5s-17 -10.834 -21 -15.501v24c21.333 22.667 45.666 34 72.999 34c38 0 64.333 -30.833 79 -92.5s15.334 -143.167 2.00098 -244.5zM348.004 496.999c-2.66699 -12.667 -12.333 -22.667 -29 -30l-148 -59l-3 7l108 87c20 16 36 24 48 24
c9.33301 0 16 -3 20 -9s5.33301 -12.667 4 -20z" />
    <glyph glyph-name="thorn" unicode="&#xfe;" horiz-adv-x="426" 
d="M228 184c32 0 60.832 12.8311 86.499 38.498s41.834 56.834 48.501 93.501s1.66699 67.834 -15 93.501s-41 38.5 -73 38.5h-55l-47 -264h55zM167.999 484.998c6.66699 39.333 6.16699 64.832 -1.5 76.499s-26.167 17.5 -55.5 17.5l3 21h205l-3 -21
c-29.333 0 -49.5 -5.66699 -60.5 -17s-20.5 -37 -28.5 -77h71c46.667 0 82.334 -16.333 107.001 -49s32.667 -72.667 24 -120c-8 -47.333 -30.167 -87.166 -66.5 -119.499s-77.833 -48.5 -124.5 -48.5h-71l-2 -10c-8.66699 -50 -10 -82 -4 -96s24.667 -21 56 -21l-4 -21
h-205l4 21c31.333 0 52.666 7 63.999 21s21.333 46 30 96z" />
    <glyph glyph-name="ydieresis" unicode="&#xff;" horiz-adv-x="309" 
d="M151 9c48.667 72.667 77.6709 137.333 87.0039 194c4.66699 26 5.66699 47.167 3 63.5s-6.83398 28.166 -12.501 35.499l-15.5 20c-4.66699 6 -6.66699 11.333 -6 16c1.33301 12.667 9.66602 19 24.999 19c10 0 19 -4.5 27 -13.5s14.167 -23.667 18.5 -44
s3.16602 -47.166 -3.50098 -80.499c-13.333 -78 -46.833 -155.167 -100.5 -231.5s-113.834 -137.666 -180.501 -183.999s-127 -69.5 -181 -69.5c-27.333 0 -47.333 5.33301 -60 16s-18 23 -16 37c1.33301 6.66699 5.33301 13.834 12 21.501s13 11.5 19 11.5
c4 0 7.83301 -2.16699 11.5 -6.5s7 -9.33301 10 -15s8.83301 -10.667 17.5 -15s19.667 -6.5 33 -6.5c35.333 0 75.5 14.167 120.5 42.5s87.833 65.5 128.5 111.5c13.333 89.333 18.5 162.166 15.5 218.499s-9.83301 97.5 -20.5 123.5s-24 39 -40 39
c-6.66699 0 -15 -2.83301 -25 -8.5s-17 -10.834 -21 -15.501v24c21.333 22.667 45.666 34 72.999 34c38 0 64.333 -30.833 79 -92.5s15.334 -143.167 2.00098 -244.5zM103.004 486.999c10.667 0 19.167 -3.83301 25.5 -11.5s8.83301 -16.834 7.5 -27.501
c-2 -11.333 -7.66699 -20.833 -17 -28.5s-19.333 -11.5 -30 -11.5s-19.167 3.83301 -25.5 11.5s-8.5 17.167 -6.5 28.5c2 10.667 7.5 19.834 16.5 27.501s18.833 11.5 29.5 11.5zM236.004 486.999c10.667 0 19.168 -3.83301 25.501 -11.5s8.5 -16.834 6.5 -27.501
s-7.5 -20 -16.5 -28s-18.833 -12 -29.5 -12s-19.167 3.83301 -25.5 11.5s-8.5 17.167 -6.5 28.5c1.33301 10.667 6.66602 19.834 15.999 27.501s19.333 11.5 30 11.5z" />
    <glyph glyph-name="dotlessi" unicode="&#x131;" horiz-adv-x="206" 
d="M118 64c-6 -27.333 -2.66699 -40.999 10 -40.999c12 0 25.333 7.33301 40 22v-23c-23.333 -23.333 -45 -35 -65 -35c-17.333 0 -29.666 6.5 -36.999 19.5s-9.33301 29.833 -6 50.5l38 212c4.66699 28 1 42 -11 42c-5.33301 0 -12.333 -2.66699 -21 -8
s-15 -10.333 -19 -15v24c21.333 22.667 43 34 65 34c17.333 0 29.666 -6.33301 36.999 -19s9.33301 -29.334 6 -50.001z" />
    <glyph glyph-name="Lslash" unicode="&#x141;" horiz-adv-x="440" 
d="M132 284l-107.999 -71l-20 29l136 89l23 132c8.66699 50 10 81.833 4 95.5s-24.667 20.5 -56 20.5l3 21h205l-3 -21c-31.333 0 -52.5 -6.83301 -63.5 -20.5s-20.833 -45.5 -29.5 -95.5l-16 -88l79 53l21 -29l-109 -71l-30 -175c-9.33301 -50 -10.833 -81.833 -4.5 -95.5
s24.833 -20.5 55.5 -20.5h94c32 0 54 5.33301 66 16s23.333 30.667 34 60l7 20h16l-30 -133h-398l4 21c31.333 0 52.666 7 63.999 21s21.333 46 30 96z" />
    <glyph glyph-name="lslash" unicode="&#x142;" horiz-adv-x="202" 
d="M147 323l-45 -259c-4.66699 -27.333 -1 -41 11 -41c10 0 23.333 7.33301 40 22v-23c-23.333 -23.333 -45.333 -35 -66 -35c-16.667 0 -28.834 6.5 -36.501 19.5s-9.83398 29.833 -6.50098 50.5l40 225l-105 -69l-20 29c2.66699 1.33301 6.16699 3.5 10.5 6.5l24 16
l33 21.5l31.5 20l25 16l9 6l22 126c8.66699 50 10.834 82 6.50098 96s-19.166 21 -44.499 21l3 21l119 25l-43 -246l86 57l21 -29z" />
    <glyph glyph-name="OE" unicode="&#x152;" horiz-adv-x="720" 
d="M448 564c-16.667 9.33301 -36.002 14 -58.002 14c-40 0 -76.333 -15 -109 -45s-57.834 -65 -75.501 -105s-30.5 -82.667 -38.5 -128c-6.66699 -30.667 -9.16699 -62.5 -7.5 -95.5s6.33398 -62.833 14.001 -89.5s21.834 -48.667 42.501 -66s46.334 -26 77.001 -26
c20.667 0 41.667 4.33301 63 13zM367.998 0c-26.667 -11.333 -54.333 -16.999 -83 -16.999c-68.667 0 -122 31 -160 93s-49.333 136.667 -34 224s53 162 113 224s124.333 93 193 93c27.333 0 53 -5.66699 77 -17h255l-16 -132h-16v20
c-0.666992 29.333 -5.16699 49.166 -13.5 59.499s-28.5 15.5 -60.5 15.5h-110l-40 -227h36c38 0 63.167 5.5 75.5 16.5s21.833 37.5 28.5 79.5h16l-40 -229h-16c7.33301 42 7 68.5 -1 79.5s-31 16.5 -69 16.5h-37l-26 -146c-8.66699 -50 -10 -81.833 -4 -95.5
s24.667 -20.5 56 -20.5h63c32 0 54.167 5.33301 66.5 16s23.833 30.667 34.5 60l7 20h15l-30 -133h-280z" />
    <glyph glyph-name="oe" unicode="&#x153;" horiz-adv-x="554" 
d="M277 167c8 44.667 7.16504 81.167 -2.50195 109.5s-28.5 42.5 -56.5 42.5c-28.667 0 -53 -14.167 -73 -42.5s-34 -64.833 -42 -109.5s-7.16699 -81.334 2.5 -110.001s28.834 -43 57.501 -43s52.834 14.333 72.501 43s33.5 65.334 41.5 110.001zM329.998 277
c16.667 22.667 36.166 40.4971 58.499 53.4971s43.833 19.5 64.5 19.5c26 0 45.833 -8.16699 59.5 -24.5s18.5 -36.166 14.5 -59.499c-5.33301 -30 -24.333 -58.5 -57 -85.5s-79 -46.833 -139 -59.5c-1.33301 -28.667 4.83398 -52.167 18.501 -70.5s35.167 -27.5 64.5 -27.5
c28.667 0 59 15.333 91 46l9 -20c-16.667 -19.333 -36.667 -35.166 -60 -47.499s-45.333 -18.5 -66 -18.5c-47.333 0 -80.333 23.667 -99 71c-38.667 -47.333 -82.334 -71 -131.001 -71c-42 0 -74.667 18 -98 54s-30.666 79.333 -21.999 130
c9.33301 50.667 32 93.834 68 129.501s75 53.5 117 53.5c50 0 85.667 -24.333 107 -73zM331.997 147.997c42.667 9.33301 76.167 25.167 100.5 47.5s38.833 45.166 43.5 68.499c2 13.333 0.166992 24.333 -5.5 33s-14.5 13 -26.5 13c-24.667 0 -47.167 -12.667 -67.5 -38
s-34.5 -60.666 -42.5 -105.999c0 -2 -0.333008 -5 -1 -9s-1 -7 -1 -9z" />
    <glyph glyph-name="Scaron" unicode="&#x160;" horiz-adv-x="417" 
d="M79 35c-17.333 -15.333 -29.332 -32.665 -35.999 -51.998h-20l39 220h21c-6 -52 1.16699 -95 21.5 -129s54.5 -51 102.5 -51c23.333 0 46 9.16699 68 27.5s36 43.833 42 76.5c4 25.333 0 48.5 -12 69.5s-35 44.5 -69 70.5l-57 42c-51.333 39.333 -71.333 92 -60 158
c7.33301 42 26 77.5 56 106.5s64.333 43.5 103 43.5c36 0 66.333 -13.667 91 -41c14 12.667 24.333 28 31 46h20l-39 -220h-21c13.333 116.667 -14.667 175 -84 175c-23.333 0 -44.833 -8.66699 -64.5 -26s-31.834 -38.333 -36.501 -63
c-7.33301 -44.667 13.667 -84.667 63 -120l62 -44c62 -45.333 86.667 -101 74 -167c-9.33301 -52.667 -31.5 -94.834 -66.5 -126.501s-73.833 -47.5 -116.5 -47.5c-8.66699 0 -16.834 0.666992 -24.501 2s-15 3.33301 -22 6s-12.833 5.16699 -17.5 7.5
s-10 5.66602 -16 9.99902l-12.5 9c-2.33301 1.66699 -6.16602 5.16699 -11.499 10.5zM416.001 803.001l-143 -129l-96 129l14 12l94 -76l120 76z" />
    <glyph glyph-name="scaron" unicode="&#x161;" horiz-adv-x="242" 
d="M205 86c-6 -32 -20.165 -57.166 -42.498 -75.499s-46.5 -27.5 -72.5 -27.5c-28.667 0 -50.834 7.5 -66.501 22.5s-22.167 30.167 -19.5 45.5c3.33301 15.333 12.666 23 27.999 23c8 0 13.667 -3 17 -9s5.33301 -12.833 6 -20.5s4.83398 -14.5 12.501 -20.5
s19.167 -9 34.5 -9c14 0 26.167 5 36.5 15s16.166 21 17.499 33c2 12 -0.166992 24.667 -6.5 38s-13.833 24 -22.5 32l-36 35c-28 27.333 -39 57.666 -33 90.999c4 24.667 15.5 46 34.5 64s43.833 27 74.5 27c24.667 0 42.667 -6.33301 54 -19s16 -26 14 -40
c-2 -13.333 -9.33301 -20 -22 -20c-7.33301 0 -12.666 2.66699 -15.999 8s-5.33301 11.333 -6 18s-3.66699 12.667 -9 18s-14 8 -26 8c-11.333 0 -21.833 -4 -31.5 -12s-15.834 -18.667 -18.501 -32c-4 -20 6 -42 30 -66l36 -34c28.667 -27.333 39.667 -58.333 33 -93z
M333.002 537.001l-143 -129l-96 129l14 12l94 -76l120 76z" />
    <glyph glyph-name="Ydieresis" unicode="&#x178;" horiz-adv-x="467" 
d="M267 192l-10 -54c-9.33301 -50 -10.833 -82 -4.5 -96s24.833 -21 55.5 -21l-3 -21h-212l4 21c31.333 0 52.666 7 63.999 21s21.333 46 30 96l9 50c17.333 94 23.5 169.667 18.5 227s-14.667 98.333 -29 123s-31.833 37 -52.5 37c-15.333 0 -31.666 -7.66699 -48.999 -23
v23c22.667 23.333 48.334 35 77.001 35c39.333 0 67.666 -22.333 84.999 -67s24.333 -120.667 21 -228c34 94.667 67.833 167.334 101.5 218.001s69.834 76 108.501 76c20 0 35.167 -6.33301 45.5 -19s14.166 -26.334 11.499 -41.001c-4 -18.667 -14 -28 -30 -28
c-8 0 -14 2.5 -18 7.5s-6.33301 10.5 -7 16.5s-3 11.5 -7 16.5s-10 7.5 -18 7.5c-28.667 0 -64.5 -44.333 -107.5 -133s-70.833 -170 -83.5 -244zM267 753c10.667 0 19.167 -3.83301 25.5 -11.5s8.83301 -16.834 7.5 -27.501c-2 -11.333 -7.66699 -20.833 -17 -28.5
s-19.333 -11.5 -30 -11.5s-19.167 3.83301 -25.5 11.5s-8.5 17.167 -6.5 28.5c2 10.667 7.5 19.834 16.5 27.501s18.833 11.5 29.5 11.5zM400 753c10.667 0 19.168 -3.83301 25.501 -11.5s8.5 -16.834 6.5 -27.501s-7.5 -20 -16.5 -28s-18.833 -12 -29.5 -12
s-19.167 3.83301 -25.5 11.5s-8.5 17.167 -6.5 28.5c1.33301 10.667 6.66602 19.834 15.999 27.501s19.333 11.5 30 11.5z" />
    <glyph glyph-name="Zcaron" unicode="&#x17d;" horiz-adv-x="432" 
d="M577 -35c-57.333 -84.667 -115.329 -127 -173.996 -127c-22.667 0 -43.334 8.33301 -62.001 25s-34.167 37 -46.5 61l-35.5 71.5c-11.333 23.667 -24.333 43.834 -39 60.501s-30.334 25 -47.001 25c-22 0 -41 -4.66699 -57 -14s-27.667 -19.833 -35 -31.5
s-15 -22.834 -23 -33.501s-15.333 -16.667 -22 -18c-8 -1.33301 -14.167 1.83398 -18.5 9.50098s-5.5 17.5 -3.5 29.5c6.66699 36 58.167 109.667 154.5 221s178.166 196.666 245.499 255.999c-24 -8.66699 -45.333 -13 -64 -13c-24 0 -51 10.333 -81 31s-56 31 -78 31
c-4 0 -8.16699 -0.5 -12.5 -1.5s-9 -2.83301 -14 -5.5s-9.16699 -5.16699 -12.5 -7.5s-7.5 -5.83301 -12.5 -10.5s-8.66699 -8 -11 -10s-6.33301 -5.66699 -12 -11l-10.5 -10l-9 5c14.667 31.333 32.334 57.666 53.001 78.999s42.334 32 65.001 32s44.667 -7.16699 66 -21.5
s41 -28.5 59 -42.5s34.667 -21 50 -21c18 0 33.167 7 45.5 21s22.166 28.167 29.499 42.5s13.666 21.5 18.999 21.5c14 0 19 -9.66699 15 -29c-4 -22 -30 -58.333 -78 -109c-55.333 -55.333 -110.5 -116.833 -165.5 -184.5s-96.5 -125.5 -124.5 -173.5
c14 3.33301 29.667 5 47 5c29.333 0 54.666 -7.16699 75.999 -21.5s38 -31.666 50 -51.999s23.333 -40.833 34 -61.5s24 -38.167 40 -52.5s35 -21.5 57 -21.5c35.333 0 78.333 22.333 129 67zM431.004 803l-143 -129l-96 129l14 12l94 -76l120 76z" />
    <glyph glyph-name="zcaron" unicode="&#x17e;" horiz-adv-x="282" 
d="M72 67c9.33301 1.33301 17.665 2 24.998 2c20 0 37.167 -5.5 51.5 -16.5s25.166 -23.333 32.499 -37s17 -26 29 -37s25.667 -16.5 41 -16.5c28 0 52 9 72 27l11 -11c-35.333 -54.667 -70.666 -82 -105.999 -82c-16 0 -30.667 7.5 -44 22.5s-24 31.667 -32 50
s-17.667 35 -29 50s-23 22.5 -35 22.5c-16 0 -28.833 -4.5 -38.5 -13.5s-17.5 -18.5 -23.5 -28.5s-11.333 -15.333 -16 -16c-6.66699 -1.33301 -12 0.166992 -16 4.5s-5 12.166 -3 23.499c3.33301 19.333 33.833 60.333 91.5 123s104.5 109.667 140.5 141
c-15.333 -3.33301 -27 -5 -35 -5c-12 0 -27 4 -45 12s-33.667 12 -47 12c-16.667 0 -32 -7.33301 -46 -22l-11 7c9.33301 19.333 20.5 36 33.5 50s26.5 21 40.5 21c16 0 34.833 -8.66699 56.5 -26s37.834 -26 48.501 -26s19.834 4.33301 27.501 13s14 17.334 19 26.001
s9.83301 13 14.5 13c9.33301 0 13 -5.66699 11 -17c-4 -18.667 -19.667 -42 -47 -70c-90.667 -90.667 -147.667 -156 -171 -196zM349.999 537l-143 -129l-96 129l14 12l94 -76l120 76z" />
    <glyph glyph-name="florin" unicode="&#x192;" horiz-adv-x="224" 
d="M108 298h-64.9971l7 35h65l17 99c10 56 30.833 100.833 62.5 134.5s64.167 50.5 97.5 50.5c38.667 0 65 -14.333 79 -43c10 -20.667 8.66699 -37 -4 -49c-5.33301 -4.66699 -12.333 -7 -21 -7c-9.33301 0 -16 3.66699 -20 11s-6.16699 15.333 -6.5 24
s-3.33301 16.667 -9 24s-14.834 11 -27.501 11c-18 0 -36 -13 -54 -39s-31.667 -65 -41 -117l-17 -99h80l-7 -35h-80l-71 -405c-18.667 -106.667 -62.334 -160 -131.001 -160c-36.667 0 -61.334 13.667 -74.001 41c-9.33301 21.333 -7 38 7 50
c5.33301 5.33301 12.666 8 21.999 8s15.666 -3.66699 18.999 -11s4.83301 -15.333 4.5 -24s1.83398 -16.667 6.50098 -24s13 -11 25 -11c15.333 0 27.833 9.83301 37.5 29.5s18.834 53.5 27.501 101.5z" />
    <glyph glyph-name="circumflex" unicode="&#x2c6;" horiz-adv-x="342" 
d="M342 533l-15 -11l-94 76l-120 -76l-10 11l142 130z" />
    <glyph glyph-name="caron" unicode="&#x2c7;" horiz-adv-x="340" 
d="M353 665l-143 -129l-96 129l14 12l94 -76l120 76z" />
    <glyph glyph-name="breve" unicode="&#x2d8;" horiz-adv-x="308" 
d="M316 662c-4.66699 -27.333 -16.668 -49.168 -36.001 -65.501s-41.666 -24.5 -66.999 -24.5c-24.667 0 -43.667 8.33301 -57 25s-17.666 38.334 -12.999 65.001h15c2.66699 -14 9.66699 -25.5 21 -34.5s25.333 -13.5 42 -13.5s32.167 4.5 46.5 13.5
s25.166 20.5 32.499 34.5h16z" />
    <glyph glyph-name="dotaccent" unicode="&#x2d9;" horiz-adv-x="310" 
d="M213 662c10.667 0 19.001 -3.83301 25.001 -11.5s8.33301 -16.834 7 -27.501c-2 -11.333 -7.66699 -20.833 -17 -28.5s-19.333 -11.5 -30 -11.5s-19 4 -25 12s-8 17.333 -6 28c1.33301 10.667 6.66602 19.834 15.999 27.501s19.333 11.5 30 11.5z" />
    <glyph glyph-name="ring" unicode="&#x2da;" horiz-adv-x="223" 
d="M188 669c22.667 0 40.5 -8 53.5 -24s17.5 -35.333 13.5 -58c-4 -23.333 -15.5 -43 -34.5 -59s-39.833 -24 -62.5 -24s-40.667 8.16699 -54 24.5s-18 35.833 -14 58.5s15.5 42 34.5 58s40.167 24 63.5 24zM181 633c-12.667 0 -24.335 -4.5 -35.002 -13.5
s-17 -19.833 -19 -32.5s0.5 -23.5 7.5 -32.5s16.833 -13.5 29.5 -13.5s24.334 4.5 35.001 13.5s17 19.833 19 32.5c2.66699 12.667 0.333984 23.5 -6.99902 32.5s-17.333 13.5 -30 13.5z" />
    <glyph glyph-name="ogonek" unicode="&#x2db;" horiz-adv-x="222" 
d="M154 -71c-5.33301 -18 -15.833 -32.167 -31.5 -42.5s-33.5 -15.5 -53.5 -15.5s-35.5 6.83301 -46.5 20.5s-14.833 30.167 -11.5 49.5c4.66699 24 19.667 44 45 60s49.333 20.333 72 13l8 -1l-8 -13h-7c-12.667 -0 -25.167 -4.16699 -37.5 -12.5
s-19.5 -18.166 -21.5 -29.499c-2 -12.667 -0.166992 -23.334 5.5 -32.001s15.167 -13 28.5 -13c20 0 34.667 7.66699 44 23l11 15l3 -19v-3z" />
    <glyph glyph-name="tilde" unicode="&#x2dc;" horiz-adv-x="300" 
d="M293 603c20.667 0 37.999 15.999 51.999 47.999h16c-6 -31.333 -16.667 -55.666 -32 -72.999s-33.666 -26 -54.999 -26c-12 0 -31.5 9.16699 -58.5 27.5s-45.167 27.5 -54.5 27.5c-8.66699 0 -17.834 -4.5 -27.501 -13.5s-17.167 -19.833 -22.5 -32.5h-15
c4.66699 28 14.834 51.167 30.501 69.5s32.5 27.5 50.5 27.5c14 0 34 -9.16699 60 -27.5s44.667 -27.5 56 -27.5z" />
    <glyph glyph-name="hungarumlaut" unicode="&#x2dd;" horiz-adv-x="328" 
d="M290 648c-1.33301 -12.667 -10.666 -22.667 -27.999 -30l-149 -59l-3 7l108 87c21.333 16 37.666 24 48.999 24c8.66699 0 15.167 -3.16699 19.5 -9.5s5.5 -12.833 3.5 -19.5zM407 648c-2.66699 -13.333 -12.333 -23.333 -29 -30l-148 -59l-3 7l108 87c20 16 36 24 48 24
c9.33301 0 16 -3 20 -9s5.33301 -12.667 4 -20z" />
    <glyph glyph-name="pi" unicode="&#x3c0;" horiz-adv-x="438" 
d="M357 333c20 0 33.1709 5.50098 39.5039 16.501s8.16602 23.833 5.49902 38.5l18 4c11.333 -32 9.83301 -59 -4.5 -81s-36.833 -33 -67.5 -33h-24l-38 -218c-4.66699 -28 -1 -42 11 -42c11.333 0 24.666 7.66699 39.999 23v-23c-22 -23.333 -44 -35 -66 -35
c-16.667 0 -28.834 6.5 -36.501 19.5s-9.83398 29.833 -6.50098 50.5l40 225h-76l-40 -225c-8 -46.667 -26.333 -70 -55 -70c-18 0 -32.667 11.667 -44 35l9 23c10 -20 20 -30 30 -30c12 0 20.667 14 26 42l40 225h-33c-36.667 0 -52 -18.333 -46 -55l-18 -4
c-11.333 31.333 -9.83301 58.166 4.5 80.499s36.833 33.5 67.5 33.5h224z" />
    <glyph glyph-name="endash" unicode="&#x2013;" horiz-adv-x="525" 
d="M534 191h-526l8 44h526z" />
    <glyph glyph-name="emdash" unicode="&#x2014;" horiz-adv-x="667" 
d="M675 191h-667l7 44h668z" />
    <glyph glyph-name="quoteleft" unicode="&#x2018;" horiz-adv-x="201" 
d="M202 414l-14.002 -10.999c-26 18 -44.5 41.5 -55.5 70.5s-14.167 55.5 -9.5 79.5c3.33301 20.667 11.333 36.5 24 47.5s26.334 16.5 41.001 16.5c12.667 0 22.834 -5 30.501 -15s10.167 -21.333 7.5 -34c-2 -12.667 -8.5 -23.834 -19.5 -33.501
s-22.833 -14.5 -35.5 -14.5c-4 0 -6.66699 0.333008 -8 1c-0.666992 -37.333 12.333 -73 39 -107z" />
    <glyph glyph-name="quoteright" unicode="&#x2019;" horiz-adv-x="201" 
d="M172 521c-2 -0.666992 -5.00195 -1 -9.00195 -1c-12.667 0 -22.667 4.83301 -30 14.5s-10 20.834 -8 33.501c2.66699 13.333 9.33398 24.833 20.001 34.5s22.334 14.5 35.001 14.5c14.667 0 26.5 -5.5 35.5 -16.5s11.5 -26.833 7.5 -47.5c-4 -24 -16.667 -50.333 -38 -79
s-48 -52.334 -80 -71.001l-9 11c38 34 63.333 69.667 76 107z" />
    <glyph glyph-name="quotesinglbase" unicode="&#x201a;" horiz-adv-x="242" 
d="M82 -8l-9.00098 0.00292969c-12.667 0 -22.667 4.66699 -30 14s-10 20.666 -8 33.999c2.66699 13.333 9.5 24.666 20.5 33.999s22.833 14 35.5 14c14.667 0 26.334 -5.33301 35.001 -16s11 -26.334 7 -47.001c-4 -24 -16.667 -50.667 -38 -80s-48 -53 -80 -71l-9 12
c38.667 34 64 69.333 76 106z" />
    <glyph glyph-name="quotedblleft" unicode="&#x201c;" horiz-adv-x="368" 
d="M368 414l-13.998 -11c-25.333 18 -43.5 41.333 -54.5 70s-14.5 55.334 -10.5 80.001c4 20.667 12.167 36.5 24.5 47.5s25.833 16.5 40.5 16.5c12.667 0 23 -4.83301 31 -14.5s10.667 -21.167 8 -34.5c-2.66699 -12.667 -9.33398 -23.834 -20.001 -33.501
s-22.334 -14.5 -35.001 -14.5c-4 0 -7 0.333008 -9 1c-0.666992 -36 12.333 -71.667 39 -107zM202.002 414l-14.002 -10.999c-26 18 -44.5 41.5 -55.5 70.5s-14.167 55.5 -9.5 79.5c3.33301 20.667 11.333 36.5 24 47.5s26.334 16.5 41.001 16.5
c12.667 0 22.834 -5 30.501 -15s10.167 -21.333 7.5 -34c-2 -12.667 -8.5 -23.834 -19.5 -33.501s-22.833 -14.5 -35.5 -14.5c-4 0 -6.66699 0.333008 -8 1c-0.666992 -37.333 12.333 -73 39 -107z" />
    <glyph glyph-name="quotedblright" unicode="&#x201d;" horiz-adv-x="368" 
d="M172 521c-2 -0.666992 -5.00195 -1 -9.00195 -1c-12.667 0 -22.667 4.83301 -30 14.5s-10 20.834 -8 33.501c2.66699 13.333 9.33398 24.833 20.001 34.5s22.334 14.5 35.001 14.5c14.667 0 26.5 -5.5 35.5 -16.5s11.5 -26.833 7.5 -47.5c-4 -24 -16.667 -50.333 -38 -79
s-48 -52.334 -80 -71.001l-9 11c38 34 63.333 69.667 76 107zM337.998 521c-1.33301 -0.666992 -4.00195 -1 -8.00195 -1c-12.667 0 -22.667 4.83301 -30 14.5s-10 20.834 -8 33.501c2.66699 13.333 9.33398 24.833 20.001 34.5s22.334 14.5 35.001 14.5
c14.667 0 26.5 -5.5 35.5 -16.5s11.5 -26.833 7.5 -47.5c-4 -24 -16.667 -50.333 -38 -79s-48 -52.334 -80 -71.001l-9 11c38.667 34 63.667 69.667 75 107z" />
    <glyph glyph-name="quotedblbase" unicode="&#x201e;" horiz-adv-x="368" 
d="M78 -8l-8 0.00292969c-12.667 0 -22.667 4.66699 -30 14s-10 20.666 -8 33.999c2.66699 13.333 9.5 24.666 20.5 33.999s22.833 14 35.5 14c14 0 25.5 -5.33301 34.5 -16s11.5 -26.334 7.5 -47.001c-4 -24 -16.667 -50.667 -38 -80s-48 -53 -80 -71l-9 12
c38.667 34.667 63.667 70 75 106zM245 -7.99707l-7.99902 0.00390625c-12.667 0 -22.834 4.66699 -30.501 14s-10.5 20.666 -8.5 33.999c2.66699 13.333 9.5 24.666 20.5 33.999s22.833 14 35.5 14c14.667 0 26.5 -5.33301 35.5 -16s11.5 -26.334 7.5 -47.001
c-4.66699 -24.667 -17.5 -51.5 -38.5 -80.5s-47.833 -52.5 -80.5 -70.5l-9 12c40 35.333 65.333 70.666 76 105.999z" />
    <glyph glyph-name="dagger" unicode="&#x2020;" horiz-adv-x="448" 
d="M289 445l-17.998 -222l-101 -410h-7l43 410l60 223l-87 -28c-12.667 -3.33301 -24 -0.5 -34 8.5s-14 20.167 -12 33.5c2.66699 13.333 10.5 24.333 23.5 33s25.167 11.334 36.5 8.00098l79 -28l-14 92c-2 12.667 2.5 24.5 13.5 35.5s23.167 16.5 36.5 16.5
c12.667 0 22.667 -5.66699 30 -17s8 -23 2 -35l-47 -92l88 28c13.333 3.33301 24.666 0.666016 33.999 -8.00098s12.666 -19.667 9.99902 -33c-2 -13.333 -9.33301 -24.5 -22 -33.5s-24.667 -11.833 -36 -8.5z" />
    <glyph glyph-name="daggerdbl" unicode="&#x2021;" horiz-adv-x="448" 
d="M207 -23l86.0039 27c12.667 4 24 1.33301 34 -8s13.667 -20.666 11 -33.999c-2.66699 -12.667 -10.334 -23.5 -23.001 -32.5s-25 -11.5 -37 -7.5l-78 27l15 -92c1.33301 -12.667 -3.33398 -24.334 -14.001 -35.001s-22.667 -16 -36 -16s-23.5 5.33301 -30.5 16
s-7.5 22.334 -1.5 35.001l46 92l-88 -27c-12.667 -4 -23.834 -1.5 -33.501 7.5s-13.5 19.833 -11.5 32.5c2.66699 13.333 10.334 24.666 23.001 33.999s25 12 37 8l77 -27l21 235l62 234l-87 -28c-12.667 -3.33301 -24 -0.5 -34 8.5s-14 20.167 -12 33.5
c2.66699 13.333 10.5 24.333 23.5 33s25.167 11.334 36.5 8.00098l79 -28l-14 92c-2 12.667 2.5 24.5 13.5 35.5s23.167 16.5 36.5 16.5c12.667 0 22.667 -5.66699 30 -17s8 -23 2 -35l-47 -92l88 28c13.333 3.33301 24.666 0.666016 33.999 -8.00098
s12.666 -19.667 9.99902 -33c-2 -13.333 -9.33301 -24.5 -22 -33.5s-24.667 -11.833 -36 -8.5l-78 27l-20 -233z" />
    <glyph glyph-name="bullet" unicode="&#x2022;" horiz-adv-x="270" 
d="M164 307c21.333 0 38.168 -7.5 50.501 -22.5s16.833 -33.167 13.5 -54.5c-4 -21.333 -15 -39.5 -33 -54.5s-37.333 -22.5 -58 -22.5c-21.333 0 -38 7.5 -50 22.5s-16.333 33.167 -13 54.5c4 21.333 14.667 39.5 32 54.5s36.666 22.5 57.999 22.5z" />
    <glyph glyph-name="ellipsis" unicode="&#x2026;" horiz-adv-x="733" 
d="M138 40c-2 -12.667 -8.49902 -23.8301 -19.499 -33.4971s-23.167 -14.5 -36.5 -14.5c-12.667 0 -22.834 4.66699 -30.501 14s-10.5 20.666 -8.5 33.999c2.66699 13.333 9.5 24.666 20.5 33.999s22.833 14 35.5 14c13.333 0 23.833 -4.83301 31.5 -14.5
s10.167 -20.834 7.5 -33.501zM388.001 40.0039c-2 -12.667 -8.49902 -23.8301 -19.499 -33.4971s-23.167 -14.5 -36.5 -14.5c-12.667 0 -22.834 4.66699 -30.501 14s-10.5 20.666 -8.5 33.999c2.66699 13.333 9.5 24.666 20.5 33.999s22.833 14 35.5 14
c13.333 0 23.833 -4.83301 31.5 -14.5s10.167 -20.834 7.5 -33.501zM638.002 40.0078c-2 -12.667 -8.49902 -23.8301 -19.499 -33.4971s-23.167 -14.5 -36.5 -14.5c-12.667 0 -22.834 4.66699 -30.501 14s-10.5 20.666 -8.5 33.999c2.66699 13.333 9.5 24.666 20.5 33.999
s22.833 14 35.5 14c13.333 0 23.833 -4.83301 31.5 -14.5s10.167 -20.834 7.5 -33.501z" />
    <glyph glyph-name="perthousand" unicode="&#x2030;" horiz-adv-x="1133" 
d="M702 128c-6.66699 -39.333 -27.167 -73.166 -61.5 -101.499s-71.833 -42.5 -112.5 -42.5c-41.333 0 -74.166 14.167 -98.499 42.5s-33.166 62.166 -26.499 101.499c7.33301 39.333 28.166 73 62.499 101s71.833 42 112.5 42s73.167 -14.167 97.5 -42.5
s33.166 -61.833 26.499 -100.5zM672 600l-493 -618l-32 18l492 618zM415 473c-6.66699 -39.333 -27.165 -73 -61.498 -101s-71.833 -42 -112.5 -42s-73.334 14 -98.001 42s-33.334 61.667 -26.001 101s28 73.166 62 101.499s71.333 42.5 112 42.5
c41.333 0 74 -14.167 98 -42.5s32.667 -62.166 26 -101.499zM642.002 128c6 33.333 3.33301 60.666 -8 81.999s-31.666 32 -60.999 32s-53.5 -10.667 -72.5 -32s-31.5 -48.666 -37.5 -81.999c-5.33301 -34 -2.33301 -61.667 9 -83s31.666 -32 60.999 -32
s53.333 10.667 72 32s31 49 37 83zM355.002 473c6.66699 34 4.16797 61.667 -7.49902 83s-32.167 32 -61.5 32s-53.333 -10.667 -72 -32s-31 -49 -37 -83c-6 -33.333 -3.33301 -60.666 8 -81.999s31.666 -32 60.999 -32s53.333 10.667 72 32s31 48.666 37 81.999zM1073 128
c-7.33301 -39.333 -28.166 -73.166 -62.499 -101.499s-71.833 -42.5 -112.5 -42.5s-73.167 14.167 -97.5 42.5s-33.166 62.166 -26.499 101.499c7.33301 39.333 28 73 62 101s71.333 42 112 42c41.333 0 74.166 -14.167 98.499 -42.5s33.166 -61.833 26.499 -100.5z
M1013 128c5.33301 34 2.33301 61.499 -9 82.499s-31.666 31.5 -60.999 31.5s-53.333 -10.667 -72 -32s-31 -48.666 -37 -81.999c-6 -34 -3.33301 -61.667 8 -83s31.666 -32 60.999 -32s53.5 10.667 72.5 32s31.5 49 37.5 83z" />
    <glyph glyph-name="guilsinglleft" unicode="&#x2039;" horiz-adv-x="500" 
d="M414 68l-17 -18l-291 218l367 217l12 -17l-267 -200z" />
    <glyph glyph-name="guilsinglright" unicode="&#x203a;" horiz-adv-x="500" 
d="M439 268l-367 -218l-13 18l269 200l-198 200l18 17z" />
    <glyph glyph-name="fraction" unicode="&#x2044;" horiz-adv-x="348" 
d="M464 600l-492 -618l-33 18l493 618z" />
    <glyph glyph-name="trademark" unicode="&#x2122;" horiz-adv-x="968" 
d="M607 513l-49.001 -180.002c-12.667 -40 -17.167 -67.5 -13.5 -82.5s19.834 -22.5 48.501 -22.5l-3 -18h-172l4 18c30 0 52.333 7.33301 67 22s27.667 42.334 39 83.001l39 144c10.667 45.333 12.334 74.166 5.00098 86.499s-26.666 18.5 -57.999 18.5l4 18h127l45 -308
l153 308h114l-4 -18c-32 0 -54 -6.16699 -66 -18.5s-19.667 -41.166 -23 -86.499l-10 -144c-2.66699 -41.333 0.666016 -69.166 9.99902 -83.499s29 -21.5 59 -21.5l-4 -18h-191l3 18c28.667 0 47.167 6.5 55.5 19.5s14.166 41.5 17.499 85.5l13 167l-153 -305h-10z
M258.999 566.998c-42.667 0 -71.666 -5.16699 -86.999 -15.5s-29.333 -30.5 -42 -60.5h-22l39 109h206c42.667 0 71.667 5.16699 87 15.5s29.333 30.5 42 60.5h22l-39 -109h-133l-39 -219c-8.66699 -50 -10 -82 -4 -96s24.667 -21 56 -21l-4 -21h-198l5 21
c30.667 0 51.667 7 63 21s21.666 46 30.999 96l38 219h-21z" />
    <glyph glyph-name="Omega" unicode="&#x2126;" horiz-adv-x="575" 
d="M349 204c40 10.667 71.3281 33 93.9951 67s37.667 70.667 45 110c4.66699 19.333 5.83398 39.833 3.50098 61.5s-6.83301 41.5 -13.5 59.5s-20 32.833 -40 44.5s-45.333 17.5 -76 17.5s-58 -5.66699 -82 -17s-43 -26.5 -57 -45.5s-25.167 -38.333 -33.5 -58
s-14.166 -40.5 -17.499 -62.5c-7.33301 -39.333 -5.66602 -76 5.00098 -110s33.667 -56.333 69 -67l-36 -204h-162l20 149h16l-1 -20c0.666992 -29.333 5.16699 -49.333 13.5 -60s28.833 -16 61.5 -16h25l21 118c-39.333 17.333 -68.166 45 -86.499 83
s-23.5 79.333 -15.5 124c10.667 60 41.334 112.5 92.001 157.5s108.667 67.5 174 67.5c66 0 116.5 -22.5 151.5 -67.5s47.167 -97.5 36.5 -157.5c-8 -44.667 -27.833 -86 -59.5 -124s-70.167 -65.333 -115.5 -82l-21 -119h26c32 0 54.167 5.33301 66.5 16
s23.833 30.667 34.5 60l7 20h16l-33 -149h-164z" />
    <glyph glyph-name="partialdiff" unicode="&#x2202;" horiz-adv-x="488" 
d="M448 266c-9.33301 -54.667 -23.5 -101.833 -42.5 -141.5s-40.167 -69 -63.5 -88s-45.333 -32.667 -66 -41s-40.667 -12.5 -60 -12.5c-50 0 -89.5 18.5 -118.5 55.5s-38.833 81.167 -29.5 132.5c8.66699 51.333 34.167 95.333 76.5 132s88.5 55 138.5 55
c24 0 45.333 -5.5 64 -16.5s32.334 -25.167 41.001 -42.5c5.33301 48.667 7.83301 94.334 7.5 137.001s-8.83301 78.667 -25.5 108s-41 44 -73 44c-17.333 0 -33.5 -4.66699 -48.5 -14s-26.167 -18.833 -33.5 -28.5s-15.833 -17.5 -25.5 -23.5s-17.5 -5.66699 -23.5 1
c-15.333 12 -12 28.667 10 50c28.667 27.333 66 42.666 112 45.999c5.33301 0.666992 10.333 1 15 1c33.333 0 61.833 -10.5 85.5 -31.5s40.5 -48.333 50.5 -82s16.167 -71.5 18.5 -113.5s-0.833984 -84.333 -9.50098 -127zM379 244.001
c-1.33301 20.667 -12.3301 38.167 -32.9971 52.5s-44.334 21.5 -71.001 21.5c-37.333 0 -68.5 -14.333 -93.5 -43s-41.167 -63 -48.5 -103c-7.33301 -40.667 -3.5 -75.667 11.5 -105s41.167 -44 78.5 -44c8 0 16.333 1.33301 25 4s19.5 8.66699 32.5 18
s25.167 21.5 36.5 36.5s22.666 36.5 33.999 64.5s20.666 60.667 27.999 98z" />
    <glyph glyph-name="Delta" unicode="&#x2206;" horiz-adv-x="557" 
d="M89 43h318l-77 442zM20 0l337 617h21l109 -617h-467z" />
    <glyph glyph-name="product" unicode="&#x220f;" horiz-adv-x="617" 
d="M266 556l-74.002 -418c-11.333 -50 -14.333 -82 -9 -96s27.666 -21 66.999 -21l-3 -21h-234l3 21c41.333 0 68.833 7 82.5 21s25.167 46 34.5 96l57 325c9.33301 50 9.5 81.833 0.5 95.5s-34.167 20.5 -75.5 20.5l3 21h542l-3 -21c-42 0 -69.667 -6.83301 -83 -20.5
s-24.666 -45.5 -33.999 -95.5l-57 -325c-9.33301 -50 -9.66602 -82 -0.999023 -96s34 -21 76 -21l-4 -21h-234l3 21c38.667 0 62.667 5.66699 72 17s18 40.333 26 87c0.666992 6 1.33398 10.333 2.00098 13l75 418h-232z" />
    <glyph glyph-name="summation" unicode="&#x2211;" horiz-adv-x="531" 
d="M1 -170l3 17l234 386l-109 350l4 17h406l-15 -132h-21l-1 20c-2 28.667 -9 48.334 -21 59.001s-39.333 16 -82 16h-191l106 -344l-214 -352h202c42.667 0 71.667 5.16699 87 15.5s29.333 30.166 42 59.499l8 20h21l-32 -132h-427z" />
    <glyph glyph-name="minus" unicode="&#x2212;" horiz-adv-x="458" 
d="M387 208h-292l8 44h291z" />
    <glyph glyph-name="radical" unicode="&#x221a;" horiz-adv-x="549" 
d="M158 268l59 26l46 -205l358 652h41l-419 -763h-15z" />
    <glyph glyph-name="infinity" unicode="&#x221e;" horiz-adv-x="713" 
d="M692 323c-6.66699 -36.667 -24.667 -67.5 -54 -92.5s-64.333 -37.5 -105 -37.5c-24.667 0 -51.667 10.167 -81 30.5s-54.666 43.5 -75.999 69.5c-30.667 -26 -64.5 -49.167 -101.5 -69.5s-67.833 -30.5 -92.5 -30.5c-40.667 0 -71.334 12.5 -92.001 37.5
s-28 55.833 -22 92.5c7.33301 37.333 25.666 68.5 54.999 93.5s64.333 37.5 105 37.5c24.667 0 51.5 -10.167 80.5 -30.5s55.167 -43.833 78.5 -70.5c29.333 26 62.5 49.333 99.5 70s67.833 31 92.5 31c40.667 0 71.334 -12.5 92.001 -37.5s27.667 -56.167 21 -93.5z
M642 323c4 24 -0.331055 44.167 -12.998 60.5s-31 24.5 -55 24.5c-13.333 0 -33.833 -7 -61.5 -21s-51.834 -28.333 -72.501 -43l-32 -21c6.66699 -6.66699 15.5 -14.667 26.5 -24s28.667 -21.833 53 -37.5s43.166 -23.5 56.499 -23.5c24 0 45.333 8.33301 64 25
s30 36.667 34 60zM336.002 323c-5.33301 6.66699 -12.501 14.667 -21.501 24s-24.333 21.833 -46 37.5s-39.167 23.5 -52.5 23.5c-24 0 -45.167 -8.16699 -63.5 -24.5s-29.833 -36.5 -34.5 -60.5c-3.33301 -23.333 1.33398 -43.333 14.001 -60s30.667 -25 54 -25
c13.333 0 32.5 7 57.5 21s46.5 28.333 64.5 43z" />
    <glyph glyph-name="integral" unicode="&#x222b;" horiz-adv-x="191" 
d="M115 432c10 56 30.833 100.833 62.5 134.5s64.167 50.5 97.5 50.5c38 0 64.333 -13.667 79 -41c10 -20.667 9.33301 -37 -2 -49c-6 -6 -13.667 -9 -23 -9s-16 3.66699 -20 11s-6.16699 15.333 -6.5 24s-3.33301 16.667 -9 24s-14.834 11 -27.501 11
c-18 0 -36 -13 -54 -39s-31.667 -65 -41 -117l-95 -539c-18.667 -106.667 -62 -160 -130 -160c-37.333 0 -62 13.667 -74 41c-9.33301 21.333 -7.33301 38 6 50c6 5.33301 13.333 8 22 8c9.33301 0 15.666 -3.66699 18.999 -11s4.83301 -15.333 4.5 -24
s1.83398 -16.667 6.50098 -24s13 -11 25 -11c15.333 0 27.833 9.83301 37.5 29.5s18.834 53.5 27.501 101.5z" />
    <glyph glyph-name="approxequal" unicode="&#x2248;" horiz-adv-x="458" 
d="M125 311c22 22 46.333 32.999 73 32.999c13.333 0 34.333 -5.5 63 -16.5s50 -16.5 64 -16.5c11.333 0 23 2.83301 35 8.5s21.333 11.167 28 16.5l10 8l-10 -50c-22 -22 -46 -33 -72 -33c-13.333 0 -34.5 5.5 -63.5 16.5s-50.5 16.5 -64.5 16.5
c-10.667 0 -22 -2.66699 -34 -8s-21.333 -10.666 -28 -15.999l-10 -9zM102 177.999c22 22 46 33.001 72 33.001c13.333 0 34.5 -5.5 63.5 -16.5s50.5 -16.5 64.5 -16.5c10.667 0 22 2.66699 34 8s21.333 10.666 28 15.999l10 9l-9 -50c-22 -22 -46 -33 -72 -33
c-13.333 0 -34.5 5.5 -63.5 16.5s-50.5 16.5 -64.5 16.5c-10.667 0 -22 -2.83301 -34 -8.5s-21.333 -11.167 -28 -16.5l-10 -8z" />
    <glyph glyph-name="notequal" unicode="&#x2260;" horiz-adv-x="458" 
d="M341 310h64l-8 -44h-96l-71 -81h153l-8 -44h-183l-96 -108l-28 18l79 90h-64l8 44h94l72 81h-152l8 44h183l97 109l28 -19z" />
    <glyph glyph-name="lessequal" unicode="&#x2264;" horiz-adv-x="458" 
d="M391 43l-8 -44h-358l8 44h358zM366 122l-15 -20l-278 166l336 165l9 -19l-234 -146z" />
    <glyph glyph-name="greaterequal" unicode="&#x2265;" horiz-adv-x="458" 
d="M431 268l-337 -166l-8 20l233 146l-181 146l15 19zM383 -1h-358l8 44h358z" />
    <glyph glyph-name="lozenge" unicode="&#x25ca;" horiz-adv-x="494" 
d="M335 626l133 -331l-251 -341l-133 341zM231 34l190 262l-99 251l-189 -251z" />
    <glyph glyph-name="fi" unicode="&#xfb01;" horiz-adv-x="430" 
d="M164 298l-70.9932 -404.999c-18.667 -106.667 -62.334 -160 -131.001 -160c-36.667 0 -61.334 13.667 -74.001 41c-9.33301 21.333 -7 38 7 50c5.33301 5.33301 12.666 8 21.999 8s15.666 -3.66699 18.999 -11s4.83301 -15.333 4.5 -24s1.83398 -16.667 6.50098 -24
s13 -11 25 -11c15.333 0 27.833 9.83301 37.5 29.5s18.834 53.5 27.501 101.5l71 405h-65l7 35h65l17 99c10 58 31.5 103.333 64.5 136s71.833 49 116.5 49c51.333 0 85.666 -17.667 102.999 -53c11.333 -24 11 -44 -1 -60c-6 -7.33301 -13.667 -11 -23 -11s-16 5 -20 15
s-6.33301 20.833 -7 32.5s-6 22.5 -16 32.5s-25 15 -45 15c-58.667 0 -97.334 -52 -116.001 -156l-17 -99h163c17.333 0 29.666 -6.33301 36.999 -19s9.33301 -29.334 6 -50.001l-35 -200c-4.66699 -27.333 -1 -41 11 -41c10 0 23.333 7.33301 40 22v-23
c-23.333 -23.333 -45.333 -35 -66 -35c-16.667 0 -28.834 6.5 -36.501 19.5s-9.83398 29.833 -6.50098 50.5l35 199c4.66699 28 1 42 -11 42h-144z" />
    <glyph glyph-name="fl" unicode="&#xfb02;" horiz-adv-x="426" 
d="M290 579c-22.667 0 -43.3291 -12.668 -61.9961 -38.001s-32.334 -64.666 -41.001 -117.999l-16 -90h80l-7 -35h-80l-71 -405c-18.667 -106.667 -62.334 -160 -131.001 -160c-36.667 0 -61.334 13.667 -74.001 41c-9.33301 21.333 -7 38 7 50
c5.33301 5.33301 12.666 8 21.999 8s15.666 -3.66699 18.999 -11s4.83301 -15.333 4.5 -24s1.83398 -16.667 6.50098 -24s13 -11 25 -11c15.333 0 27.833 9.83301 37.5 29.5s18.834 53.5 27.501 101.5l71 405h-65l7 35h65l16 90c10 56.667 31.167 101.667 63.5 135
s67.166 50 104.499 50h123l-96 -544c-4.66699 -27.333 -1 -41 11 -41c10 0 23.333 7.33301 40 22v-23c-23.333 -23.333 -45.333 -35 -66 -35c-16.667 0 -28.834 6.5 -36.501 19.5s-9.83398 29.833 -6.50098 50.5l72 406c8.66699 50 10.834 81.833 6.50098 95.5
s-19.166 20.5 -44.499 20.5h-12z" />
    <glyph glyph-name=".null" 
 />
    <glyph glyph-name="nonmarkingreturn" horiz-adv-x="333" 
 />
    <glyph glyph-name="NUL" 
 />
    <glyph glyph-name="HT" 
 />
    <glyph glyph-name="LF" 
 />
    <glyph glyph-name="CR" 
 />
    <glyph glyph-name="DLE" 
 />
    <glyph glyph-name="DC1" 
 />
    <glyph glyph-name="DC2" 
 />
    <glyph glyph-name="DC3" 
 />
    <glyph glyph-name="DC4" 
 />
    <glyph glyph-name="RS" 
 />
    <glyph glyph-name="US" 
 />
    <glyph glyph-name="percent" horiz-adv-x="763" 
d="M702 128c-6.66699 -39.333 -27.167 -73.166 -61.5 -101.499s-71.833 -42.5 -112.5 -42.5c-41.333 0 -74.166 14.167 -98.499 42.5s-33.166 62.166 -26.499 101.499c7.33301 39.333 28.166 73 62.499 101s71.833 42 112.5 42s73.167 -14.167 97.5 -42.5
s33.166 -61.833 26.499 -100.5zM672 600l-493 -618l-32 18l492 618zM415 473c-6.66699 -39.333 -27.165 -73 -61.498 -101s-71.833 -42 -112.5 -42s-73.334 14 -98.001 42s-33.334 61.667 -26.001 101s28 73.166 62 101.499s71.333 42.5 112 42.5
c41.333 0 74 -14.167 98 -42.5s32.667 -62.166 26 -101.499zM642.002 128c6 33.333 3.33301 60.666 -8 81.999s-31.666 32 -60.999 32s-53.5 -10.667 -72.5 -32s-31.5 -48.666 -37.5 -81.999c-5.33301 -34 -2.33301 -61.667 9 -83s31.666 -32 60.999 -32
s53.333 10.667 72 32s31 49 37 83zM355.002 473c6.66699 34 4.16797 61.667 -7.49902 83s-32.167 32 -61.5 32s-53.333 -10.667 -72 -32s-31 -49 -37 -83c-6 -33.333 -3.33301 -60.666 8 -81.999s31.666 -32 60.999 -32s53.333 10.667 72 32s31 48.666 37 81.999z" />
    <glyph glyph-name="DEL" 
 />
    <glyph glyph-name="apple" 
 />
    </font>
</defs>
</svg>
